<?xml version="1.0"?>
<svg xmlns="http://www.w3.org/2000/svg" id="icons" viewBox="0 0 60 60" width="512" height="512"><path d="M19,30a142.759,142.759,0,0,1-2.744,24.834.889.889,0,0,0,.5.986C18.547,56.635,22.65,58,30,58s11.453-1.366,13.246-2.18a.889.889,0,0,0,.5-.986A142.7,142.7,0,0,1,41,30a41.439,41.439,0,0,1,2.275-13.617,37.437,37.437,0,0,1,4.938-9.7,2.955,2.955,0,0,0-.547-.348L39.82,2.4C39.334,4.941,37.439,10,30,10s-9.334-5.058-9.82-7.6L12.347,6.326a3.019,3.019,0,0,0-.561.354,37.5,37.5,0,0,1,4.94,9.707A41.455,41.455,0,0,1,19,30Z"/><path d="M45.872,19.9l5.121-.642a1,1,0,0,0,.865-1.139,40.932,40.932,0,0,0-2.465-9.637,36.044,36.044,0,0,0-4.137,8.316Z"/><path d="M30,8c5.863,0,7.424-3.728,7.841-5.828A40.147,40.147,0,0,1,30,3h0a40.178,40.178,0,0,1-7.837-.828C22.576,4.273,24.138,8,30,8Z"/><path d="M9.008,19.256l5.114.633.621-3.1A36.089,36.089,0,0,0,10.608,8.48a40.936,40.936,0,0,0-2.467,9.636A1,1,0,0,0,9.008,19.256Z"/></svg>
