<?xml version="1.0"?>
<svg xmlns="http://www.w3.org/2000/svg" id="icons" viewBox="0 0 60 60" width="512" height="512"><path d="M21.2,7a6.014,6.014,0,0,1,2.136,3.513l1.483,7.47H35.179l1.482-7.462A6.005,6.005,0,0,1,38.8,7l.9-.721a2,2,0,0,0-.321-3.335,9.311,9.311,0,0,0-2.765-.936,1.048,1.048,0,0,0-.744.162,10.8,10.8,0,0,0-4.681,6.834,1.206,1.206,0,0,1-2.372,0,10.8,10.8,0,0,0-4.682-6.833,1.046,1.046,0,0,0-.742-.161,9.336,9.336,0,0,0-2.77.938,2,2,0,0,0-.315,3.339Z"/><path d="M20.1,33.55a1,1,0,0,1,1.787.9,67.887,67.887,0,0,0-5.839,21.536c0,.007,0,.011-.005.018s0,.01,0,.016c-.017.128-.034.265-.043.4A7.081,7.081,0,0,0,18.97,57a12.784,12.784,0,0,0,3.056-.375c.114-4.312.734-15.557,4.06-23.031a1,1,0,1,1,1.828.812c-3.477,7.815-3.862,20.523-3.9,22.99v.016A21,21,0,0,0,30,58a19.9,19.9,0,0,0,5.986-.606c0-.012,0-.023,0-.034-.045-2.525-.439-15.167-3.9-22.954a1,1,0,1,1,1.828-.812c3.33,7.483,3.947,18.744,4.06,23.031A12.784,12.784,0,0,0,41.03,57a7.741,7.741,0,0,0,2.985-.553c-.022-.163-.039-.3-.056-.428,0-.006,0-.011,0-.016s0-.011-.005-.018a67.887,67.887,0,0,0-5.839-21.536,1,1,0,0,1,1.787-.9,68.709,68.709,0,0,1,5.921,21.187A7.92,7.92,0,0,0,50,52.721C45.529,29.165,37.143,21.237,35.653,19.99H24.347C22.865,21.229,14.473,29.153,10,52.706a7.826,7.826,0,0,0,4.174,2.031A68.709,68.709,0,0,1,20.1,33.55Z"/></svg>
