<?xml version="1.0"?>
<svg xmlns="http://www.w3.org/2000/svg" id="icons" viewBox="0 0 60 60" width="512" height="512"><path d="M9.171,17.64l8.437,1.345,1.38-6.433-8.041-1.389a1,1,0,0,0-1.122.679l-1.448,4.5A1,1,0,0,0,9.171,17.64Z"/><path d="M12,58H35V6H13.72L12.577,9.415,19.419,10.6a1.879,1.879,0,0,1,1.246.809,1.968,1.968,0,0,1,.291,1.506l-1.409,6.569A1.91,1.91,0,0,1,17.693,21a1.826,1.826,0,0,1-.293-.023L9.581,19.73A69.406,69.406,0,0,0,8,34.36V54A4,4,0,0,0,12,58ZM30,8a3,3,0,1,1-3,3A3,3,0,0,1,30,8Zm0,8a3,3,0,1,1-3,3A3,3,0,0,1,30,16Zm0,8a3,3,0,1,1-3,3A3,3,0,0,1,30,24Z"/><circle cx="30" cy="27" r="1"/><circle cx="30" cy="11" r="1"/><path d="M37,58H48a4,4,0,0,0,4-4V34.36a69.406,69.406,0,0,0-1.581-14.63L42.6,20.977a1.959,1.959,0,0,1-.293.023,1.909,1.909,0,0,1-1.855-1.52l-1.409-6.567a1.969,1.969,0,0,1,.291-1.507A1.88,1.88,0,0,1,40.58,10.6l6.843-1.182L46.28,6H37Z"/><path d="M46,3a1,1,0,0,0-1-1H15a1,1,0,0,0-1,1V4H46Z"/><circle cx="30" cy="19" r="1"/><path d="M42.392,18.985l8.437-1.345a1,1,0,0,0,.794-1.294l-1.448-4.5a1,1,0,0,0-1.122-.679l-8.041,1.389Z"/></svg>
