<?xml version="1.0"?>
<svg xmlns="http://www.w3.org/2000/svg" id="icons" viewBox="0 0 60 60" width="512" height="512"><path d="M34.013,48.938c-.006,0-.01.009-.017.011L34.229,51,58.005,48.18l-.234-2.047Z"/><path d="M51,11V10a1,1,0,0,0-1-1H32.816a2.809,2.809,0,0,1,0,2Z"/><path d="M38,17V13H36V34a6,6,0,0,1-4.593,5.826L34.235,46.9l22.116-2.622L53.147,25H46A8.009,8.009,0,0,1,38,17Z"/><path d="M40,17a6.006,6.006,0,0,0,6,6h6.815L51.153,13H40Z"/><path d="M29,38.807V13H22v4a8.009,8.009,0,0,1-8,8H6.853l-3.2,19.276L25.765,46.9Z"/><path d="M26,48.964,2.413,46.144a.85.85,0,0,1-.087-.007l-.012-.005-.1-.012L2,48.156,25.767,51Z"/><circle cx="30" cy="10" r="1"/><path d="M34,34V13H31V37.873A4.005,4.005,0,0,0,34,34Z"/><path d="M20,17V13H8.847L7.185,23H14A6.006,6.006,0,0,0,20,17Z"/><path d="M27,10a2.966,2.966,0,0,1,.184-1H10a1,1,0,0,0-1,1v1H27.184A2.966,2.966,0,0,1,27,10Z"/></svg>
