<svg id="icons" height="512" viewBox="0 0 60 60" width="512" xmlns="http://www.w3.org/2000/svg"><path d="m23.969 17h12.062a25.814 25.814 0 0 1 .749-5.241 26.667 26.667 0 0 1 3.46-8.01 3.018 3.018 0 0 0 -.718-.409l-2.678-1.08c-.499 2.096-2.297 4.74-6.844 4.74s-6.345-2.644-6.844-4.74l-2.677 1.078a3.132 3.132 0 0 0 -.718.408 26.7 26.7 0 0 1 3.46 8.011 25.8 25.8 0 0 1 .748 5.243z"/><path d="m19.083 39.6a1 1 0 0 1 1.836.794c-.017.039-1.339 3.278-1.784 12.658-.07 1.434-.114 2.981-.135 4.6a.35.35 0 0 0 .474.326l6.7-2.679-3.015-2.34a2.637 2.637 0 0 1 -1.118-1.889.912.912 0 0 1 -.028-.138v-.032c0-.013-.005-.025-.006-.039 0-.052.01-.1.01-.154a35.319 35.319 0 0 1 2.037-12.023 1 1 0 1 1 1.9.629 33.7 33.7 0 0 0 -1.825 8.478 11.077 11.077 0 0 1 3.662-1.551 10.089 10.089 0 0 1 2.209-.246h.081a10.128 10.128 0 0 1 2.14.245 11.043 11.043 0 0 1 3.655 1.55 33.706 33.706 0 0 0 -1.825-8.479 1 1 0 1 1 1.9-.629 35.315 35.315 0 0 1 2.037 12.025c0 .051.013.1.01.151 0 .014-.005.026-.006.039v.03a.992.992 0 0 1 -.029.144 2.691 2.691 0 0 1 -1.178 1.93l-2.957 2.3 6.7 2.681a.35.35 0 0 0 .472-.335c-.021-1.586-.065-3.133-.135-4.6-.445-9.389-1.77-12.624-1.784-12.655a1 1 0 0 1 1.836-.794c.058.133 1.381 3.289 1.893 12.4h3.19v-1.997c0-.134-.1-13.527-7.735-24.672a12.926 12.926 0 0 1 -2.226-6.328h-3.647a14.614 14.614 0 0 1 2.608 8 1 1 0 0 1 -1 1 1 1 0 0 1 -1-1c0-.052-.052-4.906-3-7.695-2.948 2.789-3 7.643-3 7.7a1 1 0 0 1 -1 1 1 1 0 0 1 -1-1 14.614 14.614 0 0 1 2.608-8h-3.647a12.94 12.94 0 0 1 -2.225 6.322c-7.636 11.14-7.736 24.533-7.736 24.673v2h3.19c.51-9.115 1.835-12.271 1.893-12.4z"/><path d="m30 5c3.075 0 4.257-1.468 4.713-2.635a17.117 17.117 0 0 1 -4.713.635 17.116 17.116 0 0 1 -4.714-.634c.456 1.165 1.638 2.634 4.714 2.634z"/><path d="m35.988 50.8c0-.037 0-.07 0-.107a.716.716 0 0 0 -.252-.53 9.927 9.927 0 0 0 -2.736-1.596v4.841l2.617-2.031a.777.777 0 0 0 .371-.577z"/><path d="m24.014 50.686v.11a.72.72 0 0 0 .312.535l2.674 2.075v-4.842a9.913 9.913 0 0 0 -2.739 1.595.717.717 0 0 0 -.247.527z"/><path d="m41.849 11a1 1 0 0 0 .989-1.158 16.391 16.391 0 0 0 -1.351-4.317 24.764 24.764 0 0 0 -2.417 5.475z"/><path d="m18.149 11.008 2.783-.008a24.757 24.757 0 0 0 -2.419-5.479 16.43 16.43 0 0 0 -1.354 4.326 1 1 0 0 0 .99 1.161z"/></svg>