<svg id="icons" height="512" viewBox="0 0 60 60" width="512" xmlns="http://www.w3.org/2000/svg"><path d="m27.533 37.728 1.222-.458a5 5 0 0 0 2.84-6.651l-.149-.347-6.123 2.3z"/><path d="m57.446 33.272-6.123 2.3 2.21 5.16 1.222-.458a5 5 0 0 0 2.84-6.651z"/><path d="m37.955 57.216a11.127 11.127 0 0 0 -2.9-7.269 10.205 10.205 0 0 0 -5.755-2.731 6.791 6.791 0 0 0 8.658 10z"/><path d="m56.988 6a1 1 0 0 0 -1-1h-2v3h3z"/><path d="m30.988 3a1 1 0 0 0 -1-1h-2v3h3z"/><path d="m4.444 53.425a6.753 6.753 0 0 0 7.511.791 11.127 11.127 0 0 0 -2.9-7.269 10.205 10.205 0 0 0 -5.755-2.731 6.793 6.793 0 0 0 1.147 9.209z"/><path d="m19.992 2h-2a1 1 0 0 0 -1 1v2h3z"/><path d="m21.992 2h3.998v3h-3.998z"/><path d="m47.992 5h3.998v3h-3.998z"/><path d="m13.82 52.769c.008-.009.017-.017.026-.026l11.98-13.923-2.342-5.464a2 2 0 0 1 1.135-2.66l6.369-2.389v-21.307h-13.994v17.163a10.986 10.986 0 0 1 -2.822 7.358l-9.407 10.951a11.733 11.733 0 0 1 5.7 3.061 12.479 12.479 0 0 1 3.355 7.236z"/><path d="m36.465 48.533a12.479 12.479 0 0 1 3.355 7.236l.026-.026 11.98-13.923-2.342-5.464a2 2 0 0 1 1.135-2.66l6.369-2.389v-21.307h-13.994v17.163a10.991 10.991 0 0 1 -2.821 7.358l-9.408 10.951a11.729 11.729 0 0 1 5.7 3.061z"/><path d="m45.992 5h-2a1 1 0 0 0 -1 1v2h3z"/></svg>