<svg id="icons" height="512" viewBox="0 0 60 60" width="512" xmlns="http://www.w3.org/2000/svg"><path d="m25.227 52.993a1.035 1.035 0 0 0 1.122-.815l.257-1.373c-13.2-1.193-19.437-4.541-21.527-5.957a2 2 0 0 1 -.848-1.969c2.847-18.068 9.255-26.925 12.745-30.549-.87-.088-1.738-.18-2.606-.285-1.633 1.7-9.615 10.989-12.361 32.289a1 1 0 0 0 .295.857c1.875 1.771 7.86 6.077 22.923 7.802z"/><path d="m27.247 12.953q-3.819-.081-7.628-.388c-2.68 2.327-10.242 10.507-13.411 30.621 1.964 1.341 7.9 4.512 20.768 5.645l2.024-10.807v-13.024a1 1 0 0 1 2 0v13.024l2.024 10.807c12.867-1.133 18.8-4.3 20.776-5.64-3.177-20.119-10.739-28.3-13.419-30.626q-3.809.306-7.628.388a24.526 24.526 0 0 1 5.184 8.7 1 1 0 0 1 -.585 1.288 1.038 1.038 0 0 1 -.352.059 1 1 0 0 1 -.937-.649c-2.214-5.907-4.989-8.381-6.063-9.163-1.068.779-3.846 3.252-6.062 9.163a1 1 0 1 1 -1.874-.7 24.526 24.526 0 0 1 5.183-8.698z"/><path d="m45 10.113v-2.113a.976.976 0 0 0 -.329-.736 1.006 1.006 0 0 0 -.793-.253 129.788 129.788 0 0 1 -27.754 0 1.007 1.007 0 0 0 -.795.253.976.976 0 0 0 -.329.736v2.118a127.776 127.776 0 0 0 30-.005z"/><path d="m55.769 42.875a2 2 0 0 1 -.859 1.98c-2.079 1.409-8.315 4.757-21.516 5.95l.257 1.373a1.029 1.029 0 0 0 1.121.815c15.064-1.725 21.049-6.031 22.924-7.8a1 1 0 0 0 .3-.858c-2.75-21.297-10.73-30.584-12.367-32.29-.867.105-1.736.2-2.6.285 3.485 3.623 9.893 12.48 12.74 30.545z"/></svg>