<svg id="icons" height="512" viewBox="0 0 60 60" width="512" xmlns="http://www.w3.org/2000/svg"><path d="m20 42v2a1 1 0 0 0 2 0v-2a1 1 0 0 0 -2 0z"/><path d="m39 48h-2a1 1 0 0 0 0 2h2a1 1 0 0 0 0-2z"/><path d="m16 28h28v3h-28z"/><path d="m50 31a1 1 0 0 0 2 0v-5h-2z"/><path d="m44 53v-20h-22v6.184a3 3 0 0 1 2 2.816v2a3 3 0 0 1 -6 0v-2a3 3 0 0 1 2-2.816v-6.184h-4v20a1 1 0 0 0 1 1h26a1 1 0 0 0 1-1zm-5-1h-2a3 3 0 0 1 0-6h2a3 3 0 0 1 0 6z"/><path d="m44 23a1 1 0 0 0 -1-1h-26a1 1 0 0 0 -1 1v3h28z"/><path d="m48 53v-30a5.006 5.006 0 0 0 -5-5h-26a5.006 5.006 0 0 0 -5 5v30a5.006 5.006 0 0 0 5 5h26a5.006 5.006 0 0 0 5-5zm-34 0v-30a3 3 0 0 1 3-3h26a3 3 0 0 1 3 3v30a3 3 0 0 1 -3 3h-26a3 3 0 0 1 -3-3z"/><path d="m9 32a1 1 0 0 0 1-1v-5h-2v5a1 1 0 0 0 1 1z"/><path d="m10 13a9.01 9.01 0 0 1 9-9h22a9.01 9.01 0 0 1 9 9v11h2v-11a11.013 11.013 0 0 0 -11-11h-22a11.013 11.013 0 0 0 -11 11v11h2z"/></svg>