<svg id="icons" height="512" viewBox="0 0 60 60" width="512" xmlns="http://www.w3.org/2000/svg"><path d="m10 22h-7.993c.238 3.273 1.713 18.944 7.993 28.1z"/><path d="m26 16h8v2h-8z"/><path d="m40 16h7v2h-7z"/><path d="m46 57v-1h-10v1a1 1 0 0 0 1 1h8a1 1 0 0 0 1-1z"/><path d="m24 57v-1h-10v1a1 1 0 0 0 1 1h8a1 1 0 0 0 1-1z"/><path d="m13 16h7v2h-7z"/><path d="m12 53a1 1 0 0 0 1 1h34a1 1 0 0 0 1-1v-33h-8v4.278a1.993 1.993 0 0 1 1 1.722v4a4 4 0 0 1 -8 0v-4a1.993 1.993 0 0 1 1-1.722v-4.278h-8v4.278a1.993 1.993 0 0 1 1 1.722v4a4 4 0 0 1 -8 0v-4a1.993 1.993 0 0 1 1-1.722v-4.278h-8zm17-31h2a1 1 0 0 1 0 2h-2a1 1 0 0 1 0-2zm-11 18a2 2 0 0 1 2-2h20a2 2 0 0 1 2 2v2a2 2 0 0 1 -2 2h-16v1a1 1 0 0 1 -2 0v-1h-2a2 2 0 0 1 -2-2z"/><path d="m21 30a2 2 0 0 0 4 0v-4h-4z"/><path d="m20 40h20.001v2h-20.001z"/><path d="m30 2a8.009 8.009 0 0 0 -8 8v14h2v-14a6 6 0 0 1 12 0v14h2v-14a8.009 8.009 0 0 0 -8-8z"/><path d="m35 30a2 2 0 0 0 4 0v-4h-4z"/><path d="m50 22v28.1c6.278-9.154 7.756-24.827 8-28.1z"/></svg>