<?xml version="1.0"?>
<svg xmlns="http://www.w3.org/2000/svg" id="icons" viewBox="0 0 60 60" width="512" height="512"><path d="M50.7,8.528C49.375,9.788,47,12.9,47,19v9.4l10.69-5.171a.544.544,0,0,0,.282-.321.557.557,0,0,0-.034-.43L50.7,8.53Z"/><path d="M15,30.066V56a2,2,0,0,0,2,2H43a2,2,0,0,0,2-2V30.066c0-.014,0-.028,0-.042V19c0-6.667,2.643-10.265,4.249-11.839L39.83,2.431C39.339,4.971,37.428,10,30,10s-9.339-5.031-9.83-7.57L10.751,7.161C12.356,8.735,15,12.333,15,19V30.024C15,30.038,15,30.052,15,30.066ZM37,12a4,4,0,1,1-4,4A4,4,0,0,1,37,12ZM34.707,27.707a1,1,0,0,1-1.414-1.414l3-3A1,1,0,0,1,38,24V41h2a1,1,0,0,1,0,2H34a1,1,0,0,1,0-2h2V26.414ZM19,27a4,4,0,0,1,4-4h2a4,4,0,0,1,4,4V39a4,4,0,0,1-4,4H23a4,4,0,0,1-4-4Zm0,19H41a1,1,0,0,1,0,2H19a1,1,0,0,1,0-2Z"/><path d="M30,8c5.95,0,7.473-3.844,7.863-5.839A40.1,40.1,0,0,1,30,3a40.065,40.065,0,0,1-7.864-.838C22.527,4.155,24.049,8,30,8Z"/><rect x="21" y="25" width="6" height="16" rx="2"/><circle cx="37" cy="16" r="2"/><path d="M2.31,23.232,13,28.4V19c0-6.1-2.375-9.211-3.7-10.472l0,0L2.062,22.48a.56.56,0,0,0-.034.431A.544.544,0,0,0,2.31,23.232Z"/></svg>
