<svg id="icons" height="512" viewBox="0 0 60 60" width="512" xmlns="http://www.w3.org/2000/svg"><path d="m27 44h6a1 1 0 0 0 0-2h-6a1 1 0 0 0 0 2z"/><path d="m3 39a1 1 0 0 0 1-1v-5h-2v5a1 1 0 0 0 1 1z"/><path d="m6 57a1 1 0 0 0 1 1h46a1 1 0 0 0 1-1v-15.816a3 3 0 0 0 -2 2.816v2a4 4 0 0 1 -4 4h-36a4 4 0 0 1 -4-4v-2a3 3 0 0 0 -2-2.816z"/><path d="m12 48h36a2 2 0 0 0 2-2v-2a5.008 5.008 0 0 1 4-4.9v-7.1a1 1 0 0 0 -1-1h-46a1 1 0 0 0 -1 1v7.1a5.008 5.008 0 0 1 4 4.9v2a2 2 0 0 0 2 2zm15-8h6a3 3 0 0 1 0 6h-6a3 3 0 0 1 0-6z"/><path d="m56 38a1 1 0 0 0 2 0v-5h-2z"/><path d="m30 2a28.032 28.032 0 0 0 -28 28v1h2v-1a26 26 0 0 1 52 0v1h2v-1a28.032 28.032 0 0 0 -28-28z"/></svg>