<?xml version="1.0"?>
<svg xmlns="http://www.w3.org/2000/svg" id="icons" viewBox="0 0 60 60" width="512" height="512"><path d="M30,31.575l5.088-5.163a3.2,3.2,0,0,0,0-4.482A3.032,3.032,0,0,0,32.91,21H32.9a3.059,3.059,0,0,0-2.192.931,1.03,1.03,0,0,1-1.424,0A3.034,3.034,0,0,0,24.068,24a3.542,3.542,0,0,0,1.006,2.576Z"/><path d="M49.393,8.478a36.044,36.044,0,0,0-4.137,8.316l.616,3.1L52,19.128A43.566,43.566,0,0,0,49.393,8.478Z"/><path d="M12.347,6.325a3.022,3.022,0,0,0-.561.355,37.485,37.485,0,0,1,4.94,9.707A41.45,41.45,0,0,1,19,30a142.759,142.759,0,0,1-2.744,24.834.889.889,0,0,0,.5.986C18.547,56.635,22.65,58,30,58s11.453-1.366,13.246-2.18a.889.889,0,0,0,.5-.986A142.7,142.7,0,0,1,41,30a41.441,41.441,0,0,1,2.275-13.618,37.444,37.444,0,0,1,4.938-9.7,2.943,2.943,0,0,0-.546-.347L39.82,2.4C39.334,4.941,37.438,10,30,10h0c-7.437,0-9.332-5.057-9.818-7.6ZM36,38H24a1,1,0,0,1,0-2H36a1,1,0,0,1,0,2ZM24,14H36a1,1,0,0,1,0,2H24a1,1,0,0,1,0-2Zm-.3,6.32a5.17,5.17,0,0,1,6.295-.4A5.013,5.013,0,0,1,32.9,19h.01a5.018,5.018,0,0,1,3.6,1.529,5.2,5.2,0,0,1,0,7.286l-5.088,5.164a2,2,0,0,1-2.849,0l-4.925-5a5.553,5.553,0,0,1-1.581-4.038A5.015,5.015,0,0,1,23.7,20.32Z"/><path d="M14.743,16.793A36.014,36.014,0,0,0,10.607,8.48,43.688,43.688,0,0,0,8,19.131l6.123.758Z"/><path d="M30,8c5.862,0,7.424-3.728,7.841-5.829A40.215,40.215,0,0,1,30,3h-.009a40.215,40.215,0,0,1-7.832-.828C22.576,4.273,24.138,8,30,8Z"/></svg>
