<svg id="icons" height="512" viewBox="0 0 60 60" width="512" xmlns="http://www.w3.org/2000/svg"><path d="m55.257 12.505a.192.192 0 0 0 -.134-.065.168.168 0 0 0 -.14.049l-36.495 32.75c-.289.26-.569.5-.852.748-.016.017-.022.038-.039.053s-.045.024-.066.04c-7.061 6.146-12.017 8.337-14.479 9.106l1.735 1.941a2.588 2.588 0 0 0 2.4.832c2.3-.428 7.275-2.149 14.749-8.855l35.6-31.952a1.4 1.4 0 0 0 .108-1.971z"/><path d="m2.936 50.544a4.269 4.269 0 0 0 -.927 2.856c1.846-.508 6.492-2.276 13.468-8.192a12.068 12.068 0 0 0 -5.5-3.474z"/><path d="m52.894 11.677c-4.059-4.373-6.722-5.71-7.827-6.1-.655 1.405-1.917 5.489.745 12.457z"/><path d="m14.116 35.962a.506.506 0 0 1 -.055 0l-1.473-.081c-.689 1.747-1.263 3.153-1.634 4.051a12 12 0 0 1 2.87 1.363c2.561-3.983 9.57-15.137 9.86-28.185-.67-.149-1.286-.319-1.817-.489a1.421 1.421 0 0 0 -1.131.111 1.459 1.459 0 0 0 -.7.936c-.414 1.692-.912 3.473-1.456 5.278l1.494.082a1 1 0 0 1 -.054 2 .552.552 0 0 1 -.057 0l-1.993-.11c-.321 1.013-.653 2.027-.991 3.031l1.129.063a1 1 0 0 1 -.055 2h-.057l-1.696-.104c-.359 1.031-.72 2.043-1.078 3.026l.915.05a1 1 0 0 1 -.055 2h-.057l-1.525-.084c-.4 1.063-.781 2.076-1.147 3.023l.818.045a1 1 0 0 1 -.054 2z"/><path d="m41.449 2.435a1.289 1.289 0 0 0 -1.155-.421 1.263 1.263 0 0 0 -1.106 1.138 10.533 10.533 0 0 1 -3.564 7.414 12.4 12.4 0 0 1 -9.951 2.873c-.4 13.583-7.659 25.039-10.229 29.032a19.737 19.737 0 0 1 1.543 1.429c.057-.051.109-.093.165-.144l27.076-24.3c-3.378-8.28-1.766-13.168-.89-14.9z"/></svg>