<?xml version="1.0"?>
<svg xmlns="http://www.w3.org/2000/svg" id="icons" viewBox="0 0 60 60" width="512" height="512"><path d="M19,54.722V35.3c-1.458,4.238-3.6,10.085-6.741,18A18.223,18.223,0,0,0,19,54.722Z"/><path d="M20.964,27.525a23.272,23.272,0,0,0,7.125-6,.918.918,0,0,1,.08-.175l.042-.066a32.194,32.194,0,0,1-9.279-8.666q.443,1.834.8,3.784A81.017,81.017,0,0,1,20.964,27.525Z"/><path d="M47.64,53.567C39.1,40.806,39,29.355,39,28.874A76.9,76.9,0,0,1,40.268,16.33q.321-1.752.711-3.406c-2.71,3.735-6.5,7.739-11.24,9.751-3.928,4.7-7.291,6.449-8.739,7.032V57.816C24.184,58.03,40.432,58.857,47.64,53.567Z"/><path d="M17.7,16.435a54.861,54.861,0,0,0-3-10.524,6.542,6.542,0,0,0-1.5,2.437c-.078.224-.143.438-.208.663L10,19.465,15.37,21Z"/><path d="M43.619,4.6a7.026,7.026,0,0,0-.861-.409L37.782,2.245A64.642,64.642,0,0,1,31.7,19.365C38.14,15.167,42.4,7.126,43.619,4.6Z"/><path d="M17.243,4.191a6.859,6.859,0,0,0-.868.412c1.3,2.67,5.725,10.831,12.9,14.985l.044-.076A81.788,81.788,0,0,1,22.285,2.2Z"/><path d="M42.289,16.414,44.6,20.988l5.386-1.5L47,9.006c-.064-.218-.129-.433-.2-.647a6.574,6.574,0,0,0-1.522-2.474A54.8,54.8,0,0,0,42.289,16.414Z"/><path d="M30.452,17.442A64.41,64.41,0,0,0,35.59,2.9,13.7,13.7,0,0,1,30,4a13.617,13.617,0,0,1-5.408-1.038A81.592,81.592,0,0,0,30.452,17.442Z"/></svg>
