<svg id="icons" height="512" viewBox="0 0 60 60" width="512" xmlns="http://www.w3.org/2000/svg"><path d="m45.035 57.021c.053-1.479.166-2.807.323-4.021h-11.468c.074 1.592.1 2.985.113 4.018a1 1 0 0 0 .997.982h9.034a1 1 0 0 0 1.001-.979z"/><path d="m26 57.018c.01-1.033.039-2.426.113-4.018h-11.471c.157 1.214.27 2.542.323 4.021a1 1 0 0 0 1 .979h9.035a1 1 0 0 0 1-.982z"/><path d="m13.041 46h13.659c.093-.725.2-1.45.316-2.164.347-2.089.694-3.691 1-5.107a32.989 32.989 0 0 0 .974-7.066 22.228 22.228 0 0 1 -6.7-3.956 1 1 0 0 1 1.414-1.414 21.246 21.246 0 0 0 6.296 3.628 21.229 21.229 0 0 0 6.3-3.631 1 1 0 0 1 1.411 1.417 22.228 22.228 0 0 1 -6.7 3.956 32.989 32.989 0 0 0 .974 7.066c.307 1.416.654 3.018 1 5.107.119.714.223 1.439.316 2.164h13.658q.294-.922.593-1.816a38.732 38.732 0 0 0 2.448-14.184c0-14.7-6.12-22.49-7.442-24h-25.114c-1.317 1.515-7.444 9.348-7.444 24a38.732 38.732 0 0 0 2.448 14.184q.299.893.593 1.816z"/><path d="m26.222 51c.064-.966.145-1.975.248-3h-12.834c.254.93.487 1.922.687 3z"/><path d="m46.364 48h-12.834c.1 1.025.184 2.034.248 3h11.9c.199-1.078.432-2.07.686-3z"/><path d="m18 3v1h24v-1a1 1 0 0 0 -1-1h-22a1 1 0 0 0 -1 1z"/></svg>