<?xml version="1.0"?>
<svg xmlns="http://www.w3.org/2000/svg" id="icons" viewBox="0 0 60 60" width="512" height="512"><path d="M22.263,8.83,19.007,34.876a1,1,0,0,0,1.984.248L24.248,9.078a5.8,5.8,0,0,1,11.5,0l3.257,26.046a1,1,0,0,0,1.984-.248L37.737,8.83a7.8,7.8,0,0,0-15.474,0Z"/><path d="M7.95,55.555A3.009,3.009,0,0,0,10.9,58H49.1a3.009,3.009,0,0,0,2.948-2.447l5.93-31.368a.974.974,0,0,0-.206-.821A1,1,0,0,0,57,23H41.524l1.454,11.628a3,3,0,0,1-2.605,3.349A3.133,3.133,0,0,1,40,38a3,3,0,0,1-2.974-2.628L35.477,23H24.523L22.976,35.372a3,3,0,0,1-5.954-.744L18.476,23H3a1,1,0,0,0-.771.364.97.97,0,0,0-.207.815ZM32,33H28a1,1,0,0,1,0-2h4a1,1,0,0,1,0,2Zm-5-6h6a1,1,0,0,1,0,2H27a1,1,0,0,1,0-2Z"/></svg>
