<svg id="icons" height="512" viewBox="0 0 60 60" width="512" xmlns="http://www.w3.org/2000/svg"><path d="m44.349 29.106.745.932a.229.229 0 0 0 .154.084.214.214 0 0 0 .169-.047l12.5-9.992a.221.221 0 0 0 .083-.153.226.226 0 0 0 -.048-.172l-1.6-2.006z"/><path d="m34.07 18.716a30.072 30.072 0 0 0 1.99 8.841l2.34-2.226a27.96 27.96 0 0 1 -1.418-6.931z"/><path d="m26.645 36.523 2.125-2.023-11.188-14.006-3.444.372z"/><path d="m42.225 4.3a.225.225 0 0 0 -.005-.29l-1.538-1.927a.214.214 0 0 0 -.157-.083.24.24 0 0 0 -.2.07 18.584 18.584 0 0 0 -5.715 9.63l3.131-.338a15.641 15.641 0 0 1 4.484-7.062z"/><path d="m38.564 16.22a1.456 1.456 0 0 0 .987-2.36 1.447 1.447 0 0 0 -1.293-.547l-25.236 2.722a.237.237 0 0 0 -.209.259l.288 2.672 24.785-2.673h.022.022l.634-.068z"/><path d="m2.941 58a66.745 66.745 0 0 0 23.059-14.286l30.729-29.08a.24.24 0 0 0 .08-.189.169.169 0 0 0 -.072-.135l-2.021-1.521a.2.2 0 0 0 -.117-.035.24.24 0 0 0 -.171.07l-29.998 28.576c-.259.246-.532.476-.794.718-.02.019-.029.044-.05.062s-.031.013-.045.024q-1.777 1.632-3.666 3.133c-.012.011-.017.027-.03.038s-.038.019-.055.031a64.777 64.777 0 0 1 -5.78 4.078c-.075.046-.152.087-.227.133 0 0-.007.01-.012.014a1.142 1.142 0 0 1 -.1.054c-1.376.845-2.785 1.627-4.213 2.365-.01.008-.014.019-.024.026a1 1 0 0 1 -.3.145 64.013 64.013 0 0 1 -6.949 3.062.251.251 0 0 0 -.167.294l.753 2.309a.178.178 0 0 0 .17.114z"/><path d="m9.806 38.6h.033a13.342 13.342 0 0 1 9.46 4.622q1.146-.933 2.25-1.916c-2.728-3.109-7.036-6.769-13.815-6.547a1.453 1.453 0 0 0 -1.36 1.089 17.147 17.147 0 0 0 -.484 2.821 24.275 24.275 0 0 1 3.916-.069z"/><path d="m11.721 48.505a14.871 14.871 0 0 1 -2.948-7.948 25.015 25.015 0 0 0 -2.909.129 17.938 17.938 0 0 0 3.3 9.256q1.294-.689 2.557-1.437z"/></svg>