<?xml version="1.0"?>
<svg xmlns="http://www.w3.org/2000/svg" id="icons" viewBox="0 0 60 60" width="512" height="512"><path d="M31.356,7.231a1.013,1.013,0,0,0-.125,1.413L34.858,13h2.917L32.792,7.384A1.021,1.021,0,0,0,31.356,7.231Z"/><path d="M28.771,8.64a1,1,0,1,0-1.543-1.28l-5,5.64h2.917Z"/><path d="M12.88,18H47.12a4.978,4.978,0,0,1,4.74,3.428L53,24.844V19a4,4,0,0,0-4-4H11a4,4,0,0,0-4,4v5.844l1.141-3.42A4.979,4.979,0,0,1,12.88,18Z"/><path d="M7.88,53H52.12A5.895,5.895,0,0,0,58,47.12a5.976,5.976,0,0,0-.3-1.868l-7.738-23.2A2.985,2.985,0,0,0,47.12,20H12.88a2.983,2.983,0,0,0-2.84,2.053L2.3,45.257A5.95,5.95,0,0,0,2,47.12,5.887,5.887,0,0,0,7.88,53Z"/></svg>
