<?xml version="1.0"?>
<svg xmlns="http://www.w3.org/2000/svg" id="icons" viewBox="0 0 60 60" width="512" height="512"><path d="M5.185,53.851,24.6,57.9a4.974,4.974,0,0,0,4.807-1.655L2.028,50.248A4.008,4.008,0,0,0,5.185,53.851Z"/><path d="M55,34a79.64,79.64,0,0,1,1.539-14.992A54.116,54.116,0,0,0,48.436,25H50a2,2,0,0,1,2,2V53h3Z"/><path d="M30.524,53.825c1.532-9.29,7.04-26.482,26.711-37.543A9.509,9.509,0,0,0,58,12c0-6.977-6.028-9.356-7.759-9.9-1.093.976-4.6,4.435-9.384,12.411l-.69,1.15C31.919,29.422,27.375,37,20,37a8.582,8.582,0,0,1-5.128-1.8c-2.572,1.232-7.9,1.638-11.912,1.763a.989.989,0,0,0-.96,1V48.2l28.375,6.211A5.044,5.044,0,0,0,30.524,53.825Z"/><path d="M52,57a1,1,0,0,0,1,1h1a1,1,0,0,0,1-1V55H52Z"/></svg>
