<?xml version="1.0"?>
<svg xmlns="http://www.w3.org/2000/svg" id="icons" viewBox="0 0 60 60" width="512" height="512"><path d="M34.362,13l3.357-6.867a2.875,2.875,0,0,0-1.428-3.817,3.187,3.187,0,0,0-3.586.558l-2.02,1.95a1,1,0,0,1-1.389,0l-2.022-1.95A3.154,3.154,0,0,0,25.083,2a3.227,3.227,0,0,0-1.395.318,2.878,2.878,0,0,0-1.421,3.83L25.618,13Z"/><path d="M14.225,48.127C16.105,50.443,22.8,58,29.99,58h.02C37.2,58,43.9,50.443,45.774,48.128a.994.994,0,0,0,.2-.834C40.829,22.188,35.662,16.031,34.614,15H25.362c-1.011,1-6.178,7.12-11.341,32.293A1,1,0,0,0,14.225,48.127ZM33.492,21.142a1,1,0,0,1,1.365.343c.127.211,3.137,5.4,6.132,25.367a1,1,0,0,1-.841,1.137A1.078,1.078,0,0,1,40,48a1,1,0,0,1-.988-.852C36.1,27.749,33.169,22.56,33.14,22.509A1,1,0,0,1,33.492,21.142ZM29,22a1,1,0,0,1,2,0V47a1,1,0,0,1-2,0Zm-3.857-.515A1,1,0,0,1,26.86,22.51c-.045.077-2.969,5.291-5.871,24.638A1,1,0,0,1,20,48a1.078,1.078,0,0,1-.149-.011,1,1,0,0,1-.841-1.137C22.006,26.885,25.016,21.7,25.143,21.485Z"/></svg>
