<svg id="icons" height="512" viewBox="0 0 60 60" width="512" xmlns="http://www.w3.org/2000/svg"><circle cx="30" cy="25" r="1"/><path d="m27.519 57.233a1.018 1.018 0 0 0 .972.768h3.018a1.018 1.018 0 0 0 .972-.768c3.1-11.577 8.6-17.9 11.387-20.492a1.987 1.987 0 0 0 .416-2.34c-3.371-6.866-1.608-14.6-.5-18.083a2.005 2.005 0 0 0 -.387-1.892c-3.054-3.714-2.653-9.839-2.312-12.426h-2.011c-1.47 9.886-9 10-9.074 10s-7.6-.114-9.051-9.975l-2.012-.025c.321 2.591.721 8.728-2.34 12.507a2 2 0 0 0 -.372 1.881c1.1 3.431 2.862 11.16-.49 18.024a1.987 1.987 0 0 0 .414 2.332c2.77 2.593 8.267 8.912 11.37 20.489zm2.481-43.233a3 3 0 1 1 -3 3 3 3 0 0 1 3-3zm0 8a3 3 0 1 1 -3 3 3 3 0 0 1 3-3zm0 8a3 3 0 1 1 -3 3 3 3 0 0 1 3-3z"/><circle cx="30" cy="33" r="1"/><circle cx="30" cy="17" r="1"/></svg>