<?xml version="1.0"?>
<svg xmlns="http://www.w3.org/2000/svg" id="icons" viewBox="0 0 60 60" width="512" height="512"><path d="M57,8H16.958l27.1,20.462a3.977,3.977,0,0,1,1.38-2.539,4,4,0,0,1,6.507,2.394A4.145,4.145,0,0,1,51.864,30H55a3,3,0,0,0,3-3V9A1,1,0,0,0,57,8Z"/><path d="M31,42.1a3.489,3.489,0,0,1,.661-1.978,2.015,2.015,0,0,0,.31-1.474h0a2.01,2.01,0,0,0-1.581-1.608A2.282,2.282,0,0,0,30,37a1.969,1.969,0,0,0-1.28.463A2,2,0,0,0,28,39a1.971,1.971,0,0,0,.308,1.07A4,4,0,0,1,29,42.223V44h2Z"/><path d="M57,31.576A4.95,4.95,0,0,1,55,32H51.019c0,.032-.019.068-.019.1v1.6l6,4.53Z"/><path d="M5,30H8.132A4.029,4.029,0,0,1,8,29a3.987,3.987,0,0,1,1.437-3.073,4,4,0,0,1,6.506,2.392A4.072,4.072,0,0,1,15.863,30h17.4L3.669,8H3A1,1,0,0,0,2,9V27A3,3,0,0,0,5,30Z"/><path d="M57,49V47.643l-6-4.46v1.7A3,3,0,0,1,48,48a3,3,0,0,1-3-3V38.723l-4-2.974V39a3,3,0,0,1-2,2.816V50H56A1,1,0,0,0,57,49Z"/><path d="M48.174,45.983A1.075,1.075,0,0,0,49,44.88V41.7l-2-1.487V45a1,1,0,0,0,.356.763A.991.991,0,0,0,48.174,45.983Z"/><path d="M49,32.192V32.1a3.483,3.483,0,0,1,.661-1.979,2.046,2.046,0,0,0,.312-1.484A2,2,0,0,0,46.72,27.46,2,2,0,0,0,46,29a1.931,1.931,0,0,0,.308,1.064c.036.054.055.107.086.161Z"/><path d="M39,39V34.263L35.956,32H21v7a1,1,0,0,0,1,1h4.132A4.029,4.029,0,0,1,26,39a3.987,3.987,0,0,1,1.437-3.073A3.988,3.988,0,0,1,33.863,40H38A1,1,0,0,0,39,39Z"/><polygon points="7.022 8 57 45.15 57 40.738 13.639 8 7.022 8"/><path d="M29,51a1.006,1.006,0,0,0,.357.764.984.984,0,0,0,.819.221A1.1,1.1,0,0,0,31,50.878V46H29Z"/><path d="M27,44V42.223L26.777,42H23v8a1,1,0,0,0,1,1h3V46a1,1,0,0,1,0-2Z"/><path d="M33,46v4.878c0,.041-.009.081-.011.122H36a1,1,0,0,0,1-1V42H33.018L33,42.018V44a1,1,0,0,1,0,2Z"/><path d="M11,45a1.006,1.006,0,0,0,.357.764.984.984,0,0,0,.819.221A1.1,1.1,0,0,0,13,44.878V36H11Z"/><path d="M13,32.1a3.489,3.489,0,0,1,.661-1.978,2.015,2.015,0,0,0,.31-1.474h0a2.01,2.01,0,0,0-1.581-1.608A2.282,2.282,0,0,0,12,27a1.969,1.969,0,0,0-1.28.463A2,2,0,0,0,10,29a1.971,1.971,0,0,0,.308,1.07A4,4,0,0,1,11,32.223V34h2Z"/><path d="M9,34V32.223A1.524,1.524,0,0,0,8.959,32H5a4.95,4.95,0,0,1-2-.424V49a1,1,0,0,0,1,1H21V41.816A3,3,0,0,1,19,39V32H15.018c0,.031-.018.065-.018.1V34a1,1,0,0,1,0,2v8.878a3.1,3.1,0,0,1-2.492,3.08,3.058,3.058,0,0,1-.5.042A3.006,3.006,0,0,1,9,45V36a1,1,0,0,1,0-2Z"/></svg>
