<svg id="icons" height="512" viewBox="0 0 60 60" width="512" xmlns="http://www.w3.org/2000/svg"><path d="m4 53h51a1 1 0 0 0 1-1v-13h-4a6 6 0 0 1 0-12h4v-13a1 1 0 0 0 -1-1h-51a3.97 3.97 0 0 1 -2-.537v38.537a2 2 0 0 0 2 2zm47-5h2a1 1 0 0 1 0 2h-2a1 1 0 0 1 0-2zm0-32h2a1 1 0 0 1 0 2h-2a1 1 0 0 1 0-2zm-6 0h2a1 1 0 0 1 0 2h-2a1 1 0 0 1 0-2zm0 32h2a1 1 0 0 1 0 2h-2a1 1 0 0 1 0-2zm-6-32h2a1 1 0 0 1 0 2h-2a1 1 0 0 1 0-2zm0 32h2a1 1 0 0 1 0 2h-2a1 1 0 0 1 0-2zm-6-32h2a1 1 0 0 1 0 2h-2a1 1 0 0 1 0-2zm0 32h2a1 1 0 0 1 0 2h-2a1 1 0 0 1 0-2zm-6-32h2a1 1 0 0 1 0 2h-2a1 1 0 0 1 0-2zm0 32h2a1 1 0 0 1 0 2h-2a1 1 0 0 1 0-2zm-6-32h2a1 1 0 0 1 0 2h-2a1 1 0 0 1 0-2zm0 32h2a1 1 0 0 1 0 2h-2a1 1 0 0 1 0-2zm-6-32h2a1 1 0 0 1 0 2h-2a1 1 0 0 1 0-2zm0 32h2a1 1 0 0 1 0 2h-2a1 1 0 0 1 0-2zm-6-32h2a1 1 0 0 1 0 2h-2a1 1 0 0 1 0-2zm0 32h2a1 1 0 0 1 0 2h-2a1 1 0 0 1 0-2zm-5-31a1 1 0 0 1 2 0v2a1 1 0 0 1 -2 0zm0 6a1 1 0 0 1 2 0v2a1 1 0 0 1 -2 0zm0 6a1 1 0 0 1 2 0v2a1 1 0 0 1 -2 0zm0 6a1 1 0 0 1 2 0v2a1 1 0 0 1 -2 0zm0 6a1 1 0 0 1 2 0v2a1 1 0 0 1 -2 0zm0 6a1 1 0 0 1 2 0v2a1 1 0 0 1 -2 0z"/><path d="m4 11h50v-3a1 1 0 0 0 -1-1h-49a2 2 0 0 0 0 4z"/><path d="m48 33a4 4 0 0 0 4 4h5a1 1 0 0 0 1-1v-6a1 1 0 0 0 -1-1h-5a4 4 0 0 0 -4 4z"/></svg>