<svg id="icons" height="512" viewBox="0 0 60 60" width="512" xmlns="http://www.w3.org/2000/svg"><path d="m17.79 15.751a1 1 0 0 1 1.938.5l-8.681 33.749v.009.01l-.05.179 9.219 1.371 3.684-32.681a1 1 0 1 1 1.988.224l-3.8 33.71-.088.718a70.9 70.9 0 0 0 16 .014l-.083-.733-3.8-33.71a1 1 0 1 1 1.988-.224l3.685 32.678 9.21-1.384-.046-.163v-.01-.009l-8.681-33.75a1 1 0 1 1 1.938-.5l8.422 32.751 7.358-2.159-12.699-36.341h-30.584l-12.708 36.35 7.367 2.15z"/><path d="m16 6a1 1 0 0 0 -1 1v1h30v-1a1 1 0 0 0 -1-1z"/></svg>