<?xml version="1.0"?>
<svg xmlns="http://www.w3.org/2000/svg" id="icons" viewBox="0 0 60 60" width="512" height="512"><path d="M21,8c-1.1,0-2,1.2-2,2.67v5.114a18.153,18.153,0,0,1,2.017-1.359c0-.03-.017-.056-.017-.086V8Z"/><path d="M37,7.083l-.568-3.412A1.994,1.994,0,0,0,34.459,2H25.541a1.994,1.994,0,0,0-1.973,1.671L23,7.083V10H37Z"/><path d="M21,52V45.661c0-.03.015-.056.017-.086A18.153,18.153,0,0,1,19,44.216V49.33C19,50.8,19.9,52,21,52Z"/><path d="M39,9v5.339c0,.03-.015.056-.017.086A18.153,18.153,0,0,1,41,15.784V10.67C41,9.2,40.1,8,39,8Z"/><path d="M49,32a1,1,0,0,0,1-1V29a1,1,0,0,0-1-1H47.882a17.008,17.008,0,0,1,0,4Z"/><path d="M11,28a1,1,0,0,0-1,1v2a1,1,0,0,0,1,1h1.118a17.008,17.008,0,0,1,0-4Z"/><path d="M25.541,58h8.918a1.994,1.994,0,0,0,1.973-1.671L37,52.917V50H23v2.917l.568,3.412A1.994,1.994,0,0,0,25.541,58Z"/><path d="M46,30A16,16,0,1,0,30,46,16.019,16.019,0,0,0,46,30ZM23,42.125a.817.817,0,0,1-.07-.062,14.072,14.072,0,0,1-4.965-4.947.922.922,0,0,1-.09-.116c-.013-.023-.013-.048-.024-.071a13.894,13.894,0,0,1,0-13.858c.011-.023.011-.048.024-.071a.817.817,0,0,1,.062-.07,14.075,14.075,0,0,1,4.993-4.993.817.817,0,0,1,.07-.062c.023-.013.048-.013.071-.024a13.894,13.894,0,0,1,13.858,0c.023.011.049.011.071.024a.817.817,0,0,1,.07.062,14.081,14.081,0,0,1,4.994,4.994c.018.025.045.041.061.069s.013.048.024.071a13.894,13.894,0,0,1,0,13.858c-.011.023-.011.048-.024.071a.922.922,0,0,1-.09.116,14.072,14.072,0,0,1-4.965,4.947.817.817,0,0,1-.07.062c-.032.018-.066.026-.1.041a13.9,13.9,0,0,1-13.8,0C23.066,42.151,23.032,42.143,23,42.125Z"/><path d="M31,41v.949a11.894,11.894,0,0,0,4.106-1.1l-.472-.818a1,1,0,0,1,1.732-1l.474.821a12.1,12.1,0,0,0,3.007-3.007l-.821-.474a1,1,0,1,1,1-1.732l.818.472A11.894,11.894,0,0,0,41.949,31H41a1,1,0,0,1,0-2h.949a11.894,11.894,0,0,0-1.1-4.106l-.818.472a.992.992,0,0,1-.5.134,1,1,0,0,1-.5-1.866l.821-.474a12.1,12.1,0,0,0-3.007-3.007l-.474.821a1,1,0,0,1-1.732-1l.472-.818A11.894,11.894,0,0,0,31,18.051V19a1,1,0,0,1-2,0v-.949a11.894,11.894,0,0,0-4.106,1.105l.472.818a1,1,0,1,1-1.732,1l-.474-.821a12.1,12.1,0,0,0-3.007,3.007l.821.474a1,1,0,1,1-1,1.732l-.818-.472A11.894,11.894,0,0,0,18.051,29H19a1,1,0,0,1,0,2h-.949a11.894,11.894,0,0,0,1.105,4.106l.818-.472a1,1,0,1,1,1,1.732l-.821.474a12.1,12.1,0,0,0,3.007,3.007l.474-.821a1,1,0,0,1,1.732,1l-.472.818A11.894,11.894,0,0,0,29,41.949V41a1,1,0,0,1,2,0Zm-2-9a1,1,0,0,1-.707-1.707L28.586,30l-3.293-3.293a1,1,0,0,1,1.414-1.414L30,28.586l5.293-5.293a1,1,0,0,1,1.414,1.414L31.414,30l.293.293a1,1,0,1,1-1.414,1.414L30,31.414l-.293.293A1,1,0,0,1,29,32Z"/><path d="M39,52c1.1,0,2-1.2,2-2.67V44.216a18.153,18.153,0,0,1-2.017,1.359c0,.03.017.056.017.086V52Z"/><path d="M47.678,22.752a1,1,0,0,0,.405-1.355l-.948-1.759a1.007,1.007,0,0,0-1.354-.408l-.993.535a17.948,17.948,0,0,1,1.9,3.52Z"/></svg>
