<svg id="icons" height="512" viewBox="0 0 60 60" width="512" xmlns="http://www.w3.org/2000/svg"><path d="m53.71 11.71-2.341-2.547a3.178 3.178 0 0 0 -5.006.43l-14.252 21.969z"/><path d="m18.364 35.973-6.446 3.508-9.477 14.389a2.608 2.608 0 0 0 -.432 1.678 2.571 2.571 0 0 0 .068.426l19.323-14.764c.876-.674 1.7-1.361 2.5-2.1l2.306-2.119 18.48-28.486a5.205 5.205 0 0 1 .333-.455l-6.712-6a.241.241 0 0 0 -.307.014l-2.188 2.011a.229.229 0 0 0 -.055.249c.494 1.509 1.215 5.386-2.682 8.967-3.836 3.525-9.72 3.509-12.075 3.336a1.469 1.469 0 0 0 -1.084.386l-3.493 3.21-.972 4.308 1.234-.467a1 1 0 0 1 .707 1.872l-2.469.933-.866 3.831 1.494-.569a1 1 0 0 1 .713 1.869l-2.736 1.04-.846 3.748 4.726-2.572a3.934 3.934 0 0 0 2.031-3.028l1.143-10.469a1 1 0 1 1 1.988.217l-1.142 10.464a5.941 5.941 0 0 1 -3.064 4.573z"/><path d="m56.963 13.428-.834-.908a.228.228 0 0 0 -.161-.076.212.212 0 0 0 -.168.062l-28.149 25.872v.005l-2.391 2.2c-.849.78-1.711 1.506-2.637 2.218l-19.371 14.792a2.692 2.692 0 0 0 1.952.354l5.358-1.107a23.758 23.758 0 0 0 11.266-5.776l34.9-32.079a3.937 3.937 0 0 0 .235-5.557z"/><path d="m21.141 14.632c.405.03.929.054 1.53.054l-1.824-5.443a.177.177 0 0 0 -.212-.09l-3.7.831a1.51 1.51 0 0 0 -1.191 1.607l.576 6.01 2.243-2.061a3.471 3.471 0 0 1 2.578-.908z"/></svg>