<svg id="icons" height="512" viewBox="0 0 60 60" width="512" xmlns="http://www.w3.org/2000/svg"><path d="m3.131 50h4.869a4 4 0 0 1 4 4v4h36v-4a4 4 0 0 1 4-4h4.867l-3.107-16h-33.76v4.026a5 5 0 1 1 -6 0v-4.026h-7.759z"/><path d="m4 58h6v-4a2 2 0 0 0 -2-2h-5.258l-.7 3.62a1.994 1.994 0 0 0 1.958 2.38z"/><path d="m16.997 25h4.002v-1.998l-.001-.002.001-.002-.001-1.998h-.001-4z"/><path d="m18 37.1v-3.1h-2v3.1a5 5 0 0 1 2 0z"/><path d="m30 2c-6.508 0-11.65 7.389-11.985 17h2c.325-8.358 4.678-15 9.985-15s9.658 6.642 9.981 15h2c-.335-9.611-5.481-17-11.981-17z"/><path d="m57.258 52h-5.258a2 2 0 0 0 -2 2v4h6a1.993 1.993 0 0 0 1.959-2.379z"/><circle cx="16.997" cy="42" r="3"/><path d="m9.828 24a2 2 0 0 0 -1.958 1.617l-1.241 6.383h46.742l-1.24-6.38a2 2 0 0 0 -1.959-1.62h-5.172v1a2 2 0 0 1 -2 2h-4a2 2 0 0 1 -2-2v-1h-14v1a2 2 0 0 1 -2 2h-4a2 2 0 0 1 -2-2v-1z"/><path d="m38.999 21h4.001v4h-4.001z"/></svg>