<?xml version="1.0"?>
<svg xmlns="http://www.w3.org/2000/svg" id="icons" viewBox="0 0 60 60" width="512" height="512"><path d="M2.278,30.706c3.458-5.336,10.637-9.457,19.834-11.017A3.722,3.722,0,0,1,22,18.824v-2.1C11.389,18.65,3.743,24.145,2.278,30.706Z"/><path d="M30,55c15.439,0,28-7.626,28-17,0-7.719-8.877-14.584-21.174-16.463L35.05,23.286C46.977,24.646,56,30.725,56,38c0,8.271-11.663,15-26,15S4,46.271,4,38c0-7.275,9.023-13.353,20.95-14.714l-1.777-1.749C10.877,23.416,2,30.281,2,38,2,47.374,14.561,55,30,55Z"/><path d="M38,16.727v2.1a3.722,3.722,0,0,1-.112.865c9.2,1.56,16.376,5.681,19.834,11.017C56.257,24.145,48.61,18.65,38,16.727Z"/><path d="M36,12V9.343a2.013,2.013,0,0,0-.586-1.414L33.071,5.586A2.013,2.013,0,0,0,31.657,5H28.343a1.988,1.988,0,0,0-1.414.586L24.586,7.929A2.009,2.009,0,0,0,24,9.343v3.314a2.009,2.009,0,0,0,.586,1.414l2.343,2.343A1.988,1.988,0,0,0,28.343,17h3.314a2.013,2.013,0,0,0,1.414-.586l2.343-2.343A2.013,2.013,0,0,0,36,12.657Z"/><path d="M6.4,40.34C8.438,46.394,18.242,51,30,51s21.562-4.606,23.6-10.66C49.478,45.534,40.454,48,30,48S10.522,45.534,6.4,40.34Z"/><path d="M36,18.824V16.313l-1.515,1.515A3.981,3.981,0,0,1,33,18.75V22.5l.017-.014,2.463-2.425A1.717,1.717,0,0,0,36,18.824Z"/><rect x="29" y="19" width="2" height="4"/><path d="M25.515,17.828,24,16.313v2.511a1.72,1.72,0,0,0,.52,1.232l2.464,2.425.016.013v-3.74A3.956,3.956,0,0,1,25.515,17.828Z"/></svg>
