<svg id="icons" height="512" viewBox="0 0 60 60" width="512" xmlns="http://www.w3.org/2000/svg"><path d="m36 58h1a1 1 0 0 0 1-1v-1h-2z"/><path d="m26 50h8v2h-8z"/><path d="m26 55v3h8v-3-1h-8z"/><path d="m38 48h-2v1 4 1h2z"/><path d="m34 47v-1.527a15.444 15.444 0 0 1 -8 0v2.527h8z"/><path d="m26 8h8v2h-8z"/><path d="m38 4v-1a1 1 0 0 0 -1-1h-1v2z"/><path d="m36 7v4 1h2.002l-.002-6h-2z"/><path d="m24 2h-1a1 1 0 0 0 -1 1v1h2z"/><path d="m22 12h2v-1-4-1h-2z"/><path d="m26 13v1.527a15.444 15.444 0 0 1 8 0v-2.527h-8z"/><path d="m26 5v1h8v-1-3h-8z"/><path d="m24 53v-4-1h-2v6h2z"/><path d="m22 57a1 1 0 0 0 1 1h1v-2h-2z"/><path d="m31 18a1 1 0 0 1 -2 0v-1.949a13.853 13.853 0 0 0 -5.107 1.371l.973 1.685a1 1 0 1 1 -1.732 1l-.979-1.7a14.088 14.088 0 0 0 -3.743 3.743l1.7.979a1 1 0 1 1 -1 1.732l-1.685-.973a13.853 13.853 0 0 0 -1.376 5.112h1.949a1 1 0 0 1 0 2h-1.949a13.853 13.853 0 0 0 1.371 5.107l1.685-.973a1 1 0 1 1 1 1.732l-1.7.979a14.088 14.088 0 0 0 3.743 3.743l.979-1.7a1 1 0 1 1 1.732 1l-.973 1.685a13.853 13.853 0 0 0 5.112 1.376v-1.949a1 1 0 0 1 2 0v1.949a13.853 13.853 0 0 0 5.107-1.371l-.973-1.685a1 1 0 1 1 1.732-1l.979 1.7a14.088 14.088 0 0 0 3.743-3.743l-1.7-.979a1 1 0 1 1 1-1.732l1.685.973a13.853 13.853 0 0 0 1.376-5.112h-1.949a1 1 0 0 1 0-2h1.949a13.853 13.853 0 0 0 -1.371-5.107l-1.685.973a1 1 0 1 1 -1-1.732l1.7-.979a14.088 14.088 0 0 0 -3.743-3.743l-.979 1.7a1 1 0 1 1 -1.732-1l.973-1.685a13.853 13.853 0 0 0 -5.112-1.376zm5.293 4.293a1 1 0 0 1 1.414 1.414l-7 7a1 1 0 0 1 -1.222.15l-5-3a1 1 0 1 1 1.03-1.714l4.33 2.6z"/><path d="m47 32a1 1 0 0 0 1-1v-2a1 1 0 0 0 -1-1h-1.139a14.458 14.458 0 0 1 0 4z"/></svg>