<?xml version="1.0"?>
<svg xmlns="http://www.w3.org/2000/svg" id="icons" viewBox="0 0 60 60" width="512" height="512"><path d="M57.95,37.918,56,31.951v7.666l1.317-.436A1,1,0,0,0,57.95,37.918Z"/><path d="M54,28A23.975,23.975,0,0,0,33.6,4.3,3.85,3.85,0,0,1,31,5.9V26h6a1,1,0,0,1,0,2H31v9c14.141,0,20.415,1.47,23,2.427ZM42.9,11.447a1,1,0,0,1-1.342.448l-2-1a1,1,0,0,1,.894-1.79l2,1A1,1,0,0,1,42.9,11.447Z"/><path d="M6,39.56c2.672-.852,9.384-2.409,23-2.549V28H23a1,1,0,1,1,0-2h6V5.9a3.853,3.853,0,0,1-2.606-1.6A23.974,23.974,0,0,0,6,28ZM17.552,10.105l2-1a1,1,0,0,1,.894,1.79l-2,1a1,1,0,0,1-.894-1.79Z"/><path d="M2.679,39.18,4,39.616V31.957L2.049,37.921A1,1,0,0,0,2.679,39.18Z"/><ellipse cx="29.999" cy="3" rx="2" ry="1"/><path d="M6,55.429A2.573,2.573,0,0,0,8.569,58a2.518,2.518,0,0,0,1.652-.6C12.44,55.477,18.91,51,31,51c11.513,0,16.186,4.117,18.432,6.1l.348.3a2.511,2.511,0,0,0,1.65.6A2.573,2.573,0,0,0,54,55.429V41.6C52.577,40.948,46.961,39,31,39,14.82,39,7.883,41,6,41.676Z"/></svg>
