<?xml version="1.0"?>
<svg xmlns="http://www.w3.org/2000/svg" id="icons" viewBox="0 0 60 60" width="512" height="512"><path d="M53,14.953a23.666,23.666,0,0,0-4-3.033V32.869a31.643,31.643,0,0,1,4,1.7Z"/><path d="M47,10.824A32.5,32.5,0,0,0,44,9.5V27a4.985,4.985,0,0,1-2.072,4.034A50.344,50.344,0,0,1,47,32.226Z"/><rect x="22" y="10" width="16" height="16" rx="1"/><path d="M21,30H39a3,3,0,0,0,3-3V9a3,3,0,0,0-3-3H21a3,3,0,0,0-3,3V27A3,3,0,0,0,21,30ZM20,11a3,3,0,0,1,3-3H37a3,3,0,0,1,3,3V25a3,3,0,0,1-3,3H23a3,3,0,0,1-3-3Z"/><path d="M30,32C14.822,32,2,37.037,2,43S14.822,54,30,54s28-5.037,28-11S45.178,32,30,32Zm0,20C17.4,52,4,48.846,4,43s13.4-9,26-9,26,3.154,26,9S42.6,52,30,52Z"/><path d="M51.307,39.924C45.649,43.836,38.122,46,30,46S14.351,43.836,8.693,39.924C6.954,40.9,6,41.971,6,43c0,3.311,9.856,7,24,7s24-3.689,24-7C54,41.971,53.046,40.9,51.307,39.924Z"/><path d="M11,11.92a23.666,23.666,0,0,0-4,3.033V34.569a31.643,31.643,0,0,1,4-1.7Z"/><path d="M13,32.226a50.344,50.344,0,0,1,5.072-1.192A4.985,4.985,0,0,1,16,27V9.5a32.5,32.5,0,0,0-3,1.323Z"/><path d="M55,35.722a14.565,14.565,0,0,1,3,2.531V25.5a13.656,13.656,0,0,0-3-8.329Z"/><path d="M5,35.722V17.171A13.656,13.656,0,0,0,2,25.5V38.253A14.565,14.565,0,0,1,5,35.722Z"/></svg>
