<?xml version="1.0"?>
<svg xmlns="http://www.w3.org/2000/svg" id="icons" viewBox="0 0 60 60" width="512" height="512"><path d="M20.134,13.176,14.715,32.141C17.091,32.945,21.772,34,30,34s12.909-1.055,15.285-1.859L39.867,13.176A3.012,3.012,0,0,0,36.983,11H23.018A3.012,3.012,0,0,0,20.134,13.176Z"/><path d="M14.025,37.889C16.04,38.677,20.8,40,30,40s13.96-1.323,15.976-2.112a1,1,0,0,0,.605-1.21h0l-.746-2.613C43.272,34.916,38.37,36,30,36s-13.272-1.084-15.836-1.936l-.746,2.613A1,1,0,0,0,14.025,37.889Z"/><path d="M49.8,30.428,47.17,31.452l1.336,4.676a3,3,0,0,1-1.8,3.622C44.083,40.776,39.056,42,30,42S15.918,40.776,13.3,39.751a3,3,0,0,1-1.8-3.623l1.336-4.676-2.622-1.02A6,6,0,0,0,3.5,39.988C7.564,44.554,15.463,50,30,50s22.436-5.446,26.5-10.015a6,6,0,0,0-6.7-9.557Z"/></svg>
