<svg id="icons" height="512" viewBox="0 0 60 60" width="512" xmlns="http://www.w3.org/2000/svg"><path d="m35.636 19.12a65.658 65.658 0 0 1 10.816-7.12c2.129-4.487 2.564-7.853 1.168-9.25-1.92-1.922-8.457-.359-18.739 7.46a5.867 5.867 0 0 0 -2.318 4.269 5.45 5.45 0 0 0 1.591 4.281 5.623 5.623 0 0 0 7.482.36z"/><path d="m26.724 44.281h1.708v1.708h-1.708z"/><path d="m36.301 36.301h1.708v1.708h-1.708z"/><path d="m18.854 50.632-1.708.032v1.71h1.709z"/><path d="m44.281 26.724h1.708v1.708h-1.708z"/><path d="m14.479 26.563a5.867 5.867 0 0 0 -4.269 2.318c-7.819 10.282-9.383 16.819-7.464 18.739 1.4 1.4 4.765.96 9.251-1.169a65.684 65.684 0 0 1 7.123-10.815 5.625 5.625 0 0 0 -.36-7.482 5.47 5.47 0 0 0 -4.281-1.591z"/><path d="m50.666 17.146h1.708v1.708h-1.708z"/><path d="m5.546 50.42 6.777 6.78c3.067 3.068 15.693-2.74 28.913-15.961s19.024-25.852 15.964-28.916l-6.78-6.777a20.021 20.021 0 0 1 -2.3 7.617c-2.916 6.008-8.4 13.266-15.045 19.91s-13.904 12.127-19.913 15.045a20.017 20.017 0 0 1 -7.616 2.302zm43.12-33.4a1.88 1.88 0 0 1 1.877-1.878h1.957a1.881 1.881 0 0 1 1.878 1.878v1.954a1.88 1.88 0 0 1 -1.878 1.881h-1.959a1.88 1.88 0 0 1 -1.875-1.876zm-6.385 9.58a1.88 1.88 0 0 1 1.878-1.878h1.953a1.879 1.879 0 0 1 1.877 1.878v1.953a1.879 1.879 0 0 1 -1.877 1.877h-1.953a1.88 1.88 0 0 1 -1.878-1.877zm-7.981 9.578a1.879 1.879 0 0 1 1.878-1.878h1.953a1.88 1.88 0 0 1 1.878 1.877v1.953a1.881 1.881 0 0 1 -1.878 1.878h-1.953a1.88 1.88 0 0 1 -1.878-1.877zm-9.577 7.981a1.88 1.88 0 0 1 1.877-1.878h1.953a1.88 1.88 0 0 1 1.877 1.878v1.953a1.879 1.879 0 0 1 -1.877 1.877h-1.953a1.879 1.879 0 0 1 -1.878-1.877zm-9.578 6.384a1.88 1.88 0 0 1 1.878-1.877h1.954a1.88 1.88 0 0 1 1.876 1.876v1.958a1.88 1.88 0 0 1 -1.877 1.879h-1.952a1.881 1.881 0 0 1 -1.878-1.879z"/></svg>