<?xml version="1.0"?>
<svg xmlns="http://www.w3.org/2000/svg" id="icons" viewBox="0 0 60 60" width="512" height="512"><path d="M41.151,6.771,39.764,7.7l1.553.754a3,3,0,0,1,1.636,3.219c-.576,3.168-4.57,16.587-12.331,20.141a2.393,2.393,0,0,0-.622,1.6V42a28.008,28.008,0,0,0,4.3,14.461A3.508,3.508,0,0,0,38.4,57.775l5.626-2.1a1.007,1.007,0,0,0,.63-1.152C43.86,50.693,42,40.927,42,33a60.784,60.784,0,0,1,1.017-10.931,76.931,76.931,0,0,1,3.664-13.44c-.042-.018-.081-.041-.124-.056ZM34,46a1,1,0,0,1-2,0V45a1,1,0,0,1,2,0Zm0-5a1,1,0,0,1-2,0V40a1,1,0,0,1,2,0Zm0-5a1,1,0,0,1-2,0V35a1,1,0,0,1,2,0Z"/><path d="M54.992,55.981c-.213-27.68-4.861-41.036-6.859-45.508a76.679,76.679,0,0,0-3.09,11.644C48.823,29.868,50.824,41.255,50.99,56a1,1,0,0,0,.993.995l2.005,0A1.009,1.009,0,0,0,54.992,55.981Z"/><path d="M5.006,55.977a1.01,1.01,0,0,0,1,1.017l2.009,0a1,1,0,0,0,1-.995c.165-14.75,2.166-26.137,5.945-33.887a76.712,76.712,0,0,0-3.09-11.643C9.869,14.946,5.22,28.3,5.006,55.977Z"/><path d="M40.986,11.312a.994.994,0,0,0-.545-1.064L36.969,8.559A50.75,50.75,0,0,1,32.8,27.885C37.5,23.365,40.381,14.638,40.986,11.312Z"/><path d="M33.02,4a4.025,4.025,0,0,1,1.964.513c-.005-.192-.009-.395-.014-.574a2,2,0,0,0-2-1.939H27.029a2,2,0,0,0-2,1.947c0,.185-.009.4-.014.6A4.022,4.022,0,0,1,27.03,4Z"/><path d="M13.444,8.572c-.044.015-.083.039-.125.056a76.992,76.992,0,0,1,3.665,13.444A60.815,60.815,0,0,1,18,33c0,7.927-1.86,17.693-2.661,21.524a1.008,1.008,0,0,0,.634,1.151l5.617,2.1A3.5,3.5,0,0,0,25.7,56.461a27.728,27.728,0,0,0,3.255-7.352A27.684,27.684,0,0,1,28,42V33.414a4.381,4.381,0,0,1,.523-2.044c-7.2-4.105-10.921-16.652-11.476-19.7a3,3,0,0,1,1.635-3.218L20.237,7.7l-1.388-.925Z"/><path d="M37.678,6.683,39.4,5.537,37.534,3.8a6.681,6.681,0,0,0-.645-.524,4.2,4.2,0,0,1,.08.6c.021.717.041,1.526.041,2.427v.058Z"/><path d="M19.014,11.312c.605,3.326,3.484,12.053,8.189,16.573A50.75,50.75,0,0,1,23.031,8.559l-3.473,1.69A.993.993,0,0,0,19.014,11.312Z"/><path d="M30,29c3.89-7.159,4.885-15.413,4.989-21.433A2.008,2.008,0,0,0,33.02,6H27.03a2.041,2.041,0,0,0-2.015,1.794C25.14,13.793,26.158,21.932,30,29Z"/><path d="M30,52.316A30.389,30.389,0,0,1,28.3,56h3.4A31.21,31.21,0,0,1,30,52.316Z"/><path d="M23.111,3.275a6.858,6.858,0,0,0-.646.525L20.6,5.537l1.719,1.146.668-.324V6.3c0-.9.02-1.71.04-2.419A4.168,4.168,0,0,1,23.111,3.275Z"/></svg>
