<svg id="icons" height="512" viewBox="0 0 60 60" width="512" xmlns="http://www.w3.org/2000/svg"><path d="m38 2h5v2h-5z"/><path d="m35 6v7a5.009 5.009 0 0 1 -4 4.9v6.02l4.852 29.08h10.086l-2.58-42h-3.358a3 3 0 0 1 -3-3v-2z"/><path d="m39 8a1 1 0 0 0 1 1h3.238l-.18-3h-4.058z"/><path d="m36 4v-2h-3.184a2.966 2.966 0 0 1 .184 1 2.966 2.966 0 0 1 -.184 1z"/><rect height="3" rx="1" width="12" x="35" y="55"/><path d="m24 2v2h3.184a2.966 2.966 0 0 1 -.184-1 2.966 2.966 0 0 1 .184-1z"/><rect height="3" rx="1" width="12.001" x="13" y="55"/><path d="m31 15.816a3 3 0 0 0 2-2.816v-7h-2z"/><path d="m14.062 53h10.086l4.852-29.08v-17.92h-6v2a3 3 0 0 1 -3 3h-3.358z"/><circle cx="30" cy="3" r="1"/><path d="m17 2h5v2h-5z"/><path d="m16.762 9h3.238a1 1 0 0 0 1-1v-2h-4.058z"/></svg>