<svg id="icons" height="512" viewBox="0 0 60 60" width="512" xmlns="http://www.w3.org/2000/svg"><path d="m12 50h4c-.024-23.807-.89-34.861-1.463-39.57-1.351 4.235-3.432 14.626-3.537 38.564a1 1 0 0 0 1 1.006z"/><path d="m21 8.02 1.81-.02a1.581 1.581 0 0 1 1.234 2.561l-2.425 3.024a.283.283 0 0 0 -.054.209.253.253 0 0 0 .1.172l5.377 3.923 1.876-4.589-4.184-10.267z"/><path d="m26.545 24.414 11.7-10.382a1.059 1.059 0 0 1 .084-.066.249.249 0 0 0 .1-.172.282.282 0 0 0 -.059-.215l-2.41-3.014-.006-.006a1.581 1.581 0 0 1 1.236-2.559h1.82l-3.741-4.977z"/><path d="m29.999 10.65 3.527-8.65h-7.053z"/><path d="m19 57h4v-28.22a4.222 4.222 0 0 1 .127-1.038.048.048 0 0 1 0-.012l.006-.021c.006-.022.008-.044.013-.065h.006a3.914 3.914 0 0 1 .228-.767l2.888-7.077-5.768-4.212a2.226 2.226 0 0 1 -.913-1.51 2.288 2.288 0 0 1 .468-1.737l1.875-2.341h-.941a1.989 1.989 0 0 1 -1.589-3.182l.215-.286-3.455 1.168c.528 2.9 1.84 13.145 1.84 43.3v5a1 1 0 0 0 1 1z"/><path d="m39.01 10h-.941l1.871 2.335a2.291 2.291 0 0 1 .474 1.741 2.236 2.236 0 0 1 -.875 1.483l-14.495 12.86a2.315 2.315 0 0 0 -.044.361v29.22h16a1 1 0 0 0 1-1v-6c0-30.145 1.312-40.4 1.839-43.3l-3.455-1.168.217.289a1.986 1.986 0 0 1 -1.591 3.179zm-10.01 43h-1a1 1 0 1 1 0-2h1a1 1 0 0 1 0 2zm0-7h-1a1 1 0 1 1 0-2h1a1 1 0 0 1 0 2zm0-7h-1a1 1 0 1 1 0-2h1a1 1 0 0 1 0 2zm0-7h-1a1 1 0 1 1 0-2h1a1 1 0 0 1 0 2zm5 21h-1a1 1 0 0 1 0-2h1a1 1 0 0 1 0 2zm0-7h-1a1 1 0 0 1 0-2h1a1 1 0 0 1 0 2zm0-7h-1a1 1 0 0 1 0-2h1a1 1 0 0 1 0 2zm0-7h-1a1 1 0 1 1 0-2h1a1 1 0 0 1 0 2z"/><path d="m49 48.99c-.1-23.946-2.188-34.335-3.535-38.562-.573 4.71-1.439 15.772-1.465 39.572h4a1.006 1.006 0 0 0 1-1.01z"/></svg>