<svg id="icons" height="512" viewBox="0 0 60 60" width="512" xmlns="http://www.w3.org/2000/svg"><path d="m10.289 58 .754-2.262-3.608-.515-.355 2.132z"/><path d="m13.864 15.026c-1.838 5.207-5.354 17.445-6.864 38.107l5.253.757 2.774-9.67c-.027-1.02-.046-2.082-.046-3.22 0-3.5.169-6.063.319-8.328.333-5.052.557-8.551-1.436-17.646z"/><path d="m44.235 12.229-3.908-1.949a12.707 12.707 0 0 1 -6.327 3.894v9.826a1 1 0 0 1 -2 0v-9.322c-.592.121-1.208.231-1.876.314a1.016 1.016 0 0 1 -.124.008 1.016 1.016 0 0 1 -.123-.008c-.668-.083-1.284-.193-1.876-.314v9.322a1 1 0 0 1 -2 0v-9.826a12.707 12.707 0 0 1 -6.327-3.894l-3.9 1.945a2.935 2.935 0 0 0 -.435.262c2.566 10.967 2.326 14.713 1.961 20.313-.147 2.234-.314 4.766-.314 8.2 0 1.181.02 2.28.049 3.321.04 1.37.1 2.608.179 3.724a14.385 14.385 0 0 0 4.438-6.959 3.007 3.007 0 0 1 2.848-2.086h11a3 3 0 0 1 2.85 2.076 14.392 14.392 0 0 0 4.441 6.968c.075-1.113.138-2.348.178-3.713.03-1.051.051-2.15.051-3.331 0-3.431-.167-5.963-.315-8.2-.37-5.6-.609-9.349 1.956-20.314a2.886 2.886 0 0 0 -.426-.257z"/><path d="m46.136 15.026c-1.992 9.094-1.769 12.594-1.436 17.645.15 2.266.32 4.833.32 8.329 0 1.143-.02 2.208-.048 3.223l2.771 9.677 5.257-.76c-1.511-20.669-5.028-32.91-6.864-38.114z"/><path d="m42.6 50.38c-1.621-1.024-4.5-3.484-6.156-8.687a1.016 1.016 0 0 0 -.944-.693h-11a1.019 1.019 0 0 0 -.95.7c-1.656 5.2-4.533 7.656-6.15 8.68.159 1.673.329 2.892.445 3.62h24.313c.115-.728.286-1.948.442-3.62z"/><path d="m19.562 58h20.876a1 1 0 0 0 .971-.758l.311-1.242h-23.439l.31 1.243a1 1 0 0 0 .971.757z"/><path d="m49.71 57.993 3.207-.634-.354-2.136-3.606.515z"/><path d="m34.134 2.01a1.007 1.007 0 0 1 -.134-.046v.036h-8c-.008 0-.062 0-.138.011a.949.949 0 0 0 -.554.275.976.976 0 0 0 -.308.714 11.008 11.008 0 0 0 3.247 7.833l1.753 1.753 1.753-1.753a11.01 11.01 0 0 0 3.247-7.833 1.016 1.016 0 0 0 -.866-.99z"/><path d="m21 8.724c.4.583 1.984 2.521 5.961 3.654l-.13-.131a12.99 12.99 0 0 1 -3.831-8.983c-1.036.943-1.942 2.59-2 5.46z"/><path d="m39 8.722c-.055-2.869-.962-4.515-2-5.458a12.991 12.991 0 0 1 -3.83 8.983l-.131.131c3.961-1.13 5.55-3.063 5.961-3.656z"/></svg>