<svg id="icons" height="512" viewBox="0 0 60 60" width="512" xmlns="http://www.w3.org/2000/svg"><path d="m57.641 13.384-11.025-11.025a1.255 1.255 0 0 0 -1.735 0l-2.054 2.054 12.765 12.755 2.049-2.049a1.228 1.228 0 0 0 0-1.735z"/><path d="m14.958 45.042a32.591 32.591 0 0 0 7.536 5.915 5.663 5.663 0 0 0 6.637-1.028l9.611-9.612a1.228 1.228 0 0 0 0-1.736l-.868-.867-9.529 9.529a4.343 4.343 0 0 1 -6.139 0l-9.449-9.449a4.345 4.345 0 0 1 0-6.139l9.529-9.529-.867-.868a1.226 1.226 0 0 0 -1.736 0l-9.612 9.611a5.662 5.662 0 0 0 -1.028 6.637 32.591 32.591 0 0 0 5.915 7.536z"/><path d="m13.384 57.641a1.257 1.257 0 0 0 1.735 0l5.464-5.464a37.474 37.474 0 0 1 -7.039-5.721 37.474 37.474 0 0 1 -5.721-7.039l-5.464 5.464a1.228 1.228 0 0 0 0 1.735zm-3.777-8.662.788-.788a1 1 0 1 1 1.414 1.414l-.788.788a1 1 0 0 1 -1.414-1.414z"/><path d="m52.522 21.813 2.361-2.36a.123.123 0 0 0 -.009-.176l-14.167-14.156a.111.111 0 0 0 -.156 0l-2.362 2.36a.112.112 0 0 0 0 .158l14.165 14.174a.123.123 0 0 0 .168 0z"/><path d="m47.876 26.458.001-.001-14.335-14.333-2.523 2.522 14.335 14.335z"/><path d="m41.763 7.986h2.455v18.045h-2.455z" transform="matrix(.707 -.707 .707 .707 .558 35.365)"/><path d="m19.6 41.812 4.017 4.017a2.345 2.345 0 0 0 3.311 0l10.239-10.236 5.985-5.985-12.76-12.76-5.985 5.985-10.236 10.236a2.344 2.344 0 0 0 0 3.311l4.017 4.02 2.443-2.442a1 1 0 0 1 1.414 1.414z"/></svg>