<?xml version="1.0"?>
<svg xmlns="http://www.w3.org/2000/svg" id="icons" viewBox="0 0 60 60" width="512" height="512"><path d="M2.133,43.836C3.479,45.99,8.887,51,30,51s26.521-5.01,27.866-7.163a.954.954,0,0,0-.1-1.112l-7.654-9.046C48.429,35.659,43.579,39,30,39S11.571,35.659,9.889,33.679l-7.66,9.053A.951.951,0,0,0,2.133,43.836Zm7.933-3.856a1,1,0,0,1,1.292-.575C15.844,41.127,22.116,42,30,42s14.156-.873,18.642-2.595a1,1,0,1,1,.716,1.867C44.644,43.082,38.13,44,30,44s-14.644-.918-19.358-2.728A1,1,0,0,1,10.066,39.98ZM7.1,44.025a1,1,0,0,1,1.335-.467C13.176,45.842,20.432,47,30,47s16.824-1.158,21.566-3.442a1,1,0,0,1,.868,1.8C47.42,47.775,39.872,49,30,49S12.58,47.775,7.566,45.36A1,1,0,0,1,7.1,44.025Z"/><path d="M11,13V31.784C11.4,32.505,14.53,37,30,37c15.393,0,18.566-4.451,19-5.224V13c0-1.357-6.706-4-19-4S11,11.643,11,13Zm34.962,3.035a1,1,0,0,1-.69,1.235A59.864,59.864,0,0,1,30,19a59.864,59.864,0,0,1-15.272-1.73,1,1,0,1,1,.544-1.924A57.891,57.891,0,0,0,30,17a57.891,57.891,0,0,0,14.728-1.654A1,1,0,0,1,45.962,16.035Z"/></svg>
