<svg id="icons" height="512" viewBox="0 0 60 60" width="512" xmlns="http://www.w3.org/2000/svg"><path d="m17 9c0 .205.022.909.06 2h1.94a2 2 0 0 0 2-2v-3h-2.558a5.436 5.436 0 0 0 -1.442 3z"/><path d="m31 19.934 4.769 37.193a1 1 0 0 0 .991.873h3.321a.994.994 0 0 0 1-.952c.163-3.922 1.378-33.169 1.786-44.048h-1.867a4 4 0 0 1 -4-4v-3h-2v8a2 2 0 0 1 -2 2h-2z"/><path d="m31 6h2v8h-2z"/><path d="m25 3a1 1 0 0 0 1 1h15v-2h-15a1 1 0 0 0 -1 1z"/><path d="m23 9a4 4 0 0 1 -4 4h-1.866c.408 10.879 1.623 40.126 1.786 44.047a.994.994 0 0 0 1 .953h3.32a1 1 0 0 0 .991-.873l4.769-37.193v-13.934h-6z"/><path d="m39 6v3a2 2 0 0 0 2 2h1.94c.038-1.091.06-1.795.06-2a5.436 5.436 0 0 0 -1.442-3z"/><path d="m19 2v2h4.184a2.966 2.966 0 0 1 -.184-1 2.966 2.966 0 0 1 .184-1z"/></svg>