<svg id="icons" height="512" viewBox="0 0 60 60" width="512" xmlns="http://www.w3.org/2000/svg"><path d="m25 21.586a2.015 2.015 0 0 1 -.586 1.414l-.414.414v4.586a2 2 0 0 1 -2 2v4h7v-14h-4z"/><path d="m43 24.414a2.015 2.015 0 0 1 -1.414.586h-3.172a1.982 1.982 0 0 1 -.414-.046v3.046h5z"/><path d="m40 30h3v4h-3z"/><path d="m49.274 58a1 1 0 0 0 .99-.858c.081-.578.178-1.3.283-2.142h-5.547v2a1 1 0 0 0 1 1z"/><path d="m40 52.975c.9-.185 1.673-.368 2.267-.523a.98.98 0 0 0 .733-.962v-15.49h-3z"/><path d="m31 20v14h7v-4a2 2 0 0 1 -2-2v-4.586l-.414-.414a2.015 2.015 0 0 1 -.586-1.414v-1.586z"/><path d="m17 28h5v-3.046a1.982 1.982 0 0 1 -.414.046h-3.172a2.015 2.015 0 0 1 -1.414-.586z"/><path d="m29 36h-7v17.339a50.544 50.544 0 0 0 7 .64z"/><path d="m30 7.112 3.192-5.112h-6.384z"/><path d="m31.334 8.751 2.356 1.77 3.116-5.447-1.733-2.31z"/><path d="m35.428 11.516a2.006 2.006 0 0 1 -1.332.963 1.982 1.982 0 0 1 -.4.042 2.008 2.008 0 0 1 -1.2-.4l-1.496-1.121v7h12a1.834 1.834 0 0 1 .235.024c.556-4.6 2-7.267 3.052-8.638l-7.85-3.135z"/><path d="m23.194 5.074 3.115 5.449 2.357-1.771-3.739-5.988z"/><path d="m17 21.586 1.414 1.414h3.172l1.414-1.414v-1.586h-6z"/><path d="m17 30h3v4h-3z"/><path d="m15 57v-2h-5.547c.105.843.2 1.565.282 2.145a1 1 0 0 0 .991.857h3.274a1 1 0 0 0 1-1.002z"/><path d="m17 51v.49a.978.978 0 0 0 .726.96c.6.156 1.37.339 2.274.525v-16.975h-3z"/><path d="m37 21.586 1.414 1.414h3.172l1.414-1.414v-1.586h-6z"/><path d="m31 53.979a50.515 50.515 0 0 0 7-.64v-17.339h-7z"/><path d="m13.713 9.386c1.048 1.371 2.5 4.035 3.052 8.638a1.834 1.834 0 0 1 .235-.024h12v-7l-1.489 1.12a2 2 0 0 1 -2.937-.6l-3.011-5.269z"/><path d="m12.031 10.78c-1.506 2.663-4.031 8.827-4.031 20.22a201.042 201.042 0 0 0 1.216 22h5.784v-31c0-6.633-1.8-9.977-2.861-11.379-.039.054-.076.103-.108.159z"/><path d="m47.861 10.621c-1.061 1.403-2.861 4.747-2.861 11.379v31h5.783a200.709 200.709 0 0 0 1.217-22c0-11.393-2.525-17.557-4.03-20.218-.033-.057-.07-.106-.109-.161z"/></svg>