<svg id="icons" height="512" viewBox="0 0 60 60" width="512" xmlns="http://www.w3.org/2000/svg"><path d="m16 10c0 1.516 1.558 14.488 3.192 27.529l1.516-8.084a3.01 3.01 0 0 1 2.952-2.445h15.8a2.994 2.994 0 0 1 2.9 2.238l1.64 6.235v-29.473h-27.326a11.946 11.946 0 0 0 -.674 4zm5 0h12a1 1 0 0 1 0 2h-3.184a2.966 2.966 0 0 1 .184 1 3 3 0 0 1 -6 0 2.966 2.966 0 0 1 .184-1h-3.184a1 1 0 0 1 0-2z"/><circle cx="27" cy="13" r="1"/><path d="m41.036 43h1.964a.983.983 0 0 0 .8-.433l-2.2-8.341z"/><path d="m20.231 42.829a.986.986 0 0 0 .532.171h2.645l-1.483-9.2z"/><path d="m17 2h27v2h-27z"/><path d="m28.7 58h8.42a1.007 1.007 0 0 0 1-.937l1.806-27.931a.98.98 0 0 0 -.466-.132h-15.8a.987.987 0 0 0 -.463.129l4.521 28.032a1 1 0 0 0 .982.839z"/></svg>