<svg id="icons" height="512" viewBox="0 0 60 60" width="512" xmlns="http://www.w3.org/2000/svg"><path d="m42.434 4.848-1.809 2.911-.3.5a17.981 17.981 0 0 1 -7.325 32.468v4.04a21.982 21.982 0 0 0 9.434-39.919z"/><path d="m20.853 6.344a19.02 19.02 0 0 1 18.3 0l.519-.835.537-.868a21.031 21.031 0 0 0 -20.409 0z"/><path d="m27.226 51.134a4 4 0 1 0 5.548 0 2.995 2.995 0 0 1 -5.548 0z"/><path d="m31 50v-10a1 1 0 0 0 -2 0v10a1 1 0 0 0 2 0z"/><path d="m19.655 8.262-1.827-2.992-.261-.42a21.987 21.987 0 0 0 9.433 39.933v-4.055a17.991 17.991 0 0 1 -7.345-32.466z"/></svg>