<svg id="icons" height="512" viewBox="0 0 60 60" width="512" xmlns="http://www.w3.org/2000/svg"><path d="m12.537 23.391a1.52 1.52 0 0 0 -2.09.058 1.542 1.542 0 0 0 -.447 1.083 1.655 1.655 0 0 0 .127.614l4.262 9.931a8.554 8.554 0 0 0 2.205 3.057l5.933 5.136a3.006 3.006 0 0 0 1.964.73h14.869a1 1 0 0 0 .981-.8l2.29-11.449a19.024 19.024 0 0 0 .369-3.73v-16.853a2.112 2.112 0 0 0 -1.894-2.161 1.959 1.959 0 0 0 -1.486.547 1.984 1.984 0 0 0 -.62 1.446v11a1 1 0 0 1 -2 0v-14.829a2.12 2.12 0 0 0 -1.636-2.14 2.005 2.005 0 0 0 -2.364 1.969v15a1 1 0 0 1 -2 0v-17.829a2.119 2.119 0 0 0 -1.635-2.139 2 2 0 0 0 -2.365 1.968v18a1 1 0 0 1 -2 0v-15a2.005 2.005 0 0 0 -2.365-1.973 2.121 2.121 0 0 0 -1.635 2.144v24.829a1 1 0 0 1 -2 0v-2.879z"/><path d="m26 58v-12h-2a1 1 0 0 0 -1 1v10a1 1 0 0 0 1 1z"/><path d="m33 46.001h3v11.999h-3z"/><path d="m41 57v-10a1 1 0 0 0 -1-1h-2v12h2a1 1 0 0 0 1-1z"/><path d="m28 46.001h3v11.999h-3z"/></svg>