<svg id="icons" height="512" viewBox="0 0 60 60" width="512" xmlns="http://www.w3.org/2000/svg"><path d="m37 58h2a1 1 0 0 0 1-1v-1h-4v1a1 1 0 0 0 1 1z"/><path d="m18 3v2h24v-2a1 1 0 0 0 -1-1h-22a1 1 0 0 0 -1 1z"/><path d="m20 57a1 1 0 0 0 1 1h2a1 1 0 0 0 1-1v-1h-4z"/><path d="m44 14c0-4.89-1-6.55-1.375-7h-8.5a8.672 8.672 0 0 1 1.875 6 1 1 0 0 1 -2 0c0-5.762-3.6-5.992-4.009-6-.391.008-3.991.238-3.991 6a1 1 0 0 1 -2 0 8.672 8.672 0 0 1 1.878-6h-8.5c-.378.45-1.378 2.11-1.378 7 0 6.237 3.265 34.627 3.89 40h4.187l2.764-34.088a3.169 3.169 0 0 1 6.318 0l2.764 34.088h4.187c.625-5.373 3.89-33.763 3.89-40z"/></svg>