<?xml version="1.0"?>
<svg xmlns="http://www.w3.org/2000/svg" id="icons" viewBox="0 0 60 60" width="512" height="512"><path d="M10.992,41.836H11V21.125a4.973,4.973,0,0,1,.642-2.448c.953-1.686,3.189-6.355,4.3-14.625L12.7,5.378A2.971,2.971,0,0,0,11.153,6.8C9.242,10.65,2.935,25.226,2,51.2l7.164,1.6Z"/><path d="M48.836,6.8a2.962,2.962,0,0,0-1.544-1.424L44.046,4.052c1.111,8.267,3.347,12.938,4.3,14.625a4.968,4.968,0,0,1,.642,2.448V40.947c0,.018.011.034.011.053v.854L50.824,52.8,57.985,51.2C57.055,25.226,50.747,10.65,48.836,6.8Z"/><path d="M52.656,57.11a1,1,0,0,0,1.115.881l3.09-.46a1.06,1.06,0,0,0,.857-1.209l-.4-2.92-5.08,1.128Z"/><path d="M46.989,21.125a2.984,2.984,0,0,0-.383-1.464,40.3,40.3,0,0,1-4.07-12.38A182.8,182.8,0,0,1,33,32.218V51h5V45.722A1.993,1.993,0,0,1,37,44V42a2,2,0,0,1,2-2h7.989Z"/><path d="M13,47.764A8.5,8.5,0,0,0,13.658,51H20V46H13Z"/><path d="M3.124,57.53l3.094.461a1.012,1.012,0,0,0,1.115-.882l.418-2.579L2.672,53.4l-.4,2.924A1.056,1.056,0,0,0,3.124,57.53Z"/><path d="M13,21.125V40h8a2,2,0,0,1,2,2v2a1.993,1.993,0,0,1-1,1.722V51h5V34.58a2.04,2.04,0,0,0-.146-.748C22.408,22.842,19.27,13.179,17.468,7.2a40.337,40.337,0,0,1-4.086,12.466A2.977,2.977,0,0,0,13,21.125Z"/><rect x="13" y="42" width="8.001" height="2"/><path d="M29,34.58V56h1.989V52c0-.019.01-.035.011-.053V32.212A200.536,200.536,0,0,1,20.285,2.278l-1.942.793A306.342,306.342,0,0,0,28.707,33.083,4.051,4.051,0,0,1,29,34.58Z"/><path d="M27,53H14.28l.311,1.243a1,1,0,0,0,.971.757H27Z"/><path d="M41.66,3.077l-1.974-.806a220.283,220.283,0,0,1-8.953,24.25q.618,1.488,1.287,3.033A176.279,176.279,0,0,0,41.66,3.077Z"/><rect x="39" y="42" width="7.989" height="2"/><path d="M37.205,2.3A40.063,40.063,0,0,1,30,3a40.057,40.057,0,0,1-7.2-.7A8.289,8.289,0,0,0,30,6,8.288,8.288,0,0,0,37.205,2.3Z"/><path d="M46.989,47.764V46H40v5h6.332A8.516,8.516,0,0,0,46.989,47.764Z"/><path d="M36.453,5.933A10.4,10.4,0,0,1,30,8a10.338,10.338,0,0,1-6.677-2.249C24.54,9.9,26.584,16.23,29.668,23.915,32.945,16.126,35.139,9.941,36.453,5.933Z"/><path d="M45.4,54.242,45.709,53H33v2H44.428A1,1,0,0,0,45.4,54.242Z"/></svg>
