<svg id="icons" height="512" viewBox="0 0 60 60" width="512" xmlns="http://www.w3.org/2000/svg"><path d="m15.668 50.289c1.017.735 2.06 1.543 3.134 2.441a2.613 2.613 0 0 0 3.407-.178l1.765-1.765a3.738 3.738 0 0 1 -.457-.166 9.973 9.973 0 0 0 -7.849-.332z"/><path d="m24.958 36.74-1.11-1.507a.178.178 0 0 0 -.14-.075.15.15 0 0 0 -.064.015c-1.658.808-6.17 3.346-12.262 9.437-.124.124-.235.251-.357.375a22.662 22.662 0 0 1 14.925-1.406 3.709 3.709 0 0 1 2.369 1.85 6.05 6.05 0 0 0 -.91-5.421l-2.445-3.261z"/><path d="m47.305 10.829a20.778 20.778 0 0 0 -1.784 14.643 1.725 1.725 0 0 0 1.041 1.2 1.864 1.864 0 0 0 1.673-.188.988.988 0 0 0 .176-.137 1.339 1.339 0 0 1 .095-.126 1.738 1.738 0 0 0 .289-1.891 11.94 11.94 0 0 1 .188-10.574 30.754 30.754 0 0 1 -1.678-2.927z"/><path d="m50.288 15.668a9.97 9.97 0 0 0 .334 7.853 3.783 3.783 0 0 1 .165.453l1.765-1.765a2.612 2.612 0 0 0 .178-3.409c-.899-1.072-1.707-2.115-2.442-3.132z"/><path d="m50.235 3.6a.186.186 0 0 0 -.047-.17l-1.374-1.375a.159.159 0 0 0 -.2-.032 42.269 42.269 0 0 0 -7.322 6.035c-6.92 6.92-8.736 10.507-10.2 13.39a19.508 19.508 0 0 1 -3.923 5.721 19.491 19.491 0 0 1 -5.722 3.924c-2.883 1.46-6.471 3.277-13.391 10.2a42.287 42.287 0 0 0 -6.036 7.327.156.156 0 0 0 .034.2l1.374 1.374a.178.178 0 0 0 .161.048 4.485 4.485 0 0 1 .635-.044c1.826 0 5.39.979 11.532 6.117a7.186 7.186 0 0 0 9.75-.422l4.666-4.654a10.811 10.811 0 0 0 1-14.057l-2.443-3.253a3.711 3.711 0 0 1 5.2-5.193l3.251 2.442a10.808 10.808 0 0 0 14.057-1l4.651-4.662a7.185 7.185 0 0 0 .421-9.751c-5.817-6.965-6.302-10.61-6.074-12.165zm-21.226 35.209a8.085 8.085 0 0 1 -.745 10.516l-4.64 4.641a4.585 4.585 0 0 1 -3.24 1.309 4.448 4.448 0 0 1 -2.865-1.011 36.627 36.627 0 0 0 -8.651-5.664 2.191 2.191 0 0 1 -1.279-1.538 2.122 2.122 0 0 1 .508-1.9c.593-.656 1.223-1.317 1.871-1.965 6.305-6.3 11.051-8.968 12.8-9.82a2.159 2.159 0 0 1 2.692.672zm24.957-15.186-4.641 4.641a8.086 8.086 0 0 1 -10.516.745l-4.761-3.55a2.164 2.164 0 0 1 -.672-2.693c.852-1.746 3.514-6.492 9.82-12.8.641-.639 1.304-1.266 1.964-1.866a2.123 2.123 0 0 1 1.9-.507 2.187 2.187 0 0 1 1.54 1.274 36.57 36.57 0 0 0 5.668 8.652 4.615 4.615 0 0 1 -.302 6.104z"/><path d="m25.475 45.521a20.8 20.8 0 0 0 -14.646 1.784 30.765 30.765 0 0 1 2.931 1.678 11.949 11.949 0 0 1 10.571-.189 1.734 1.734 0 0 0 1.892-.287.952.952 0 0 1 .113-.088.847.847 0 0 0 .143-.171 1.882 1.882 0 0 0 .2-1.674 1.735 1.735 0 0 0 -1.204-1.053z"/><path d="m43.578 25.946a22.661 22.661 0 0 1 1.413-14.934c-.127.125-.25.24-.38.371-6.093 6.092-8.63 10.6-9.438 12.261a.164.164 0 0 0 .06.2l4.775 3.56a6.049 6.049 0 0 0 5.419.911 3.708 3.708 0 0 1 -1.849-2.369z"/></svg>