<svg id="icons" height="512" viewBox="0 0 60 60" width="512" xmlns="http://www.w3.org/2000/svg"><path d="m2.628 13.9-.111 1.1h54.966l-.111-1.1a1.006 1.006 0 0 0 -1.009-.9h-52.726a1.006 1.006 0 0 0 -1.009.9z"/><path d="m58 20.089-.316-3.089h-55.368l-.311 3.09a1 1 0 0 0 .862 1.087c5.62.778 19.354 4.643 25.51 23.662a1.715 1.715 0 0 0 3.246 0c6.156-19.018 19.89-22.883 25.509-23.661a1 1 0 0 0 .868-1.089zm-25.5 4.911a4.007 4.007 0 0 1 -1.062-.156 5.541 5.541 0 0 0 2.117 2.324 1 1 0 0 1 -1.11 1.664 7.907 7.907 0 0 1 -2.445-2.459 7.907 7.907 0 0 1 -2.445 2.459 1 1 0 0 1 -1.11-1.664 5.541 5.541 0 0 0 2.117-2.324 4.007 4.007 0 0 1 -1.062.156 3.283 3.283 0 0 1 -3.5-3 3.283 3.283 0 0 1 3.5-3 3.788 3.788 0 0 1 2.5.907 3.788 3.788 0 0 1 2.5-.907 3.283 3.283 0 0 1 3.5 3 3.283 3.283 0 0 1 -3.5 3z"/><ellipse cx="32.5" cy="22" rx="1.5" ry="1"/><ellipse cx="27.5" cy="22" rx="1.5" ry="1"/></svg>