<svg id="icons" height="512" viewBox="0 0 60 60" width="512" xmlns="http://www.w3.org/2000/svg"><path d="m39 23h5.001v5h-5.001z"/><path d="m17 2h26v2h-26z"/><path d="m39 18v3h6 .002l-.002-3z"/><path d="m34.855 58h7.145a1 1 0 0 0 1-1v-6h-4a2 2 0 0 1 -2-2v-10a2 2 0 0 1 2-2h4v-7h-4a2 2 0 0 1 -2-2v-10a2 2 0 0 1 2-2h4v-3.586l-6.414-6.414h-1.586v3a5.009 5.009 0 0 1 -4 4.9v5.065l2.858 38.11a1 1 0 0 0 .997.925z"/><path d="m17 9.586 3.586-3.586h-3.586z"/><path d="m33 6h-2v5.816a3 3 0 0 0 2-2.816z"/><path d="m15 18h6v3h-6z"/><path d="m43 6h-3.586l3.586 3.586z"/><path d="m17 16h4a2 2 0 0 1 2 2v10a2 2 0 0 1 -2 2h-4v7h4a2 2 0 0 1 2 2v10a2 2 0 0 1 -2 2h-4v6a1 1 0 0 0 1 1h7.145a1 1 0 0 0 1-.925l2.855-38.111v-12.964h-5.586l-6.414 6.414z"/><path d="m39 44h5.001v5h-5.001z"/><path d="m45.002 42-.002-3h-6v3h6z"/><path d="m16 44h5v5h-5z"/><path d="m15 39h6v3h-6z"/><path d="m16 23h5v5h-5z"/></svg>