<svg id="icons" height="512" viewBox="0 0 60 60" width="512" xmlns="http://www.w3.org/2000/svg"><path d="m28.889 38.952a10.44 10.44 0 0 1 -.534 2.157 12.467 12.467 0 0 1 3.29 0 10.44 10.44 0 0 1 -.534-2.157c-.352.03-.721.048-1.111.048s-.759-.018-1.111-.048z"/><path d="m43.732 24c-.466 1.15-1.745 3.227-5.165 4.845a9.534 9.534 0 0 0 -5.567 8.655 8.5 8.5 0 1 0 17 0v-5.343a18.1 18.1 0 0 1 -3.833-8.157z"/><path d="m43 8a3 3 0 0 0 -3 3v14.631a5.345 5.345 0 0 0 2-2.731v-10.9a1 1 0 0 1 2 0v10h2v-11a3 3 0 0 0 -3-3z"/><path d="m6.709 47.293 4.291 4.293v-4.586h-4.584z"/><path d="m9.586 53-4-4h-2.586a1 1 0 0 0 -1 1v2a1 1 0 0 0 1 1z"/><path d="m2 37.438 2.567 7.176a3.61 3.61 0 0 0 .162.386h6.414a10.458 10.458 0 0 1 -3.143-7.5v-3.326a16.954 16.954 0 0 1 -6 3.264z"/><path d="m14 11v11h2v-10a1 1 0 0 1 2 0v10.907a5.345 5.345 0 0 0 2 2.724v-14.631a3 3 0 0 0 -6 0z"/><path d="m53.584 47h-4.584v4.586z"/><path d="m10 32.157v5.343a8.5 8.5 0 1 0 17 0 9.534 9.534 0 0 0 -5.567-8.655c-3.42-1.618-4.7-3.695-5.165-4.845h-2.435a18.1 18.1 0 0 1 -3.833 8.157z"/><path d="m57 49h-2.588l-4 4h6.588a1 1 0 0 0 1-1v-2a1 1 0 0 0 -1-1z"/><path d="m55.435 44.619 2.565-7.185a16.918 16.918 0 0 1 -6-3.26v3.326a10.458 10.458 0 0 1 -3.143 7.5h6.414a3.675 3.675 0 0 0 .164-.381z"/></svg>