<?xml version="1.0"?>
<svg xmlns="http://www.w3.org/2000/svg" id="icons" viewBox="0 0 60 60" width="512" height="512"><path d="M24.506,9.92,23.1,8.513A22.912,22.912,0,0,0,27,20.227V10.3l-.2-.3a1.684,1.684,0,0,1-2.3-.086Z"/><path d="M31.464,9l.618-.929a4.971,4.971,0,0,0-2.082-2,4.971,4.971,0,0,0-2.082,2L28.536,9Z"/><path d="M35.516,2.529,31.924,4.92A8.6,8.6,0,0,1,34.4,8.187l2.427-2.428-1.252-3.13A.765.765,0,0,0,35.516,2.529Z"/><path d="M33.962,10.383a1.691,1.691,0,0,1-.765-.377l-.2.3v9.924A22.912,22.912,0,0,0,36.9,8.513L35.494,9.92a1.691,1.691,0,0,1-1.2.5A1.751,1.751,0,0,1,33.962,10.383Z"/><polygon points="30 3.799 32.703 2 27.297 2 30 3.799"/><path d="M30,23.661c.356-.329.671-.683,1-1.028V11H29V22.633C29.329,22.978,29.644,23.332,30,23.661Z"/><path d="M28.076,4.92,24.484,2.529a.765.765,0,0,0-.058.1l-1.252,3.13L25.6,8.187A8.6,8.6,0,0,1,28.076,4.92Z"/><path d="M32.2,55.262,30,52.088,27.8,55.26A11,11,0,0,1,25.069,58h9.857A10.966,10.966,0,0,1,32.2,55.262Z"/><path d="M16.189,42.714A85.615,85.615,0,0,0,15,57.006a1,1,0,0,0,.994.994h2.758a9.007,9.007,0,0,0,7.406-3.879l2.625-3.79-.826-1.193A10.959,10.959,0,0,1,26,42.876V32.143a10.913,10.913,0,0,1,2.585-7.077c-4.737-4.42-7.276-10.36-7.556-17.689l-9.481,3.161A42.147,42.147,0,0,1,17,32,68.415,68.415,0,0,1,16.189,42.714Z"/><path d="M9.005,58c.081-14.276,1.919-24.718,5.607-31.925a38.551,38.551,0,0,0-4.486-14.009C8.17,16.933,5.07,29.182,5,57.993Z"/><path d="M49.874,12.066a38.551,38.551,0,0,0-4.486,14.009c3.688,7.207,5.526,17.648,5.61,31.916L55,58C54.93,29.183,51.83,16.933,49.874,12.066Z"/><path d="M30.7,25.712l-.066.066A8.947,8.947,0,0,0,28,32.143V42.876A8.963,8.963,0,0,0,29.6,48l4.239,6.124A9,9,0,0,0,41.24,58h2.767A1,1,0,0,0,45,57.006a85.615,85.615,0,0,0-1.19-14.292A68.415,68.415,0,0,1,43,32a42.147,42.147,0,0,1,5.451-21.462L38.971,7.377C38.677,15.068,35.9,21.231,30.7,25.712ZM32,44a1,1,0,0,1-2,0V43a1,1,0,0,1,2,0Zm0-5a1,1,0,0,1-2,0V38a1,1,0,0,1,2,0Zm0-5a1,1,0,0,1-2,0V33a1,1,0,0,1,2,0Z"/></svg>
