<svg id="icons" height="512" viewBox="0 0 60 60" width="512" xmlns="http://www.w3.org/2000/svg"><path d="m22.974 42.888a7.679 7.679 0 0 0 2.7 3.7 7.284 7.284 0 0 0 4.326 1.412 7.458 7.458 0 0 0 7.025-5.111 16 16 0 0 1 5.675-7.7l-5.364-18.189h-14.672l-5.364 18.191a16 16 0 0 1 5.674 7.697z"/><path d="m4.457 12.854-.325 2.146h51.736l-.325-2.147a1.021 1.021 0 0 0 -1.01-.853h-49.066a1.021 1.021 0 0 0 -1.01.854z"/><path d="m57.791 29.74a.974.974 0 0 0 .2-.752l-1.819-11.988h-16.751l5.018 17.017a31.188 31.188 0 0 1 12.631-3.885 1.027 1.027 0 0 0 .721-.392z"/><path d="m2.93 30.132a31.183 31.183 0 0 1 12.631 3.885l5.018-17.017h-16.751l-1.817 11.988a.978.978 0 0 0 .2.752 1.027 1.027 0 0 0 .719.392z"/></svg>