<?xml version="1.0"?>
<svg xmlns="http://www.w3.org/2000/svg" id="icons" viewBox="0 0 60 60" width="512" height="512"><path d="M43,56V24c0-5.7,1.549-9,3.111-10.886a8.938,8.938,0,0,0-1.456-.84l-1.927-.856A4,4,0,0,1,39,14a1,1,0,0,1,0-2,2,2,0,0,0,2-2V7a5.006,5.006,0,0,0-5-5H24a5.006,5.006,0,0,0-5,5v3a2,2,0,0,0,2,2,1,1,0,0,1,0,2,4,4,0,0,1-3.728-2.582l-1.927.856a8.938,8.938,0,0,0-1.456.84C15.451,15,17,18.3,17,24V56a1,1,0,0,0,1,1h8V17.485a6.955,6.955,0,0,1,2.051-4.95L28.586,12l-.535-.535A4.971,4.971,0,0,0,24.515,10H24a3,3,0,0,1,0-6H36a3,3,0,0,1,0,6v3a4,4,0,0,1-4,4V57H42A1,1,0,0,0,43,56Z"/><path d="M50,53V20.5a8.993,8.993,0,0,0-2.375-6.072C46.439,15.893,45,18.748,45,24V54h4A1,1,0,0,0,50,53Z"/><path d="M11,54h4V24c0-5.252-1.439-8.107-2.625-9.573A8.993,8.993,0,0,0,10,20.5V53A1,1,0,0,0,11,54Z"/><path d="M28,17.485V58h2V17H28.047C28.032,17.162,28,17.32,28,17.485Z"/><path d="M34,13V10.248a4.961,4.961,0,0,0-2.051,1.217l-2.484,2.484A4.989,4.989,0,0,0,28.684,15H32A2,2,0,0,0,34,13Z"/><path d="M30,10.586l.535-.535A6.955,6.955,0,0,1,35.485,8H36a1,1,0,0,0,0-2H24a1,1,0,0,0,0,2h.515a6.955,6.955,0,0,1,4.95,2.051Z"/></svg>
