<svg id="icons" height="512" viewBox="0 0 60 60" width="512" xmlns="http://www.w3.org/2000/svg"><path d="m29.5 1c-9.172 0-16.786 2.16-18.237 5a3.432 3.432 0 0 0 .789 1 7.434 7.434 0 0 0 1.431 1.01c3.194-1.81 9.182-3.01 16.017-3.01s12.823 1.2 16.017 3.01a7.434 7.434 0 0 0 1.431-1.01 3.432 3.432 0 0 0 .789-1c-1.451-2.84-9.065-5-18.237-5z"/><path d="m22.782 13.58c-5-.62-8.949-1.94-10.73-3.58a2.777 2.777 0 0 1 -1.052-2v4c0 2.64 5.268 4.89 12.58 5.69z"/><path d="m48 12v-4a2.777 2.777 0 0 1 -1.052 2c-1.781 1.64-5.725 2.96-10.73 3.58l-.8 4.11c7.314-.8 12.582-3.05 12.582-5.69z"/><path d="m34.197 35.508-.419-6.557-8.802 3.84-.443 6.932z"/><path d="m23.659 53.377a.479.479 0 0 0 .208.379l4.856 3.992a1.327 1.327 0 0 0 1.554 0l4.856-3.991a.479.479 0 0 0 .208-.378l-.453-7.086-11.088 4.836z"/><path d="m41.293 45.1.108-.047a1 1 0 0 0 .6-.818l.067-.665a1.006 1.006 0 0 0 -.136-.611l-5.932-9.959.34 5.483 3.7 6.21a1 1 0 0 0 1.253.407z"/><path d="m34.2 12.366a1.022 1.022 0 0 0 -.806-.366h-7.788a1.022 1.022 0 0 0 -.809.366.7.7 0 0 0 -.152.581l1.309 6.727a.489.489 0 0 0 .5.326h6.1a.489.489 0 0 0 .5-.326l1.309-6.727a.7.7 0 0 0 -.163-.581z"/><path d="m23.946 48.895 10.806-4.716-.419-6.557-9.943 4.337z"/><path d="m27.031 22a8.282 8.282 0 0 0 -1.644 4.383l-.268 4.174 8.524-3.718-.03-.456a8.282 8.282 0 0 0 -1.644-4.383z"/></svg>