<?xml version="1.0"?>
<svg xmlns="http://www.w3.org/2000/svg" id="icons" viewBox="0 0 60 60" width="512" height="512"><path d="M2.568,53.962C5.057,55.176,12.712,58,30,58s24.943-2.824,27.433-4.038a.988.988,0,0,0,.529-1.16c-.272-.934-.562-1.85-.858-2.758A4.3,4.3,0,0,0,56.5,50a4.452,4.452,0,0,0-3.614,1.824,2,2,0,0,1-2.463.608,4.5,4.5,0,0,0-5.919,2,2.014,2.014,0,0,1-3.109.621A4.518,4.518,0,0,0,38.5,54a4.4,4.4,0,0,0-2.869,1.037,2,2,0,0,1-2.543.039,5.046,5.046,0,0,0-6.176,0,1.993,1.993,0,0,1-2.542-.038A4.408,4.408,0,0,0,21.5,54a4.513,4.513,0,0,0-2.895,1.054,2.015,2.015,0,0,1-3.109-.621,4.5,4.5,0,0,0-5.921-2,2,2,0,0,1-2.46-.609A4.456,4.456,0,0,0,3.5,50a4.3,4.3,0,0,0-.6.044c-.3.908-.585,1.823-.857,2.756A.987.987,0,0,0,2.568,53.962Z"/><path d="M8.724,50.635A6.276,6.276,0,0,1,11.5,50a6.469,6.469,0,0,1,5.773,3.516A6.769,6.769,0,0,1,21.5,52a6.474,6.474,0,0,1,4.154,1.5A7.1,7.1,0,0,1,30,52a7,7,0,0,1,4.33,1.509,6.51,6.51,0,0,1,8.35.012A6.589,6.589,0,0,1,48.5,50a6.45,6.45,0,0,1,2.78.624,6.531,6.531,0,0,1,5.133-2.619A105.2,105.2,0,0,0,34.379,11.8a4.929,4.929,0,0,1-1.086-1.8,5.962,5.962,0,0,1-6.586,0,4.943,4.943,0,0,1-1.086,1.8,105.194,105.194,0,0,0-22.034,36.2A6.524,6.524,0,0,1,8.724,50.635ZM37.332,21.257a1,1,0,0,1,1.411.074c.265.294,6.548,7.376,12.2,22.9a1,1,0,1,1-1.878.684c-5.5-15.118-11.743-22.177-11.8-22.246A1,1,0,0,1,37.332,21.257ZM33.5,22.807a1,1,0,0,1,1.365.364c.176.3,4.354,7.629,8.109,23.683a1,1,0,0,1-.746,1.2,1.065,1.065,0,0,1-.229.026,1,1,0,0,1-.973-.772c-3.677-15.724-7.85-23.066-7.892-23.138A1,1,0,0,1,33.5,22.807ZM29,25.427a1,1,0,0,1,2,0V48a1,1,0,0,1-2,0Zm-2.5-2.62a1,1,0,0,1,.366,1.365c-.042.072-4.215,7.414-7.892,23.138a1,1,0,0,1-.973.772,1.065,1.065,0,0,1-.229-.026,1,1,0,0,1-.746-1.2c3.755-16.054,7.933-23.379,8.109-23.683A1,1,0,0,1,26.5,22.807ZM9.061,44.231c5.648-15.524,11.931-22.606,12.2-22.9a1,1,0,0,1,1.487,1.338c-.062.069-6.3,7.128-11.8,22.246a1,1,0,1,1-1.878-.684Z"/><path d="M30,9a4,4,0,0,0,3-1.394v0a4.9,4.9,0,0,1,.714-2.563,2.018,2.018,0,0,0,.255-1.408,2,2,0,0,0-3.3-1.119,1,1,0,0,1-1.342,0A1.974,1.974,0,0,0,28,2a2.147,2.147,0,0,0-.448.048,1.989,1.989,0,0,0-1.516,1.583,2.013,2.013,0,0,0,.256,1.407A4.9,4.9,0,0,1,27,7.6v.006A4,4,0,0,0,30,9Z"/></svg>
