<?xml version="1.0"?>
<svg xmlns="http://www.w3.org/2000/svg" id="icons" viewBox="0 0 60 60" width="512" height="512"><path d="M11,30.626a1.061,1.061,0,0,0,.609,1.05A18.863,18.863,0,0,0,19,33a18.873,18.873,0,0,0,7.39-1.324A1.062,1.062,0,0,0,27,30.626,19.424,19.424,0,0,0,19.6,16.208a.978.978,0,0,0-1.206,0A19.424,19.424,0,0,0,11,30.626Z"/><path d="M41.6,16.208a.978.978,0,0,0-1.206,0A19.424,19.424,0,0,0,33,30.625a1.062,1.062,0,0,0,.609,1.051A18.837,18.837,0,0,0,41,33a18.847,18.847,0,0,0,7.39-1.324A1.062,1.062,0,0,0,49,30.626h0A19.424,19.424,0,0,0,41.6,16.208Z"/><path d="M31.292,32a3.135,3.135,0,0,1-.286-1.489c.01-.175.033-.339.047-.511H28.948c.014.172.037.336.047.511A3.135,3.135,0,0,1,28.709,32Z"/><path d="M14,43.062c3.142.306,13.439,2.291,13.979,14.915L32.02,58C32.562,45.354,42.858,43.368,46,43.061V41L14,41Z"/><path d="M25.773,55.977a12.123,12.123,0,0,0-9.7-10.543A43.108,43.108,0,0,0,25.773,55.977Z"/><path d="M43.933,45.434a12.127,12.127,0,0,0-9.706,10.543A43.047,43.047,0,0,0,43.933,45.434Z"/><path d="M8,43v7a1,1,0,0,0,2,0V45a2,2,0,1,0-2-2Z"/><path d="M50,41a2,2,0,0,0,0,4v5a1,1,0,0,0,2,0V43A2,2,0,0,0,50,41Z"/><path d="M30,0A12.01,12.01,0,0,0,18,12v2.18a2.868,2.868,0,0,1,2,0V12a10,10,0,0,1,20,0v2.18a2.868,2.868,0,0,1,2,0V12A12.01,12.01,0,0,0,30,0Z"/></svg>
