<svg id="icons" height="512" viewBox="0 0 60 60" width="512" xmlns="http://www.w3.org/2000/svg"><path d="m4.367 52.761a37.459 37.459 0 0 0 10.313 1.239 100.607 100.607 0 0 0 12-.68l2.334-15.47a1 1 0 0 1 1.978 0l2.334 15.47a100.636 100.636 0 0 0 12 .68 37.445 37.445 0 0 0 10.312-1.239l-5.522-44.761h-10.3a2.966 2.966 0 0 1 .184 1 3 3 0 0 1 -3 3h-3a4.939 4.939 0 0 1 -2.517-.7 12.087 12.087 0 0 0 3.224 5 1 1 0 1 1 -1.414 1.414 15 15 0 0 1 -3.293-4.678 15 15 0 0 1 -3.293 4.671 1 1 0 0 1 -1.414-1.414 12.087 12.087 0 0 0 3.224-5 4.939 4.939 0 0 1 -2.517.707h-3a3 3 0 0 1 -3-3 2.966 2.966 0 0 1 .184-1h-10.3z"/><path d="m16 2h4v4h-4z"/><path d="m11 2a1 1 0 0 0 -1 1v3h4v-4z"/><path d="m38 6v-4h-4v4h3z"/><path d="m28 6h2 2v-4h-4z"/><path d="m23 10h3a3.006 3.006 0 0 0 2.829-2h-5.829a1 1 0 0 0 0 2z"/><path d="m40 2h4v4h-4z"/><path d="m34 10h3a1 1 0 0 0 0-2h-5.829a3.006 3.006 0 0 0 2.829 2z"/><path d="m26 6v-4h-4v4h1z"/><path d="m49 2h-3v4h4v-3a1 1 0 0 0 -1-1z"/><path d="m4.007 55.685a.981.981 0 0 0 .636 1.048 27.466 27.466 0 0 0 9.263 1.267 81.331 81.331 0 0 0 11.458-.745 1 1 0 0 0 .847-.842l.157-1.043a103.756 103.756 0 0 1 -11.688.63 40.007 40.007 0 0 1 -10.56-1.235z"/><path d="m55.992 55.683-.113-.918a40 40 0 0 1 -10.559 1.235 103.75 103.75 0 0 1 -11.687-.63l.157 1.043a1 1 0 0 0 .846.842 81.331 81.331 0 0 0 11.458.745 27.466 27.466 0 0 0 9.263-1.267.981.981 0 0 0 .635-1.05z"/></svg>