<?xml version="1.0"?>
<svg xmlns="http://www.w3.org/2000/svg" id="icons" viewBox="0 0 60 60" width="512" height="512"><path d="M10,26.157V31.5a8.5,8.5,0,1,0,17,0,9.534,9.534,0,0,0-5.567-8.655c-3.42-1.618-4.7-3.695-5.165-4.845H13.833A18.1,18.1,0,0,1,10,26.157Z"/><path d="M45,58a2,2,0,0,0,2-2H43A2,2,0,0,0,45,58Z"/><path d="M15,58a2,2,0,0,0,2-2H13A2,2,0,0,0,15,58Z"/><path d="M12,54h3.935l-.79-12.558A10.429,10.429,0,0,1,14.04,41H8.3l3.467,13Z"/><path d="M31.645,35.109a10.44,10.44,0,0,1-.534-2.157c-.352.03-.721.048-1.111.048s-.759-.018-1.111-.048a10.44,10.44,0,0,1-.534,2.157,12.467,12.467,0,0,1,3.29,0Z"/><path d="M55.4,38.352,57.634,32.4a.992.992,0,0,0-.578-1.284A16.838,16.838,0,0,1,52,28.174V31.5A10.458,10.458,0,0,1,48.857,39h5.606A1,1,0,0,0,55.4,38.352Z"/><path d="M50,31.5V26.156A18.1,18.1,0,0,1,46.167,18H43.732c-.466,1.15-1.745,3.227-5.165,4.845A9.534,9.534,0,0,0,33,31.5,8.491,8.491,0,0,0,41.5,40,8.479,8.479,0,0,0,50,31.5Z"/><path d="M48.231,54,51.7,41H45.96a10.344,10.344,0,0,1-1.105.442L44.065,54h4.166Z"/><path d="M2.936,31.125a.993.993,0,0,0-.573,1.284L4.6,38.353A1,1,0,0,0,5.537,39h5.606A10.458,10.458,0,0,1,8,31.5V28.174A17.072,17.072,0,0,1,2.936,31.125Z"/><path d="M14,5V16h2V6a1,1,0,0,1,2,0V16.907a5.345,5.345,0,0,0,2,2.724V5a3,3,0,1,0-6,0Z"/><path d="M42.061,54l.761-12.089a10.421,10.421,0,0,1-8.749-2.984,10.608,10.608,0,0,1-1.2-1.451A7.1,7.1,0,0,0,30,37a7.123,7.123,0,0,0-2.868.475,10.616,10.616,0,0,1-1.2,1.452A10.436,10.436,0,0,1,18.5,42a10.638,10.638,0,0,1-1.323-.089L17.939,54H42.061Z"/><path d="M39,58a2,2,0,0,0,2-2H37A2,2,0,0,0,39,58Z"/><path d="M27,58a2,2,0,0,0,2-2H25A2,2,0,0,0,27,58Z"/><path d="M21,58a2,2,0,0,0,2-2H19A2,2,0,0,0,21,58Z"/><path d="M33,58a2,2,0,0,0,2-2H31A2,2,0,0,0,33,58Z"/><path d="M46,16V5a3,3,0,0,0-6,0V19.631A5.345,5.345,0,0,0,42,16.9V6a1,1,0,0,1,2,0V16Z"/></svg>
