<?xml version="1.0"?>
<svg xmlns="http://www.w3.org/2000/svg" id="icons" viewBox="0 0 60 60" width="512" height="512"><path d="M30,17c6.747,0,10.028-5.084,11.61-9.571C39.4,9.352,35.825,11,30,11c-4.98,0-8.883-1.2-11.609-3.569C19.974,11.917,23.255,17,30,17Z"/><path d="M48.267,56.149,48.278,56H11.722l.011.148a2.01,2.01,0,0,0,2,1.851H46.271A2.01,2.01,0,0,0,48.267,56.149Z"/><path d="M48.764,2.634,44.935,2C44.424,5.987,41.858,19,30,19S15.576,5.986,15.072,2l-3.831.64c.889,3.156,2.483,11.073-2.01,16.322A1.088,1.088,0,0,0,9,19.75L11.572,54H48.428L51,19.751a1.088,1.088,0,0,0-.227-.79C46.276,13.712,47.87,5.8,48.764,2.634Z"/></svg>
