<?xml version="1.0"?>
<svg xmlns="http://www.w3.org/2000/svg" id="icons" viewBox="0 0 60 60" width="512" height="512"><path d="M37.92,4c.01-.13.02-1.28.02-1.39a17.115,17.115,0,0,0-6.05,1.75,4.073,4.073,0,0,1-3.78,0,17.115,17.115,0,0,0-6.05-1.75c0,.11.01,1.26.02,1.39C24.05,4.94,28,6.53,28,12.54a11.046,11.046,0,0,1-.97,4.49,5.032,5.032,0,0,0,5.94,0A11.046,11.046,0,0,1,32,12.54C32,6.53,35.95,4.94,37.92,4Z"/><path d="M47,57a13.751,13.751,0,0,0-.858-4.734A41.678,41.678,0,0,1,44,38a25.585,25.585,0,0,1,.591-5.841,8.628,8.628,0,0,1-2.4.823,1,1,0,0,1-.376-1.964c3.469-.666,4.063-3,4.165-3.776.009-.151.023-.3.023-.453v-.251a8.272,8.272,0,0,0-1-4.093,22,22,0,0,1-3-10.8V3.618L39.95,2.593C39.708,7.191,38.288,20,30,20S20.292,7.19,20.05,2.593L18,3.618v8.028a21.992,21.992,0,0,1-3,10.8,8.282,8.282,0,0,0-1,4.093v.251c0,.153.014.3.023.453.1.773.7,3.11,4.165,3.776a1,1,0,1,1-.376,1.964,8.628,8.628,0,0,1-2.4-.823A25.585,25.585,0,0,1,16,38a41.678,41.678,0,0,1-2.142,14.266A13.751,13.751,0,0,0,13,57a1,1,0,0,0,1,1H46A1,1,0,0,0,47,57ZM35.9,30.447a1,1,0,0,1-1.342.448,12.03,12.03,0,0,0-9.109,0,1,1,0,0,1-.891-1.791A13.134,13.134,0,0,1,30,28a13.134,13.134,0,0,1,5.447,1.105A1,1,0,0,1,35.9,30.447Z"/></svg>
