<svg id="icons" height="512" viewBox="0 0 60 60" width="512" xmlns="http://www.w3.org/2000/svg"><path d="m12.184 54h-2.184v2a2 2 0 0 0 2 2h36a2 2 0 0 0 2-2v-2h-2.184a3 3 0 0 1 -2.816 2h-30a3 3 0 0 1 -2.816-2z"/><path d="m50 29a20 20 0 0 0 -40 0v23h2v-19a3 3 0 0 1 3-3h30a3 3 0 0 1 3 3v19h2zm-15-4a2 2 0 0 1 -2 2h-6a2 2 0 0 1 -2-2v-6a2 2 0 0 1 2-2h6a2 2 0 0 1 2 2z"/><path d="m17 4v7.27a21.746 21.746 0 0 1 6.89-3.4l-.62-4.02a.993.993 0 0 0 -.99-.85h-4.28a1 1 0 0 0 -1 1z"/><path d="m36.73 3.85-.62 4.02a21.746 21.746 0 0 1 6.89 3.4v-7.27a1 1 0 0 0 -1-1h-4.28a.993.993 0 0 0 -.99.85z"/><path d="m14 53a1 1 0 0 0 1 1h30a1 1 0 0 0 1-1v-13.184a2.966 2.966 0 0 1 -1 .184h-3v3a3 3 0 0 1 -6 0v-3h-21a2.966 2.966 0 0 1 -1-.184z"/><path d="m27 19h6.001v6h-6.001z"/><path d="m39 44a1 1 0 0 0 1-1v-3h-2v3a1 1 0 0 0 1 1z"/><path d="m45 38a1 1 0 0 0 1-1v-4a1 1 0 0 0 -1-1h-30a1 1 0 0 0 -1 1v4a1 1 0 0 0 1 1z"/><path d="m30 0a3.564 3.564 0 0 0 -3.46 2.69l-1.23 4.82a19.461 19.461 0 0 1 2.16-.36l1.01-3.97a1.569 1.569 0 0 1 3.04 0l1.01 3.97a19.461 19.461 0 0 1 2.16.36l-1.23-4.82a3.564 3.564 0 0 0 -3.46-2.69z"/></svg>