<svg id="icons" height="512" viewBox="0 0 60 60" width="512" xmlns="http://www.w3.org/2000/svg"><path d="m2.713 55.55c.518.154 1.277.352 2.287.568v-16.955c-.681-.138-1.269-.272-1.748-.392a1 1 0 0 0 -1.252.966v14.854a.993.993 0 0 0 .713.959z"/><path d="m56.749 38.771c-.479.12-1.068.254-1.749.393v16.953c1.009-.215 1.768-.413 2.286-.567a.993.993 0 0 0 .714-.959v-14.854a1 1 0 0 0 -1.251-.966z"/><path d="m37 57.893c1.411-.044 2.755-.1 4-.164v-17q-1.878.1-4 .164z"/><path d="m43 57.608c1.456-.1 2.786-.206 4-.325v-16.99c-1.219.117-2.549.225-4 .32z"/><path d="m31 57.994q2.1-.009 4-.05v-17c-1.269.027-2.606.042-4 .047z"/><path d="m55 25.76a23.792 23.792 0 0 0 -14.288-21.793c-.5-.218-1.012-.411-1.524-.593a25.944 25.944 0 0 1 7.746 11.267 1 1 0 0 1 -1.868.718c-4.343-11.29-11.812-13.116-13-13.338-.274-.009-.549-.021-.826-.021h-.24v13a1 1 0 0 1 -2 0v-13h-.24c-.278 0-.555.012-.832.022-1.2.226-8.657 2.063-12.994 13.337a1 1 0 0 1 -1.868-.718 25.952 25.952 0 0 1 7.726-11.25 23.7 23.7 0 0 0 -15.792 22.369v11.362c3.776.807 11.354 1.878 25 1.878s21.223-1.071 25-1.878z"/><path d="m49 40.083v16.987c1.559-.184 2.879-.378 4-.571v-16.969c-1.132.188-2.46.376-4 .553z"/><path d="m19 57.729c1.245.066 2.589.12 4 .164v-17q-2.122-.065-4-.164z"/><path d="m13 57.283q1.821.178 4 .325v-16.995c-1.451-.095-2.781-.2-4-.32z"/><path d="m7 39.53v16.97c1.121.193 2.441.387 4 .571v-16.988c-1.54-.177-2.868-.365-4-.553z"/><path d="m25 57.944q1.9.04 4 .05v-17c-1.394-.005-2.731-.021-4-.047z"/></svg>