<?xml version="1.0"?>
<svg xmlns="http://www.w3.org/2000/svg" id="icons" viewBox="0 0 60 60" width="512" height="512"><path d="M26.622,10l1.843-2.516C25,6,23.737,3.826,23.273,2.411L20.624,3.822A10.013,10.013,0,0,0,26.622,10Z"/><path d="M45,56V55H15v1a2,2,0,0,0,2,2H43A2,2,0,0,0,45,56Z"/><path d="M41.152,4.771A11.943,11.943,0,0,1,34,11.9a1.872,1.872,0,0,1-.616.105,1.986,1.986,0,0,1-1.593-.822L31,10.11V20a1,1,0,0,1-2,0V10.11l-.8,1.075a1.961,1.961,0,0,1-2.224.71,11.943,11.943,0,0,1-7.133-7.127L10.7,9.108C12.3,10.653,15,14.256,15,21V32.026c0,.014,0,.027,0,.04V53H45V32.066c0-.013,0-.026,0-.039V21c0-6.744,2.7-10.348,4.3-11.893Z"/><path d="M9.275,10.5,2.063,24.453a.561.561,0,0,0,.25.762L13,30.4V21C13,14.859,10.6,11.749,9.275,10.5Z"/><path d="M39.374,3.826l-2.649-1.41c-.465,1.414-1.73,3.578-5.184,5.065L33.4,9.995A10.019,10.019,0,0,0,39.374,3.826Z"/><path d="M50.725,10.5C49.405,11.749,47,14.86,47,21v9.4l10.689-5.187a.558.558,0,0,0,.249-.758Z"/><path d="M34.576,2.409A19.73,19.73,0,0,1,30,2.9a19.7,19.7,0,0,1-4.577-.491c.539,1.07,1.765,2.522,4.577,3.532C32.809,4.932,34.036,3.481,34.576,2.409Z"/></svg>
