<?xml version="1.0"?>
<svg xmlns="http://www.w3.org/2000/svg" id="icons" viewBox="0 0 60 60" width="512" height="512"><path d="M24.26,2a2.952,2.952,0,0,0-1.165.266C23.428,5.021,24.754,10,30,10s6.573-4.979,6.905-7.734A2.948,2.948,0,0,0,35.74,2Z"/><path d="M46.985,8.617a.2.2,0,0,0-.145-.127L41.789,7.227C41.174,9.9,38.869,16.453,31,16.967V58H48a1,1,0,0,0,1-1V28.638a3.087,3.087,0,0,0-.762-1.99A14.581,14.581,0,0,1,45,17c0-4.227,1.064-6.78,1.957-8.178A.211.211,0,0,0,46.985,8.617ZM39,16h3a1,1,0,0,1,0,2H39a1,1,0,0,1,0-2Zm-4,6h8a1,1,0,0,1,0,2H35a1,1,0,0,1,0-2ZM46,54H35a1,1,0,0,1,0-2H46a1,1,0,0,1,0,2Zm0-6H35a1,1,0,0,1,0-2H46a1,1,0,0,1,0,2Zm0-6H35a1,1,0,0,1,0-2H46a1,1,0,0,1,0,2Zm0-6H35a1,1,0,0,1,0-2H46a1,1,0,0,1,0,2Zm0-8a1,1,0,0,1,0,2H35a1,1,0,0,1,0-2Z"/><path d="M31,11.934v3c7.256-.575,8.724-7.209,8.961-8.727L38.633,3.992C37.977,7.035,36.134,11.421,31,11.934Z"/><path d="M11,28.638V57a1,1,0,0,0,1,1H29V16.967c-7.869-.514-10.174-7.065-10.789-9.74L13.162,8.489a.211.211,0,0,0-.126.323C13.936,10.22,15,12.773,15,17a14.581,14.581,0,0,1-3.238,9.648A3.087,3.087,0,0,0,11,28.638ZM18,16h3a1,1,0,0,1,0,2H18a1,1,0,0,1,0-2Zm-1,6h8a1,1,0,0,1,0,2H17a1,1,0,0,1,0-2Zm-3,6H25a1,1,0,0,1,0,2H14a1,1,0,0,1,0-2Zm0,6H25a1,1,0,0,1,0,2H14a1,1,0,0,1,0-2Zm0,6H25a1,1,0,0,1,0,2H14a1,1,0,0,1,0-2Zm0,6H25a1,1,0,0,1,0,2H14a1,1,0,0,1,0-2Zm0,6H25a1,1,0,0,1,0,2H14a1,1,0,0,1,0-2Z"/><path d="M20.039,6.212c.236,1.513,1.7,8.151,8.961,8.726v-3c-5.135-.513-6.978-4.9-7.633-7.943Z"/></svg>
