<svg id="icons" height="512" viewBox="0 0 60 60" width="512" xmlns="http://www.w3.org/2000/svg"><path d="m2.037 48.005c5.276.02 19.387.006 24.291 0l.571-8.514a9.965 9.965 0 0 1 -6.899-9.491v-18h-13.338c-.912 2.326-4.215 12.338-4.625 36.005z"/><path d="m3 52h22.13a1 1 0 0 0 .992-.937l.071-1.063c-3.115.006-9.641.014-15.4.014-3.551 0-6.793 0-8.78-.011 0 .329-.009.648-.011.982a1 1 0 0 0 .998 1.015z"/><path d="m7 9v1h46v-1a1 1 0 0 0 -1-1h-44a1 1 0 0 0 -1 1z"/><path d="m38 12h-16v18a8.036 8.036 0 0 0 6.179 7.8 8.294 8.294 0 0 0 3.643 0 7.97 7.97 0 0 0 6.178-7.8z"/><path d="m57.709 51.7a1 1 0 0 0 .291-.711c0-.335-.008-.654-.011-.984-1.988.008-5.231.011-8.781.011-5.761 0-12.286-.008-15.4-.014l.071 1.061a1 1 0 0 0 .991.937h22.13a.988.988 0 0 0 .709-.3z"/><path d="m40 12v18a9.956 9.956 0 0 1 -6.9 9.513l.572 8.487c4.9.009 19.016.023 24.291 0-.41-23.663-3.713-33.674-4.625-36z"/></svg>