<svg id="icons" height="512" viewBox="0 0 60 60" width="512" xmlns="http://www.w3.org/2000/svg"><path d="m40.028 19.342a21.243 21.243 0 0 0 -1.886-1.671 4.338 4.338 0 0 1 -.569.756 29.113 29.113 0 0 1 5.006 15.478l.376 8.095h3.984l-.467-7.891a22.87 22.87 0 0 0 -6.444-14.767z"/><path d="m37 44h4v14h-4z"/><path d="m35.891 19.51a4.288 4.288 0 0 1 -1.406.263 48.665 48.665 0 0 1 2.285 14.154l.2 8.073h3.977l-.371-8a27.122 27.122 0 0 0 -4.685-14.49z"/><path d="m22.724 13.244a1 1 0 0 1 .667 1.348 2.267 2.267 0 0 0 -.169.852 2.336 2.336 0 0 0 2.334 2.333 2.256 2.256 0 0 0 .853-.169 1.021 1.021 0 0 1 .38-.075 1 1 0 0 1 .966.743 2.323 2.323 0 0 0 4.489 0 1 1 0 0 1 1.347-.668 2.256 2.256 0 0 0 .853.169 2.336 2.336 0 0 0 2.333-2.333 2.256 2.256 0 0 0 -.169-.853 1 1 0 0 1 .668-1.347 2.322 2.322 0 0 0 0-4.488 1 1 0 0 1 -.668-1.347 2.256 2.256 0 0 0 .169-.853 2.336 2.336 0 0 0 -2.333-2.333 2.256 2.256 0 0 0 -.853.169 1 1 0 0 1 -1.347-.668 2.323 2.323 0 0 0 -4.489 0 1 1 0 0 1 -1.346.668 2.256 2.256 0 0 0 -.853-.169 2.336 2.336 0 0 0 -2.334 2.333 2.267 2.267 0 0 0 .169.852 1 1 0 0 1 -.667 1.348 2.322 2.322 0 0 0 0 4.488z"/><path d="m31 21.874v20.126h3.974l-.2-8.024a47.538 47.538 0 0 0 -1.989-13 4.331 4.331 0 0 1 -1.785.898z"/><path d="m43 44h4v14h-4z"/><path d="m56 44h-1v14h1a2 2 0 0 0 2-2v-10a2 2 0 0 0 -2-2z"/><path d="m39.335 14.4a4.3 4.3 0 0 1 -.606.406 4.282 4.282 0 0 1 .048.638c0 .063-.015.121-.018.182a22.841 22.841 0 0 1 2.691 2.31 24.869 24.869 0 0 1 7.018 16.055l.474 8.009h3.993l-.513-8.187a22.853 22.853 0 0 0 -13.087-19.413z"/><path d="m4 58h1v-14h-1a2 2 0 0 0 -2 2v10a2 2 0 0 0 2 2z"/><path d="m49 44h4v14h-4z"/><path d="m31 44h4v14h-4z"/><path d="m13.528 34.108-.467 7.892h3.984l.376-8.1a29.174 29.174 0 0 1 5.007-15.476 4.294 4.294 0 0 1 -.57-.756 21.1 21.1 0 0 0 -1.888 1.672 22.871 22.871 0 0 0 -6.442 14.768z"/><path d="m7.065 42h3.993l.474-8.01a24.867 24.867 0 0 1 7.016-16.052 22.747 22.747 0 0 1 2.693-2.311c0-.062-.019-.12-.019-.183a4.273 4.273 0 0 1 .049-.638 4.327 4.327 0 0 1 -.6-.4 21.9 21.9 0 0 0 -6.024 4.117 23.073 23.073 0 0 0 -7.069 15.29z"/><path d="m19 44h4v14h-4z"/><path d="m19.419 33.995-.371 8.005h3.977l.205-8.075a48.664 48.664 0 0 1 2.284-14.152 4.287 4.287 0 0 1 -1.4-.263 27.141 27.141 0 0 0 -4.695 14.485z"/><path d="m25 44h4v14h-4z"/><path d="m25.229 33.974-.203 8.026h3.974v-20.126a4.319 4.319 0 0 1 -1.781-.895 47.533 47.533 0 0 0 -1.99 12.995z"/><path d="m13 44h4v14h-4z"/><path d="m7 44h4v14h-4z"/></svg>