<?xml version="1.0"?>
<svg xmlns="http://www.w3.org/2000/svg" id="icons" viewBox="0 0 60 60" width="512" height="512"><path d="M19.562,58H29V56H18.28l.311,1.243A1,1,0,0,0,19.562,58Z"/><path d="M29,54V50H17.5a4.243,4.243,0,0,0,0,4Z"/><path d="M41.409,57.242,41.72,56H31v2h9.438A1,1,0,0,0,41.409,57.242Z"/><path d="M29,38H17.5a4.239,4.239,0,0,0,0,4H29Z"/><path d="M17,46a3.839,3.839,0,0,0,.5,2H29V44H17.5A3.846,3.846,0,0,0,17,46Z"/><path d="M17.392,24H29V20H16.638a4.138,4.138,0,0,0-.138,2.043A3.752,3.752,0,0,0,17.392,24Z"/><path d="M9.5,38a4.239,4.239,0,0,0,0,4h5.823a6.316,6.316,0,0,1,0-4Z"/><path d="M13.725,54A2.559,2.559,0,0,0,15,52a6.127,6.127,0,0,1,.325-2H9.5a4.243,4.243,0,0,0,0,4Z"/><path d="M9.5,44a4.239,4.239,0,0,0,0,4h5.823a6.316,6.316,0,0,1,0-4Z"/><path d="M29,26H17.5a4.239,4.239,0,0,0,0,4H29Z"/><path d="M9.5,32a4.239,4.239,0,0,0,0,4h5.823a6.316,6.316,0,0,1,0-4Z"/><path d="M11,58h1.22a1,1,0,0,0,.97-.757L13.5,56H10v1A1,1,0,0,0,11,58Z"/><path d="M42.5,44H31v4H42.5a4.239,4.239,0,0,0,0-4Z"/><path d="M23.686,3.253A10.321,10.321,0,0,0,30,5a10.321,10.321,0,0,0,6.314-1.747A15.715,15.715,0,0,0,30,2,15.715,15.715,0,0,0,23.686,3.253Z"/><path d="M31,10.951A7.924,7.924,0,0,0,37,7.7V5.211a12.157,12.157,0,0,1-6,1.76Z"/><path d="M42.5,32H31v4H42.5a4.239,4.239,0,0,0,0-4Z"/><path d="M29,6.971a12.157,12.157,0,0,1-6-1.76V7.7a7.924,7.924,0,0,0,6,3.254Z"/><path d="M43,52a3.839,3.839,0,0,0-.5-2H31v4H42.5A3.884,3.884,0,0,0,43,52Z"/><path d="M42.5,38H31v4H42.5a4.239,4.239,0,0,0,0-4Z"/><path d="M29,32H17.5a4.239,4.239,0,0,0,0,4H29Z"/><path d="M42.5,26H31v4H42.5a4.239,4.239,0,0,0,0-4Z"/><path d="M43.361,20H31v4H42.61a3.763,3.763,0,0,0,.89-1.958A4.113,4.113,0,0,0,43.361,20Z"/><path d="M50,56H46.5l.311,1.242a1,1,0,0,0,.97.758H49a1,1,0,0,0,1-1Z"/><path d="M51,52a3.839,3.839,0,0,0-.5-2H44.675A6.127,6.127,0,0,1,45,52a2.557,2.557,0,0,0,1.276,2H50.5A3.884,3.884,0,0,0,51,52Z"/><path d="M50.5,38H44.675a6.316,6.316,0,0,1,0,4H50.5a4.239,4.239,0,0,0,0-4Z"/><path d="M12.661,16.284a9.1,9.1,0,0,1-.68-2.415C10.4,15.239,8.3,18.268,9.777,24h5.248a6.409,6.409,0,0,1-.5-1.624,6.07,6.07,0,0,1,.234-3.061A8.413,8.413,0,0,1,12.661,16.284Z"/><path d="M9.5,26a4.239,4.239,0,0,0,0,4h5.823a6.307,6.307,0,0,1,0-4Z"/><path d="M50.5,44H44.675a6.316,6.316,0,0,1,0,4H50.5a4.239,4.239,0,0,0,0-4Z"/><path d="M31,12.963V18H43.7a6.065,6.065,0,0,0,1.8-2.5,6.319,6.319,0,0,0,.581-2.811L38.339,9.245A9.975,9.975,0,0,1,31,12.963Z"/><path d="M44.974,24h5.249c1.48-5.735-.628-8.764-2.2-10.132a9.162,9.162,0,0,1-.681,2.417,8.4,8.4,0,0,1-2.1,3.03,6.067,6.067,0,0,1,.234,3.06A6.376,6.376,0,0,1,44.974,24Z"/><path d="M50.5,32H44.675a6.316,6.316,0,0,1,0,4H50.5a4.239,4.239,0,0,0,0-4Z"/><path d="M50.5,26H44.674a6.307,6.307,0,0,1,0,4H50.5a4.239,4.239,0,0,0,0-4Z"/><path d="M16.305,18H29V12.963a9.975,9.975,0,0,1-7.339-3.718l-7.744,3.442A6.316,6.316,0,0,0,14.5,15.5,6.069,6.069,0,0,0,16.305,18Z"/></svg>
