<svg id="icons" height="512" viewBox="0 0 60 60" width="512" xmlns="http://www.w3.org/2000/svg"><path d="m42 23-2.01-11.564a8.986 8.986 0 0 0 -8.863-7.436h-2.254a8.986 8.986 0 0 0 -8.863 7.436l-2.01 11.564h4.031l1.918-10.869a4.992 4.992 0 0 1 4.924-4.131h2.254a4.992 4.992 0 0 1 4.924 4.131l1.918 10.869z"/><path d="m37 28.816a3 3 0 0 1 -2-2.816v-1h-10v1a3 3 0 0 1 -2 2.816v22.184h14zm-2 5.184a2 2 0 0 1 -2 2h-6a2 2 0 0 1 -2-2v-3a2 2 0 0 1 2-2h6a2 2 0 0 1 2 2z"/><path d="m27 31h6.001v3h-6.001z"/><path d="m51 25h-6v1a3 3 0 0 1 -2 2.816v22.184h14a1 1 0 0 0 1-1v-18a7.009 7.009 0 0 0 -7-7z"/><path d="m3 51h14v-22.184a3 3 0 0 1 -2-2.816v-1h-6a7.009 7.009 0 0 0 -7 7v18a1 1 0 0 0 1 1z"/><path d="m42 53h-39a2.966 2.966 0 0 1 -1-.184v2.184a1 1 0 0 0 1 1h54a1 1 0 0 0 1-1v-2.184a2.966 2.966 0 0 1 -1 .184z"/><path d="m43 26v-1h-6v1a1 1 0 0 0 1 1h4a1 1 0 0 0 1-1z"/><path d="m19 29h2v22h-2z"/><path d="m23 26v-1h-6v1a1 1 0 0 0 1 1h4a1 1 0 0 0 1-1z"/><path d="m39 29h2v22h-2z"/></svg>