<svg id="icons" height="512" viewBox="0 0 60 60" width="512" xmlns="http://www.w3.org/2000/svg"><path d="m42.816 56h-5.632a2.982 2.982 0 0 0 5.632 0z"/><path d="m46 53v-30a5.006 5.006 0 0 0 -5-5h-22a5.006 5.006 0 0 0 -5 5v30a1 1 0 0 0 1 1h30a1 1 0 0 0 1-1zm-23-5a3 3 0 0 1 -6 0v-24a3 3 0 0 1 6 0zm10 0a3 3 0 0 1 -6 0v-24a3 3 0 0 1 6 0zm10 0a3 3 0 0 1 -6 0v-24a3 3 0 0 1 6 0z"/><path d="m22.816 56h-5.632a2.982 2.982 0 0 0 5.632 0z"/><path d="m22 7h3v9h-3z"/><rect height="3" rx="1" width="18" x="21" y="2"/><path d="m35 7h3v9h-3z"/><path d="m20 23a1 1 0 0 0 -1 1v24a1 1 0 0 0 2 0v-24a1 1 0 0 0 -1-1z"/><path d="m30 23a1 1 0 0 0 -1 1v24a1 1 0 0 0 2 0v-24a1 1 0 0 0 -1-1z"/><path d="m40 23a1 1 0 0 0 -1 1v24a1 1 0 0 0 2 0v-24a1 1 0 0 0 -1-1z"/></svg>