<?xml version="1.0"?>
<svg xmlns="http://www.w3.org/2000/svg" id="icons" viewBox="0 0 60 60" width="512" height="512"><path d="M46,43.838V17.357A11.666,11.666,0,0,1,44.017,10.7a11.4,11.4,0,0,1-6.332-6A8.553,8.553,0,0,1,30,9a8.553,8.553,0,0,1-7.685-4.3,11.4,11.4,0,0,1-6.332,6A11.666,11.666,0,0,1,14,17.357V43.838a1,1,0,0,0,.471.855A33.037,33.037,0,0,1,23,52.808,3.982,3.982,0,0,1,25.4,52h9.2a3.98,3.98,0,0,1,2.4.808,33.043,33.043,0,0,1,8.528-8.114A1,1,0,0,0,46,43.838Z"/><path d="M36.132,54.721A2,2,0,0,0,34.6,54H25.4a2,2,0,0,0-1.533.723L21.133,58H38.867Z"/><path d="M17.542,49.649l1.926,7.225L21.619,54.3A34.181,34.181,0,0,0,17.542,49.649Z"/><path d="M42.458,49.649A34.228,34.228,0,0,0,38.381,54.3l2.151,2.579Z"/><path d="M12.621,4.16,5.665,6.3a1.007,1.007,0,0,0-.629,1.214l2.1,7.709a1,1,0,0,0,.965.734h4.446A10.636,10.636,0,0,0,14,10,10.843,10.843,0,0,0,12.621,4.16Z"/><path d="M51.9,15.957a1.006,1.006,0,0,0,.966-.737l2.1-7.706a1.013,1.013,0,0,0-.654-1.223L47.378,4.163A10.847,10.847,0,0,0,46,10a10.62,10.62,0,0,0,1.456,5.957Z"/><path d="M36.422,2.8A17.96,17.96,0,0,1,30,3.941a18.022,18.022,0,0,1-6.409-1.135A6.634,6.634,0,0,0,30,7,6.615,6.615,0,0,0,36.422,2.8Z"/><path d="M44.062,8.542A12.623,12.623,0,0,1,45.368,3.65L39.09,2.212A8.5,8.5,0,0,0,44.062,8.542Z"/><path d="M20.912,2.206l-6.28,1.445a12.611,12.611,0,0,1,1.307,4.9A8.413,8.413,0,0,0,20.912,2.206Z"/></svg>
