<?xml version="1.0"?>
<svg xmlns="http://www.w3.org/2000/svg" id="icons" viewBox="0 0 60 60" width="512" height="512"><path d="M44,11c-1.434,0-2.8.061-4.073.178L43.58,28.6,49.611,11.7A20.9,20.9,0,0,0,44,11Z"/><path d="M44,52a1,1,0,0,0,1,1H56a1,1,0,0,0,1-1V43.54a66.6,66.6,0,0,0-13,3.3Z"/><path d="M58,39.118c-3.194.395-11.3,1.652-17.553,4.777-1.924.961-3.521,1.879-4.93,2.689C31.055,49.147,27.83,51,20,51c-9.455,0-15.332-2.591-17.994-4.135L2,48.656C2.635,49.374,6.531,53,20,53c7.955,0,10.851-1.615,15.232-4.061,1.527-.851,3.256-1.816,5.42-2.842.631-.3,1.281-.579,1.939-.845l.044-.018a69.445,69.445,0,0,1,15.373-3.868H58Z"/><path d="M56.8,37.26A12.785,12.785,0,0,0,58,32a17.394,17.394,0,0,0-1.34-6A22.551,22.551,0,0,1,55,18a19.51,19.51,0,0,1,1.569-7.607,1,1,0,0,0-.918-1.4L52.7,9,44.365,32.344l1.526,7.28A71.448,71.448,0,0,1,56.8,37.26Z"/><path d="M34.521,44.85c1.432-.824,3.056-1.757,5.032-2.745a38.463,38.463,0,0,1,4.428-1.848L37.172,7.782,31.96,7.13a1,1,0,0,0-1.115.915c-.939,11.15-4.323,19.793-10.063,25.707a27.241,27.241,0,0,1-4.342,3.632c1.653,1.467,4.278,4.86,4.526,11.6C27.554,48.843,30.369,47.234,34.521,44.85Z"/><path d="M14.649,38.493a27.562,27.562,0,0,1-8.373,3.07,4,4,0,0,0-3.248,3.583c2.4,1.387,7.586,3.66,15.94,3.837C18.7,42.105,15.773,39.311,14.649,38.493Z"/></svg>
