<svg id="icons" height="512" viewBox="0 0 60 60" width="512" xmlns="http://www.w3.org/2000/svg"><path d="m21.215 6.2a9.59 9.59 0 0 0 5.409 4.8l1.809-2.528a8.871 8.871 0 0 1 -4.962-4.53z"/><path d="m17.994 30.262v.057.682 25.999a1 1 0 0 0 1 1h10.006v-46.913l-.79 1.091a1.989 1.989 0 0 1 -1.6.825 1.929 1.929 0 0 1 -.632-.107 11.543 11.543 0 0 1 -6.441-5.6l-6.407 2.854c2.063 1.928 4.77 6.97 4.864 20.112z"/><path d="m48.458 11.436c-1.377 1.161-4.332 5.231-4.451 18.727 2.836 7.493 4.433 17.78 4.866 20.837h5.127c-.109-24.1-4.137-35.612-5.473-39.429-.019-.047-.048-.089-.069-.135z"/><path d="m54 53h-5v2a1 1 0 0 0 1 1h3a1 1 0 0 0 1-1z"/><path d="m6 55a1 1 0 0 0 1 1h3a1 1 0 0 0 1-1v-2h-5z"/><path d="m11.127 51c.433-3.057 2.03-13.344 4.866-20.837-.119-13.493-3.073-17.563-4.45-18.726-.023.049-.054.094-.073.146-1.331 3.805-5.359 15.317-5.47 39.417z"/><path d="m25.12 2.65c.294 1.019 1.326 3 4.88 4.285 3.548-1.279 4.583-3.26 4.878-4.286a16.324 16.324 0 0 0 -4.878-.649 16.291 16.291 0 0 0 -4.88.65z"/><path d="m34.005 12.9a1.862 1.862 0 0 1 -.618.105 1.985 1.985 0 0 1 -1.593-.821l-.794-1.097v46.913h10a1 1 0 0 0 1-1v-26c0-.233 0-.454.005-.682 0-.02 0-.038 0-.057.1-13.142 2.8-18.184 4.864-20.112l-6.408-2.849a11.545 11.545 0 0 1 -6.456 5.6zm.995 41.1a1 1 0 0 1 -2 0v-1a1 1 0 0 1 2 0zm0-5a1 1 0 0 1 -2 0v-1a1 1 0 0 1 2 0zm0-5a1 1 0 0 1 -2 0v-1a1 1 0 0 1 2 0zm0-5a1 1 0 0 1 -2 0v-1a1 1 0 0 1 2 0zm0-5a1 1 0 1 1 -2 0v-1a1 1 0 0 1 2 0zm0-5a1 1 0 1 1 -2 0v-1a1 1 0 0 1 2 0zm0-5a1 1 0 1 1 -2 0v-1a1 1 0 0 1 2 0zm0-5a1 1 0 1 1 -2 0v-1a1 1 0 0 1 2 0z"/><path d="m31.574 8.471 1.835 2.529a9.66 9.66 0 0 0 5.376-4.8l-2.256-2.256a8.87 8.87 0 0 1 -4.955 4.527z"/></svg>