<?xml version="1.0"?>
<svg xmlns="http://www.w3.org/2000/svg" id="icons" viewBox="0 0 60 60" width="512" height="512"><path d="M50.959,2.019A63.311,63.311,0,0,0,42,2.8V44.836a3.9,3.9,0,0,0,1.664-.95A4.369,4.369,0,0,0,45,40.76V29a3,3,0,0,1,3-3h1.227c.306-1.266.968-4.219,1.794-9.168a109.35,109.35,0,0,0,.964-13.8A1,1,0,0,0,50.959,2.019Z"/><path d="M52,51.32h-.015C47.9,52.422,33.652,56,20.9,56c-6.533,0-10.564-1.542-12.385-2.461L8,55.531v.005C9.347,56.267,13.256,58,20.191,58c13.53,0,28.874-3.967,31.814-4.762Z"/><path d="M14.12,49a4.269,4.269,0,0,0-4.083,3.046A26.7,26.7,0,0,0,20.9,54c12.022,0,25.453-3.256,30.055-4.474a49.384,49.384,0,0,0-.473-5A43.115,43.115,0,0,1,50,38V28H48a1,1,0,0,0-1,1V40.76a6.381,6.381,0,0,1-1.946,4.565A5.805,5.805,0,0,1,41.021,47c-.008,0-.014,0-.021,0s-.012,0-.018,0c-.066,0-.131.006-.2,0A5.989,5.989,0,0,1,35,41V28a1,1,0,0,0-1-1H32v5A17.019,17.019,0,0,1,15,49Z"/><path d="M38.171,43.837A4.033,4.033,0,0,0,40,44.866V2.8a40.93,40.93,0,0,0-5.956-.743,1,1,0,0,0-1.05,1L33,25h1a3,3,0,0,1,3,3V41A4.014,4.014,0,0,0,38.171,43.837Z"/><path d="M50,58a1,1,0,0,0,1-1V55.57c-2.2.565-5.6,1.38-9.668,2.158A.971.971,0,0,0,42,58Z"/></svg>
