<?xml version="1.0"?>
<svg xmlns="http://www.w3.org/2000/svg" id="icons" viewBox="0 0 60 60" width="512" height="512"><path d="M24.79,1.02l-1.97.35a.988.988,0,0,0-.8,1.16l1.65,9.23c.06-.37.11-.75.16-1.13A2.994,2.994,0,0,1,26.8,8h.25l-1.1-6.18A.988.988,0,0,0,24.79,1.02Z"/><path d="M36.17,10.65c.05.38.1.75.16,1.11l1.65-9.23a.988.988,0,0,0-.8-1.16l-1.97-.35a.988.988,0,0,0-1.16.8L32.95,8h.25A2.994,2.994,0,0,1,36.17,10.65Z"/><path d="M19.326,30H21a2,2,0,0,0,2-2V27H19.8C19.684,27.584,19.515,28.554,19.326,30Z"/><path d="M25.813,10.879a30.976,30.976,0,0,1-.7,3.738c0,.017-.007.033-.011.049A15.188,15.188,0,0,1,22.084,21H37.916A15.192,15.192,0,0,1,34.9,14.664l-.01-.045a30.875,30.875,0,0,1-.7-3.732A1,1,0,0,0,33.2,10H26.8A1,1,0,0,0,25.813,10.879ZM29.354,12h1.293a2.011,2.011,0,0,1,1.96,1.623,28.289,28.289,0,0,0,.7,2.8A1.992,1.992,0,0,1,31.4,19H28.6a1.992,1.992,0,0,1-1.909-2.582h0a27.914,27.914,0,0,0,.7-2.794A2.011,2.011,0,0,1,29.354,12Z"/><path d="M18,56.99a1,1,0,0,0,.293.715A.987.987,0,0,0,19,58h5.01a1,1,0,0,0,1-.989c.2-17.874,3.147-23.938,3.99-25.313V27H25v1a4,4,0,0,1-4,4h-1.91A248.69,248.69,0,0,0,18,56.99Z"/><path d="M30.646,14.015,29.354,14a28.822,28.822,0,0,1-.753,3.01v0L31.4,17A28.884,28.884,0,0,1,30.646,14.015Z"/><path d="M20,23.243V25H40V23.243A.908.908,0,0,0,39.966,23H20.034A.908.908,0,0,0,20,23.243Z"/><path d="M37,28a2,2,0,0,0,2,2h1.671c-.189-1.446-.358-2.415-.475-3H37Z"/><path d="M35.989,58H41a.987.987,0,0,0,.708-.3A1,1,0,0,0,42,56.991,248.323,248.323,0,0,0,40.912,32H39a4,4,0,0,1-4-4V27H31v4.7c.843,1.375,3.788,7.439,3.99,25.313A1,1,0,0,0,35.989,58Z"/></svg>
