<svg id="icons" height="512" viewBox="0 0 60 60" width="512" xmlns="http://www.w3.org/2000/svg"><path d="m7.66 18h4.34v-1.09c0-.668-.03-1.3-.08-1.91h-3.62c-.219.933-.433 1.942-.64 3z"/><path d="m6.055 32h5.945v-3h-5.787c-.068.979-.123 1.976-.158 3z"/><path d="m12 43h-5.866c.04 1.111.087 2.106.138 3h5.728z"/><path d="m8 58h4v-4h-5v3a1 1 0 0 0 1 1z"/><path d="m12 52v-4h-5.6c.154 2.014.318 3.284.43 4z"/><path d="m23.147 2.238-11.657 4.172a20.346 20.346 0 0 1 2.2 6.59h32.62a20.306 20.306 0 0 1 2.2-6.589l-11.657-4.173a6.589 6.589 0 0 1 -6.853 5.762 6.589 6.589 0 0 1 -6.853-5.762z"/><path d="m6.369 27h5.631v-7h-4.708c-.37 2.142-.692 4.482-.923 7z"/><path d="m8.8 13h2.867a18.575 18.575 0 0 0 -1.47-4.724c-.387 1.132-.882 2.724-1.397 4.724z"/><path d="m6 34.955c0 2.28.029 4.272.073 6.045h5.927v-7h-5.985c-.004.32-.015.632-.015.955z"/><path d="m53.6 48h-5.6v4h5.166c.112-.716.276-1.986.434-4z"/><path d="m53 57v-3h-5v4h4a1 1 0 0 0 1-1z"/><path d="m53.866 43h-5.866v3h5.728c.051-.894.098-1.889.138-3z"/><path d="m48.338 13h2.867c-.52-2-1.015-3.591-1.4-4.723a18.552 18.552 0 0 0 -1.467 4.723z"/><path d="m48 16.91v1.09h4.34c-.207-1.058-.422-2.067-.639-3h-3.621c-.05.608-.08 1.242-.08 1.91z"/><path d="m48 27h5.631c-.231-2.518-.553-4.858-.923-7h-4.708z"/><path d="m48 32h5.945c-.035-1.024-.09-2.021-.158-3h-5.787z"/><path d="m54 34.955c0-.323-.011-.635-.015-.955h-5.985v7h5.927c.044-1.773.073-3.765.073-6.045z"/><path d="m46 16.91c0-.664.029-1.3.076-1.91h-32.152c.047.612.076 1.246.076 1.91v1.09h32z"/><path d="m14 29h32v3h-32z"/><path d="m14 20h32v7h-32z"/><path d="m14 34h32v7h-32z"/><path d="m14 43h32v3h-32z"/><path d="m14 54h32v4h-32z"/><path d="m30 6a4.529 4.529 0 0 0 4.78-3.647 17.072 17.072 0 0 1 -4.78.647 17.072 17.072 0 0 1 -4.78-.647 4.529 4.529 0 0 0 4.78 3.647z"/><path d="m14 48h32v4h-32z"/></svg>