<?xml version="1.0"?>
<svg xmlns="http://www.w3.org/2000/svg" id="icons" viewBox="0 0 60 60" width="512" height="512"><path d="M34,56h6a1,1,0,0,0,1-1V53a1,1,0,0,0-1-1H33v2.278A1.993,1.993,0,0,1,34,56Z"/><path d="M20,56h6a1.993,1.993,0,0,1,1-1.722V52H20a1,1,0,0,0-1,1v2A1,1,0,0,0,20,56Z"/><path d="M29,58h2a1,1,0,0,0,1-1V56H28v1A1,1,0,0,0,29,58Z"/><rect x="29" y="51" width="2" height="3"/><path d="M29,49V47H27a1,1,0,0,1,0-2h2V43H27a1,1,0,0,1,0-2h2V39H27a1,1,0,0,1,0-2h2V35H27a1,1,0,0,1,0-2h2V31H27.021a1,1,0,0,1,0-2H29V28a3,3,0,0,1-3-3V18.858A4,4,0,0,1,23,15V13a4,4,0,0,1,2.579-3.727c-.169-.423-.315-.848-.45-1.273H27a1,1,0,0,0,0-2H24.6c-.154-.708-.268-1.38-.353-2H26a1,1,0,0,0,0-2H24.039V1.991L16,2c.086,1.873.565,8.321,3.089,12.39A6,6,0,0,1,20,17.555V50h7.278A1.993,1.993,0,0,1,29,49Z"/><path d="M25,13v2a2,2,0,0,0,1.256,1.853A2.962,2.962,0,0,1,27,15.786V12a2.966,2.966,0,0,1,.184-1H27A2,2,0,0,0,25,13Z"/><path d="M28,18.22V25a1,1,0,0,0,1,1h2a1,1,0,0,0,1-1V18.22a2.954,2.954,0,0,1-4,0Z"/><path d="M30,11a1,1,0,0,0-1,1v4a1,1,0,0,0,2,0V12A1,1,0,0,0,30,11Z"/><path d="M32.722,50H40V17.555a6,6,0,0,1,.912-3.165c2.525-4.069,3-10.517,3.089-12.4L35.96,2H34a1,1,0,0,0,0,2h1.758c-.085.619-.2,1.292-.353,2H33a1,1,0,0,0,0,2h1.871c-.135.425-.281.85-.45,1.273A4,4,0,0,1,37,13v2a4,4,0,0,1-3,3.858V25a3,3,0,0,1-3,3v1.894a.9.9,0,0,1,.021.106H33a1,1,0,0,1,0,2H31v2h2a1,1,0,0,1,0,2H31v2h2a1,1,0,0,1,0,2H31v2h2a1,1,0,0,1,0,2H31v2h2a1,1,0,0,1,0,2H31v1A1.993,1.993,0,0,1,32.722,50Z"/><path d="M33.744,16.853A2,2,0,0,0,35,15V13a2,2,0,0,0-2-2h-.184A2.966,2.966,0,0,1,33,12v3.785A2.966,2.966,0,0,1,33.744,16.853Z"/></svg>
