<svg id="icons" height="512" viewBox="0 0 60 60" width="512" xmlns="http://www.w3.org/2000/svg"><path d="m41.04 5.316a5.967 5.967 0 0 0 -5.366-3.316h-4.674v3a1 1 0 0 1 -2 0v-3h-4.674a5.967 5.967 0 0 0 -5.366 3.316l-1.342 2.684h24.764z"/><path d="m44 57.35a1 1 0 0 0 2 0v-2.45a5 5 0 0 0 1 .1 1 1 0 0 0 1-1v-26h-6v22a4.979 4.979 0 0 0 2 3.978v.022z"/><path d="m50 24v-9a5.006 5.006 0 0 0 -5-5h-30a5.006 5.006 0 0 0 -5 5v9a2 2 0 0 0 2 2h36a2 2 0 0 0 2-2zm-27-11h3a1 1 0 0 1 0 2h-3a1 1 0 0 1 0-2zm-9-1h3a1 1 0 0 1 0 2h-3a1 1 0 0 1 0-2zm3 12h-3a1 1 0 0 1 0-2h3a1 1 0 0 1 0 2zm3-5h-3a1 1 0 0 1 0-2h3a1 1 0 0 1 0 2zm6 4h-3a1 1 0 0 1 0-2h3a1 1 0 0 1 0 2zm5-4h-3a1 1 0 0 1 0-2h3a1 1 0 0 1 0 2zm6 4h-3a1 1 0 0 1 0-2h3a1 1 0 0 1 0 2zm0-8h-3a1 1 0 0 1 0-2h3a1 1 0 0 1 0 2zm2 3a1 1 0 0 1 1-1h3a1 1 0 0 1 0 2h-3a1 1 0 0 1 -1-1zm7 6h-3a1 1 0 0 1 0-2h3a1 1 0 0 1 0 2zm0-10h-3a1 1 0 0 1 0-2h3a1 1 0 0 1 0 2z"/><path d="m30 37a30.715 30.715 0 0 1 10 1.526v-10.526h-20v10.526a30.715 30.715 0 0 1 10-1.526z"/><path d="m18 50v-22h-6v26a1 1 0 0 0 1 1 5 5 0 0 0 1-.1v2.45a1 1 0 0 0 2 0v-3.35c0-.008 0-.014 0-.022a4.979 4.979 0 0 0 2-3.978z"/></svg>