<svg id="icons" height="512" viewBox="0 0 60 60" width="512" xmlns="http://www.w3.org/2000/svg"><circle cx="40" cy="57" r="1"/><circle cx="20" cy="57" r="1"/><path d="m29 41.98v8.02h2v-8.02c-.331.008-.658.02-1 .02s-.669-.012-1-.02z"/><path d="m31.994 2h-3.988a1 1 0 0 0 -1 1v.278a2 2 0 0 1 -1.371 1.9l-5.357 1.78a1.864 1.864 0 0 0 -1.12 2.516l3.013 6.868a3.072 3.072 0 0 0 4.861-1.594 1 1 0 1 1 1.936.5 4.995 4.995 0 0 1 -5.661 3.68l.51 1.165a4.963 4.963 0 0 1 -1.047 5.542 6.02 6.02 0 0 0 -1.782 4.29v7.965a1 1 0 0 0 .6.918 24.737 24.737 0 0 0 8.412 1.192 24.737 24.737 0 0 0 8.412-1.192 1 1 0 0 0 .6-.918v-7.961a6.02 6.02 0 0 0 -1.782-4.29 4.963 4.963 0 0 1 -1.047-5.539l.51-1.165a4.995 4.995 0 0 1 -5.661-3.68 1 1 0 0 1 1.936-.5 3.072 3.072 0 0 0 4.861 1.594l3.013-6.868a1.864 1.864 0 0 0 -1.12-2.516l-5.356-1.788a2 2 0 0 1 -1.366-1.899v-.278a1 1 0 0 0 -1.006-1z"/><path d="m17 53a1 1 0 0 0 1 1h24a1 1 0 0 0 0-2h-24a1 1 0 0 0 -1 1z"/></svg>