<svg id="icons" height="512" viewBox="0 0 60 60" width="512" xmlns="http://www.w3.org/2000/svg"><circle cx="30" cy="48" r="2"/><path d="m31.847 10h-3.694a2.99 2.99 0 0 0 -2.917 2.3l-1.129 4.7h11.786l-1.129-4.7a2.99 2.99 0 0 0 -2.917-2.3z"/><path d="m22.426 24h15.148l-1.201-5h-12.746z"/><path d="m4.891 35.145a8.213 8.213 0 0 0 6.066 3.355c3.45.227 9.558.5 19.043.5s15.593-.271 19.046-.5a8.211 8.211 0 0 0 6.063-3.357c-4.132.857-11.809 1.857-25.109 1.857s-20.977-1-25.109-1.855z"/><path d="m2.351 30.393 1.218 2.394c3.371.876 11.031 2.213 26.431 2.213s23.06-1.337 26.432-2.213l1.219-2.395a153.96 153.96 0 0 1 -27.651 2.608 154.111 154.111 0 0 1 -27.649-2.607z"/><path d="m39.181 30.692-1.127-4.692h-16.108l-1.127 4.692c2.889.189 5.981.308 9.181.308s6.292-.119 9.181-.308z"/><path d="m54.049 29c-3.315-.543-8.053-1.2-13.6-1.606l.758 3.154c5.232-.413 9.693-1.033 12.842-1.548z"/><path d="m18.8 30.547.758-3.154c-5.552.407-10.288 1.063-13.602 1.607 3.144.515 7.608 1.135 12.844 1.547z"/><path d="m16.97 40.8c-1.05-.04-2.01-.07-2.87-.11a24.184 24.184 0 0 0 11.91 7.46.757.757 0 0 1 -.01-.15 3.966 3.966 0 0 1 .44-1.81 22.377 22.377 0 0 1 -9.47-5.39z"/><path d="m45.9 40.69c-.86.04-1.82.07-2.87.11h-.01a22.185 22.185 0 0 1 -9.46 5.39 3.966 3.966 0 0 1 .44 1.81.757.757 0 0 1 -.01.15 24.184 24.184 0 0 0 11.91-7.46z"/></svg>