<svg id="icons" height="512" viewBox="0 0 60 60" width="512" xmlns="http://www.w3.org/2000/svg"><path d="m42 43v-8h-2v7a1 1 0 0 0 1 1z"/><path d="m5 43h1v-8h-2v7a1 1 0 0 0 1 1z"/><path d="m8 35h3v8h-3z"/><path d="m13 35h3v8h-3z"/><circle cx="30" cy="56" r="2"/><path d="m20 42v-7h-2v8h1a1 1 0 0 0 1-1z"/><path d="m3.677 33h16.639l6.142-15.792a1 1 0 0 0 -.42-1.219l-1.7-1.021a.981.981 0 0 0 -.787-.105 1.01 1.01 0 0 0 -.626.52l-1.925 3.852v4.765a1 1 0 0 1 -2 0v-13.5a8.445 8.445 0 0 0 -2.487-6.013 8.536 8.536 0 0 0 -6.651-2.465 8.685 8.685 0 0 0 -7.862 8.77v14.356a18.909 18.909 0 0 0 1.359 7.057z"/><path d="m44 35h3v8h-3z"/><path d="m49 35h3v8h-3z"/><path d="m56 42v-7h-2v8h1a1 1 0 0 0 1-1z"/><path d="m50.138 2.022a8.5 8.5 0 0 0 -9.138 8.478v13.5a1 1 0 0 1 -2 0v-4.765l-1.925-3.859a1.008 1.008 0 0 0 -.623-.513.983.983 0 0 0 -.787.105l-1.7 1.019a1 1 0 0 0 -.421 1.224l6.14 15.789h16.639l.318-.8a18.909 18.909 0 0 0 1.359-7.052v-14.356a8.685 8.685 0 0 0 -7.862-8.77z"/><path d="m26.13 56.98a3.514 3.514 0 0 1 -.13-.98 3.863 3.863 0 0 1 .14-1.02c-10.69-.35-12.69-7.33-13.06-9.98h-1.99c.39 2.98 2.61 11.6 15.04 11.98z"/><path d="m34 56a3.514 3.514 0 0 1 -.13.98c12.43-.38 14.65-9 15.04-11.98h-1.99c-.37 2.65-2.37 9.63-13.06 9.98a3.863 3.863 0 0 1 .14 1.02z"/></svg>