<?xml version="1.0"?>
<svg xmlns="http://www.w3.org/2000/svg" id="icons" viewBox="0 0 60 60" width="512" height="512"><path d="M49.42,25.375a11.157,11.157,0,0,1-6.172-10.353A21.917,21.917,0,0,1,45.1,5.514a.994.994,0,0,0-.615-1.387L38.034,2.2c-.364,4.065-1.83,15.425-7.177,23.1a21.027,21.027,0,0,1-2.318,2.819A2.008,2.008,0,0,0,28,29.528V50.122a2.019,2.019,0,0,0,.595,1.432l2.147,2.137-.013.014L34.755,57.7a1.042,1.042,0,0,0,1.2.193l11.814-5.859a1.031,1.031,0,0,0,.568-.919c.052-14.955,1.05-21.852,1.64-24.633A1.015,1.015,0,0,0,49.42,25.375ZM32,48a1,1,0,0,1-2,0V47a1,1,0,0,1,2,0Zm0-5a1,1,0,0,1-2,0V42a1,1,0,0,1,2,0Zm0-5a1,1,0,0,1-2,0V37a1,1,0,0,1,2,0Zm0-5a1,1,0,0,1-2,0V32a1,1,0,0,1,2,0Z"/><path d="M25.244,57.7,28.6,54.376l-1.41-1.4A4.021,4.021,0,0,1,26,50.121V29.528a3.969,3.969,0,0,1,1.114-2.812,18.765,18.765,0,0,0,1.681-2c-5.059-7.69-6.48-18.771-6.826-22.491l-6.446,1.9A1,1,0,0,0,14.9,5.51a22.022,22.022,0,0,1,1.848,9.512A11.157,11.157,0,0,1,10.58,25.375a1.015,1.015,0,0,0-.559,1.105c.59,2.781,1.588,9.678,1.64,24.633a1.031,1.031,0,0,0,.568.919l11.818,5.861A1.042,1.042,0,0,0,25.244,57.7Z"/><path d="M35.966,2.768A14.249,14.249,0,0,1,30,3.908a14.228,14.228,0,0,1-5.968-1.141c.419,3.987,1.807,13.317,5.988,20.147C34.153,16.126,35.544,6.752,35.966,2.768Z"/></svg>
