<?xml version="1.0"?>
<svg xmlns="http://www.w3.org/2000/svg" id="icons" viewBox="0 0 60 60" width="512" height="512"><path d="M6,11.847l5.145-.735a3.748,3.748,0,0,1,.169-.509,16.241,16.241,0,0,1,1.739-3.055L6.819,8.684A1,1,0,0,0,6,9.67Z"/><path d="M41.972,9.3c.006-.1.028-.2.028-.3,0-3.534-4.77-6.555-10.681-6.953C30.884,2.027,30.458,2,30,2s-.884.027-1.319.047C22.77,2.445,18,5.466,18,9c0,.1.022.2.028.3C20.5,6.663,24.985,5,30,5S39.5,6.663,41.972,9.3Z"/><path d="M6,57a1,1,0,0,0,1,1H25V28.979l-6.694,2.555a2.029,2.029,0,0,1-1.636-.089,2.005,2.005,0,0,1-1.024-1.268l-4.511-17.01c0-.011,0-.021-.006-.032L6,13.868Z"/><path d="M13.15,11.4a1.94,1.94,0,0,0-.082,1.259l4.511,17.009,10.44-3.979C24.591,22.827,16,15.059,16,9a6.215,6.215,0,0,1,.454-2.283A14.561,14.561,0,0,0,13.15,11.4Z"/><path d="M46.932,12.655A1.936,1.936,0,0,0,46.85,11.4a14.553,14.553,0,0,0-3.3-4.68A6.215,6.215,0,0,1,44,9c0,6.06-8.592,13.828-12.019,16.685l10.426,3.98Z"/><path d="M54,57V13.868l-5.129-.733c0,.011,0,.021-.006.032L44.354,30.176a2.012,2.012,0,0,1-2.66,1.358L30,27.07l-3,1.145V58H53A1,1,0,0,0,54,57ZM31,53a1,1,0,0,1-2,0V51a1,1,0,0,1,2,0Zm0-9a1,1,0,0,1-2,0V42a1,1,0,0,1,2,0Zm0-9a1,1,0,0,1-2,0V33a1,1,0,0,1,2,0Z"/><path d="M54,9.67a1,1,0,0,0-.815-.985L46.947,7.548A16.25,16.25,0,0,1,48.686,10.6a3.735,3.735,0,0,1,.169.508L54,11.847Z"/><path d="M41.338,11.767C39.679,8.943,35.115,7,30,7s-9.679,1.943-11.338,4.767c2,4.738,8.146,10.4,11.338,12.961C33.192,22.165,39.335,16.505,41.338,11.767Z"/></svg>
