<?xml version="1.0"?>
<svg xmlns="http://www.w3.org/2000/svg" id="icons" viewBox="0 0 60 60" width="512" height="512"><path d="M5.044,55.974l.445,1.34A1.01,1.01,0,0,0,6.44,58H9a1,1,0,0,0,1-1V56H5.3C5.213,56,5.131,55.978,5.044,55.974Z"/><path d="M11.2,54a2.1,2.1,0,0,0,1.823-1.058L16,47.735V22A16.146,16.146,0,0,1,22.625,8.931a7.3,7.3,0,0,1-2.159-2.546l-1.314.657a8.943,8.943,0,0,0-4.513,5.2L2.169,49.654A3.3,3.3,0,0,0,5.3,54Z"/><path d="M50,56v1a1,1,0,0,0,1,1h2.56a1.014,1.014,0,0,0,.954-.693l.442-1.333c-.087,0-.169.026-.258.026Z"/><path d="M45.361,12.246a8.943,8.943,0,0,0-4.513-5.2l-1.314-.657a7.3,7.3,0,0,1-2.159,2.546A16.146,16.146,0,0,1,44,22V47.735l2.976,5.207A2.1,2.1,0,0,0,48.8,54h5.9a3.3,3.3,0,0,0,3.133-4.346Z"/><path d="M35.473,10.017A13.888,13.888,0,0,1,30,11a13.888,13.888,0,0,1-5.473-.983A14.387,14.387,0,0,0,18,22V49a1,1,0,0,0,1,1H41a1,1,0,0,0,1-1V22A14.387,14.387,0,0,0,35.473,10.017Z"/><path d="M39.409,53.242,39.72,52H20.28l.311,1.243a1,1,0,0,0,.971.757H38.438A1,1,0,0,0,39.409,53.242Z"/><path d="M36.471,3.294A7.986,7.986,0,0,1,30,6a7.986,7.986,0,0,1-6.471-2.706l-1.42,1.894C22.525,6.224,24.181,9,30,9s7.47-2.768,7.89-3.813Z"/><path d="M34.941,2H25.059A6.018,6.018,0,0,0,30,4,6.018,6.018,0,0,0,34.941,2Z"/></svg>
