<?xml version="1.0"?>
<svg xmlns="http://www.w3.org/2000/svg" id="icons" viewBox="0 0 60 60" width="512" height="512"><path d="M6.329,6.505A13.511,13.511,0,0,0,3.018,15.9a65.559,65.559,0,0,1,22.936-4.861,9.988,9.988,0,0,0-2.837-6.113A9.639,9.639,0,0,0,16.18,2,13.074,13.074,0,0,0,6.329,6.505Z"/><path d="M18.26,58A7.825,7.825,0,0,0,26,50.11V32.051A47.114,47.114,0,0,0,7.384,36.773l3.323,15.072A7.735,7.735,0,0,0,18.26,58Z"/><path d="M34,32.051V50.11A7.825,7.825,0,0,0,41.74,58a7.735,7.735,0,0,0,7.553-6.156l3.323-15.071A47.114,47.114,0,0,0,34,32.051Z"/><path d="M53.671,6.505A13.074,13.074,0,0,0,43.82,2a9.641,9.641,0,0,0-6.936,2.92,9.994,9.994,0,0,0-2.838,6.115A65.559,65.559,0,0,1,56.982,15.9,13.511,13.511,0,0,0,53.671,6.505Z"/><path d="M54.679,34.236l3.156-14.919a1,1,0,0,0-.558-1.115A62.681,62.681,0,0,0,34.04,13.025a1.006,1.006,0,0,0-1.033,1L33,29.049a1,1,0,0,0,.968.994c8.111.332,16.4,3.626,19.338,4.905A1,1,0,0,0,54.679,34.236ZM36.065,15.125a61.583,61.583,0,0,1,18.873,4.248,1,1,0,1,1-.755,1.852,59.527,59.527,0,0,0-18.248-4.1,1,1,0,0,1,.13-2ZM53.193,31.506a1,1,0,0,1-1.31.531,51.948,51.948,0,0,0-15.961-3.885,1,1,0,1,1,.156-1.994A54,54,0,0,1,52.662,30.2,1,1,0,0,1,53.193,31.506Z"/><path d="M2.159,19.321,5.311,34.174a1,1,0,0,0,1.414.691,49.3,49.3,0,0,1,19.294-4.826,1,1,0,0,0,.967-.993L27,14.035a1,1,0,0,0-1.032-1.005A62.59,62.59,0,0,0,2.715,18.207.993.993,0,0,0,2.159,19.321Zm21.919,8.831A51.948,51.948,0,0,0,8.117,32.037,1,1,0,0,1,7.338,30.2a54,54,0,0,1,16.584-4.037,1,1,0,1,1,.156,1.994ZM5.062,19.373a61.583,61.583,0,0,1,18.873-4.248,1,1,0,1,1,.13,2,59.527,59.527,0,0,0-18.248,4.1,1,1,0,0,1-.755-1.852Z"/></svg>
