<?xml version="1.0"?>
<svg xmlns="http://www.w3.org/2000/svg" id="icons" viewBox="0 0 60 60" width="512" height="512"><path d="M14.526,48.927c.006.005.008.012.014.017l3.085,2.469c0,.005.012.005.018.01l.01.013.243.194c3.385-3.7,6.631-7.559,9.674-11.469q-1.236-1.724-2.4-3.4c-3.383,4.2-6.967,8.283-10.684,12.139l.011.009C14.509,48.919,14.519,48.92,14.526,48.927Z"/><path d="M45.463,48.942s.006-.01.011-.014.014-.007.021-.012l.021-.017c-3.717-3.844-7.3-7.927-10.69-12.133q-1.152,1.658-2.4,3.4c3.043,3.91,6.29,7.765,9.668,11.464Z"/><path d="M50.468,2.016A.951.951,0,0,0,50.29,2H47.31a1.022,1.022,0,0,0-.923.592,148.58,148.58,0,0,1-14.235,24.9q1.115,1.572,2.3,3.191A195.6,195.6,0,0,0,46.611,10.012C48.512,6.31,49.8,3.521,50.468,2.016Z"/><path d="M30,40.027a.123.123,0,0,0,.105-.049c1.5-2.077,2.917-4.092,4.212-5.99h0a.119.119,0,0,0-.011-.136c-.223-.3-.435-.591-.655-.888l-.007-.009c-1.231-1.66-2.429-3.308-3.551-4.9A.112.112,0,0,0,30,28a.107.107,0,0,0-.093.052c-1.127,1.6-2.325,3.249-3.553,4.905l0,0c-.221.3-.434.593-.658.892a.117.117,0,0,0-.011.137c1.317,1.93,2.735,3.946,4.213,5.99A.122.122,0,0,0,30,40.027ZM28,34a1,1,0,0,1,1-1h2a1,1,0,0,1,0,2H29A1,1,0,0,1,28,34Z"/><path d="M25.545,30.683q1.183-1.612,2.3-3.19A148.505,148.505,0,0,1,13.608,2.579,1.019,1.019,0,0,0,12.69,2H9.71a.951.951,0,0,0-.178.016c.67,1.505,1.956,4.294,3.858,8A195.669,195.669,0,0,0,25.545,30.683Z"/><path d="M54.04,46.243,58,45.689l-.453-3.262a.732.732,0,0,0-.284-.478,2.715,2.715,0,0,1-1.044-1.755L56.2,40H54.177l.062.453a2.643,2.643,0,0,1-.523,2.011.659.659,0,0,0-.137.406c0,.041.008.088.013.129Z"/><path d="M56.935,38h0s.009,0,.014,0H57L51.546,4.474c-.712,1.539-1.713,3.628-3.008,6.161L52.857,38Z"/><path d="M5.823,40H3.805l-.023.172a2.74,2.74,0,0,1-1.059,1.787.715.715,0,0,0-.271.462L2,45.687l3.957.553.452-3.257c0-.025.01-.072.011-.114a.658.658,0,0,0-.137-.405,2.656,2.656,0,0,1-.521-2.028Z"/><path d="M14.184,55.506a.711.711,0,0,0,.168-.519,2.757,2.757,0,0,1,.628-1.946l.594-.708-1.561-1.251-.529.624a2.612,2.612,0,0,1-1.871.941.658.658,0,0,0-.377.169l-.081.089L8.995,55.4,12.032,58Z"/><path d="M45.648,54.987a.694.694,0,0,0,.162.509L47.967,58l3.03-2.6-2.22-2.564a.679.679,0,0,0-.411-.182A2.606,2.606,0,0,1,46.51,51.7l-.521-.615-1.563,1.251.591.7A2.753,2.753,0,0,1,45.648,54.987Z"/><path d="M11.462,10.634c-1.295-2.533-2.3-4.622-3.008-6.16L3,38h.051s.01,0,.014,0H7.15Z"/></svg>
