<?xml version="1.0"?>
<svg xmlns="http://www.w3.org/2000/svg" id="icons" viewBox="0 0 60 60" width="512" height="512"><path d="M56.489,16.982a.2.2,0,0,0-.28-.035L11.865,51.285c-.409.317-.82.6-1.23.87-.007.006-.01.014-.017.02s-.03.014-.044.023A20.835,20.835,0,0,1,2.161,55.38a.193.193,0,0,0-.161.2l.018,1.036a1.408,1.408,0,0,0,.522,1.074,1.335,1.335,0,0,0,1.121.284A23.559,23.559,0,0,0,13.579,53.5L57.922,19.163a.2.2,0,0,0,.036-.281Z"/><path d="M18.06,16.2h-.046a.183.183,0,0,0-.136.063.2.2,0,0,0-.052.151l.168,2.4a.2.2,0,0,0,.2.187C18.425,19,18.7,19,19.021,19a49.37,49.37,0,0,1,12.063,1.467,1.4,1.4,0,0,0,1.59-2.026,1.36,1.36,0,0,0-.858-.68A51.68,51.68,0,0,0,18.266,16.2Z"/><path d="M40.62,8.9a1.427,1.427,0,0,0,.966-.722,51.883,51.883,0,0,1,2.7-4.448.193.193,0,0,0-.045-.264l-1.7-1.294A.715.715,0,0,0,42.139,2l-.031,0A44.8,44.8,0,0,0,39.1,6.879a1.393,1.393,0,0,0,.379,1.756A1.378,1.378,0,0,0,40.62,8.9Z"/><path d="M47.608,21.077a5.392,5.392,0,0,1-3.12-1.953,5.455,5.455,0,0,1-.592-5.7l2.625-5.462a1.413,1.413,0,0,0-.4-1.708l-.729-.573c-.576.889-1.294,2.062-2.044,3.451a3.426,3.426,0,0,1-2.32,1.729,3.391,3.391,0,0,1-3.987-2.525,34.908,34.908,0,0,1-4.185,3.922,16.512,16.512,0,0,1-5.409,2.567,46.389,46.389,0,0,1,4.883,1,3.39,3.39,0,0,1,2.107,1.666,3.4,3.4,0,0,1-3,5.02,3.34,3.34,0,0,1-.864-.113A46.825,46.825,0,0,0,19.663,21l.024,1.569a1.413,1.413,0,0,0,1.389,1.388l.628.01c4.589.062,12.123.175,16.847,4.121Z"/><path d="M4.773,36.866a.2.2,0,0,0,.049.281l4.9,3.462A.2.2,0,0,0,10,40.561l2.077-2.943a.2.2,0,0,0-.049-.281L9.572,35.6c-.016-.009-.029-.022-.045-.032l-2.4-1.694a.176.176,0,0,0-.1-.028.22.22,0,0,0-.174.077Z"/><path d="M13.712,38.771l-2.075,2.942a2.2,2.2,0,0,1-3.066.53l-2.835-2a4.994,4.994,0,0,0,.691,4.88l3.781,4.888c.144-.1.289-.194.433-.306L27.922,36.322l-6.811-2.456a10.965,10.965,0,0,0-9.3.869l1.372.969a2.2,2.2,0,0,1,.529,3.067Z"/></svg>
