<?xml version="1.0"?>
<svg xmlns="http://www.w3.org/2000/svg" id="icons" viewBox="0 0 60 60" width="512" height="512"><path d="M2.17,27H1v3.13c0,4.39,2.16,6.58,4.1,7.43a9.3,9.3,0,0,1-.09-1.05,13.026,13.026,0,0,1,.34-3.53l-.01-.07.09-.27C3.99,31.97,2.72,30.26,2.17,27Z"/><path d="M46.16,12H13.84a12.962,12.962,0,0,0-9.19,3.81A12.828,12.828,0,0,0,1,25H2a13.026,13.026,0,0,1,3.182-5.19A11.748,11.748,0,0,1,13.84,16H46.16a11.748,11.748,0,0,1,8.658,3.81A13.026,13.026,0,0,1,58,25h1a12.828,12.828,0,0,0-3.65-9.19A12.962,12.962,0,0,0,46.16,12Z"/><path d="M54.55,32.65A12.361,12.361,0,0,1,55,35.76a11.925,11.925,0,0,1-.1,1.8c1.94-.85,4.1-3.04,4.1-7.43V27H57.83C57.28,30.28,56,31.98,54.55,32.65Z"/><path d="M41.6,25H18A11.012,11.012,0,0,0,7.387,33.091v.01c0,.014-.012.024-.015.038a11,11,0,0,0,19.47,9.406,3.816,3.816,0,0,1,3.08-1.552h.019a4.142,4.142,0,0,1,3.284,1.643A11,11,0,0,0,53,35.794,11.262,11.262,0,0,0,41.6,25ZM24.707,37.293a1,1,0,1,1-1.414,1.414l-.987-.987A7.6,7.6,0,0,1,19,38.932V41a1,1,0,0,1-2,0V38.932a7.6,7.6,0,0,1-3.306-1.212l-.987.987a1,1,0,0,1-1.414-1.414l.921-.921A5.394,5.394,0,0,1,11,33a1,1,0,0,1,2,0c0,2.206,2.243,4,5,4s5-1.794,5-4a1,1,0,0,1,2,0,5.394,5.394,0,0,1-1.214,3.372Zm24,0a1,1,0,1,1-1.414,1.414l-.987-.987A7.6,7.6,0,0,1,43,38.932V41a1,1,0,0,1-2,0V38.932a7.6,7.6,0,0,1-3.306-1.212l-.987.987a1,1,0,0,1-1.414-1.414l.921-.921A5.394,5.394,0,0,1,35,33a1,1,0,0,1,2,0c0,2.206,2.243,4,5,4s5-1.794,5-4a1,1,0,0,1,2,0,5.394,5.394,0,0,1-1.214,3.372Z"/></svg>
