<svg id="icons" height="512" viewBox="0 0 60 60" width="512" xmlns="http://www.w3.org/2000/svg"><path d="m18.2 24.812a.163.163 0 0 0 .071.1l3.367 2.188a1.886 1.886 0 0 0 2.6-.539 1.861 1.861 0 0 0 -.54-2.571l-3.372-2.211a.155.155 0 0 0 -.079-.022.159.159 0 0 0 -.13.067l-1.89 2.882a.128.128 0 0 0 -.027.106z"/><path d="m18.632 31.342 1.756-2.666-2.34-1.523-1.723 2.68z"/><path d="m7.715 43.225a21.412 21.412 0 0 1 7.021 2.6c.393-.23.8-.476 1.206-.723l-.373-.45a6.711 6.711 0 0 1 -1.063-6.778l-2.365-1.534z"/><path d="m2.223 50.637a3.24 3.24 0 0 0 -.21.9 49.894 49.894 0 0 0 10.657-4.537 15.662 15.662 0 0 0 -6.337-1.9 12.172 12.172 0 0 0 -4.11 5.537z"/><path d="m27.56 17.8c-.163 0-.326-.007-.482-.013a5.176 5.176 0 0 0 -3.457 1.141 4.921 4.921 0 0 0 -1.021 1.155l-.358.561 2.409 1.58z"/><path d="m14.434 31.018a.15.15 0 0 0 -.126.063l-1.893 2.884a.147.147 0 0 0 -.019.1.14.14 0 0 0 .062.09l3.369 2.193a1.885 1.885 0 0 0 1.428.269 1.837 1.837 0 0 0 1.168-.8 1.859 1.859 0 0 0 -.536-2.572l-3.371-2.2a.159.159 0 0 0 -.082-.027z"/><path d="m53.907 15.3a.149.149 0 0 0 -.117-.056.139.139 0 0 0 -.11.051c-2.374 2.76-9.417 10.433-23.491 22.038-14.343 11.822-24.419 15.274-27.779 16.167.049.094.1.186.162.277l2.27 3.568a3.6 3.6 0 0 0 4.2 1.465c3.214-1.064 12.148-4.745 25.74-15.953 14.048-11.586 20.388-18.34 22.918-21.336a1.283 1.283 0 0 0 0-1.65z"/><path d="m44.168 8.563a.154.154 0 0 0 -.127-.044 37.257 37.257 0 0 1 -5.959 5.927 15.043 15.043 0 0 1 -8.055 3.244l-3.968 6.025a3.771 3.771 0 0 1 -.145 3.942 3.874 3.874 0 0 1 -3.249 1.748c-.115 0-.231-.014-.346-.024l-2.2 3.342a3.862 3.862 0 0 1 -3.257 5.939 3.944 3.944 0 0 1 -.5-.036 4.709 4.709 0 0 0 .749 4.753l.546.659a115.4 115.4 0 0 0 11.262-8.255c6.8-5.609 11.929-10.275 15.68-13.908a16.852 16.852 0 0 1 1.164-11.975z"/><path d="m47.341 11.225a14.782 14.782 0 0 0 -1.071 9.014c2.438-2.424 4.143-4.269 5.245-5.513z"/><path d="m44.15 2.19a3.3 3.3 0 0 0 -5.83 1.79 3.285 3.285 0 0 0 .74 2.41 8.627 8.627 0 0 0 2.46 2.05c.34-.39.65-.77.94-1.14l.34-.45a6.434 6.434 0 0 1 -2.2-1.74 1.265 1.265 0 0 1 -.29-.94 1.3 1.3 0 0 1 2.3-.7 5.64 5.64 0 0 1 1.38 3.05h.07a2.192 2.192 0 0 1 1.42.53l.42.35c.41-1.53-.48-3.68-1.75-5.21z"/></svg>