<?xml version="1.0"?>
<svg xmlns="http://www.w3.org/2000/svg" id="icons" viewBox="0 0 60 60" width="512" height="512"><path d="M48.6,43.392c-.277-.093-.532-.18-.767-.276a10.491,10.491,0,0,1-4.208-2.8,9.639,9.639,0,0,1-1.143,1.62C40.126,44.574,35.366,49,30,49s-10.126-4.426-12.485-7.063a9.653,9.653,0,0,1-1.144-1.621,10.512,10.512,0,0,1-4.217,2.8c-.225.092-.48.179-.736.264A1.882,1.882,0,0,0,10.041,45.5C11.685,52.742,20.078,58,30,58s18.315-5.258,19.958-12.5A1.873,1.873,0,0,0,48.6,43.392Z"/><path d="M37.193,26A2.671,2.671,0,0,0,40,23.5,2.671,2.671,0,0,0,37.193,21c-1.781,0-3.522,1.732-4.189,2.478C33.67,24.266,35.412,26,37.193,26Z"/><path d="M22.818,26c1.759,0,3.487-1.69,4.149-2.417a.121.121,0,0,0,0-.167C26.305,22.689,24.578,21,22.818,21A2.678,2.678,0,0,0,20,23.5,2.678,2.678,0,0,0,22.818,26Z"/><path d="M27,37a3,3,0,0,0,3,3h0a3,3,0,0,0,3-3,1,1,0,0,0-1-1H28A1,1,0,0,0,27,37Z"/><path d="M15.079,17.8l2.028,18.631a7.692,7.692,0,0,0,1.9,4.173c2.138,2.388,6.407,6.4,11,6.4S38.857,42.992,41,40.6a7.7,7.7,0,0,0,1.9-4.188L44.921,17.8A13.757,13.757,0,0,0,41.4,7.009a15.468,15.468,0,0,0-22.792,0A13.757,13.757,0,0,0,15.079,17.8Zm16.433,4.346C32.562,20.971,34.7,19,37.193,19A4.668,4.668,0,0,1,42,23.5,4.668,4.668,0,0,1,37.193,28c-2.5,0-4.631-1.972-5.681-3.147A2.056,2.056,0,0,1,31.512,22.146ZM32,34a3,3,0,0,1,3,3,5,5,0,0,1-10,0,3,3,0,0,1,3-3ZM22.818,19c2.466,0,4.584,1.924,5.627,3.07h0a2.116,2.116,0,0,1,0,2.858C27.4,26.076,25.283,28,22.818,28A4.674,4.674,0,0,1,18,23.5,4.674,4.674,0,0,1,22.818,19Z"/></svg>
