<svg id="icons" height="512" viewBox="0 0 60 60" width="512" xmlns="http://www.w3.org/2000/svg"><path d="m31.143 34.525a52.005 52.005 0 0 1 5.473-6.147c-5.568-.633-11.53 2.427-14.012 3.9a3.358 3.358 0 0 1 -3.455-.011l-2.549-1.551-.742 2.276a24.5 24.5 0 0 1 -7.435 11.1l-4.7 3.99a4.871 4.871 0 0 0 -1.174 5.934 62.746 62.746 0 0 0 21.874-12.262 45.473 45.473 0 0 0 6.72-7.229z"/><path d="m21.664 14.229a3.3 3.3 0 0 0 -3.7 2.6l-.243 1.164 1.991.572a1 1 0 0 1 -.276 1.961.991.991 0 0 1 -.277-.039l-1.847-.531-.792 3.8 1.892.547a1 1 0 0 1 -.277 1.961 1.03 1.03 0 0 1 -.278-.039l-1.746-.5-.411 1.975.081.186 4.409 2.674a1.342 1.342 0 0 0 1.381.011c2.9-1.722 10.281-5.475 16.952-3.876l13.587-11.554c-.077-.917-.544-3.47-3.287-6.7a32.8 32.8 0 0 0 -6.832-5.811.992.992 0 0 0 -1.447.4 23.777 23.777 0 0 1 -5.5 7.622c-4.725 4.023-10.408 3.968-13.38 3.577z"/><path d="m54.917 15.617a.174.174 0 0 0 -.123-.065.142.142 0 0 0 -.124.038l-14.48 12.31 2.4 2.82.761.894a.181.181 0 0 0 .123.062.2.2 0 0 0 .123-.042l14.343-12.184a.183.183 0 0 0 .014-.257z"/><path d="m32.711 35.767a47.68 47.68 0 0 1 -6.993 7.51 64.53 64.53 0 0 1 -23.011 12.775.152.152 0 0 0 -.114.11.172.172 0 0 0 .037.169l1.37 1.607a.172.172 0 0 0 .179.056 60.852 60.852 0 0 0 23.289-12.654 45.513 45.513 0 0 0 6.72-7.228 49.479 49.479 0 0 1 6.242-6.849l-1.753-2.063a47.221 47.221 0 0 0 -5.966 6.567z"/></svg>