<?xml version="1.0"?>
<svg xmlns="http://www.w3.org/2000/svg" id="icons" viewBox="0 0 60 60" width="512" height="512"><path d="M30.492,17.041a.433.433,0,0,1-.037.027,21.408,21.408,0,0,1-9.338,3.718,1,1,0,0,0-.843,1.132l.418,2.877a1,1,0,0,0,1.191.837C26.571,24.625,40,20.958,40,12A10,10,0,1,0,22.41,18.5a19.6,19.6,0,0,0,5.8-2.324c-.594-.514-1.18-1.062-1.751-1.639a5.007,5.007,0,0,1,5.546-8.125,5.114,5.114,0,0,1,2.965,3.877,4.747,4.747,0,0,1-1.47,4.287C32.459,15.5,31.448,16.334,30.492,17.041Z"/><path d="M42.981,51.88,38.569,29.271a7.036,7.036,0,0,0-1.585-3.227L34.4,23.165a42.5,42.5,0,0,1-12.413,4.49,6.9,6.9,0,0,0-.557,1.621l-4.409,22.6a.8.8,0,0,0,0,.129L17,55a1,1,0,0,0,2,0V53.543a19.808,19.808,0,0,0,2,.573V56a1,1,0,0,0,2,0V54.5c.614.1,1.279.186,2,.259V57a1,1,0,0,0,2,0V54.917c.632.035,1.3.06,2,.072V57a1,1,0,0,0,2,0V54.989c.7-.012,1.368-.037,2-.072V57a1,1,0,0,0,2,0V54.762c.722-.074,1.387-.161,2-.259V56a1,1,0,0,0,2,0V54.116a19.862,19.862,0,0,0,2-.574V55a1,1,0,0,0,2,0l-.016-3A.8.8,0,0,0,42.981,51.88Zm-18.99-.745A1,1,0,0,1,23,52a1.047,1.047,0,0,1-.136-.009,1,1,0,0,1-.856-1.126l2.863-21a1,1,0,1,1,1.982.27ZM31,52a1,1,0,0,1-2,0V36a1,1,0,0,1,2,0Zm6.135-.009A1.047,1.047,0,0,1,37,52a1,1,0,0,1-.99-.865l-3-22a1,1,0,1,1,1.982-.27l3,22A1,1,0,0,1,37.135,51.991Z"/></svg>
