<svg id="icons" height="512" viewBox="0 0 60 60" width="512" xmlns="http://www.w3.org/2000/svg"><path d="m48 23a12.014 12.014 0 0 0 -12-12h-12a12.014 12.014 0 0 0 -12 12v11.243c1.9.492 7.768 1.757 18 1.757s16.1-1.265 18-1.757z"/><path d="m48 39.587v-3.278c-2.426.591-8.264 1.691-18 1.691s-15.572-1.1-18-1.691v3.28c3.632 1.684 9.437 3.411 18 3.411s14.368-1.724 18-3.413z"/><path d="m54.482 37.7c-.064.075-6.682 7.3-24.482 7.3-17.66 0-24.181-6.965-24.449-7.262a2.045 2.045 0 0 0 -1.561-.738 1.983 1.983 0 0 0 -1.28.467 2 2 0 0 0 -.239 2.818c.3.361 7.561 8.715 27.529 8.715s27.231-8.355 27.531-8.711a1.975 1.975 0 0 0 -.231-2.789 2.019 2.019 0 0 0 -2.818.2z"/></svg>