<?xml version="1.0"?>
<svg xmlns="http://www.w3.org/2000/svg" id="icons" viewBox="0 0 60 60" width="512" height="512"><path d="M33.581,17.381a3.493,3.493,0,0,0-.123-3.492,4.11,4.11,0,0,0-6.916,0,3.493,3.493,0,0,0-.123,3.492l.524,1.008A45.472,45.472,0,0,1,30,25.108a45.472,45.472,0,0,1,3.057-6.719Z"/><path d="M11,52.025a1,1,0,0,0,1,.98l1.065,0a1,1,0,0,0,.995-.984c.332-12.427,3.779-17.169,4.95-18.429-.056-6.323-1.351-9.619-2.13-11.026C12.051,28.1,10.9,43.029,11,52.025Z"/><path d="M40.985,33.589c1.171,1.26,4.619,6,4.954,18.42a1,1,0,0,0,.993.983L48,53A1,1,0,0,0,49,52.016c.1-8.99-1.052-23.921-5.885-29.453C42.336,23.97,41.041,27.266,40.985,33.589Z"/><path d="M23.033,14.52a8.78,8.78,0,0,0-2.026,5.524,10.888,10.888,0,0,1,5.665,2.231c-.472-.984-.981-1.965-1.5-2.961L24.644,18.3a5.514,5.514,0,0,1-.023-5.048A6.758,6.758,0,0,0,23.033,14.52Z"/><path d="M32.524,2H27.476a3.978,3.978,0,0,0-3.744,2.6l-.164.439a3.915,3.915,0,0,1,.782-.019A4.039,4.039,0,0,1,28.5,4.292a4.029,4.029,0,0,1,2.992,0,4.046,4.046,0,0,1,4.154.724,4,4,0,0,1,.783.019l-.166-.444A3.978,3.978,0,0,0,32.524,2Z"/><path d="M42.968,14a1.975,1.975,0,0,0-1.329-1.874,1,1,0,0,1-.663-1.108,2.008,2.008,0,0,0-2-2.018,1.022,1.022,0,0,1-1.125-.667A1.972,1.972,0,0,0,35.986,7a2.271,2.271,0,0,0-.486.058,1.01,1.01,0,0,1-.986-.345,2.013,2.013,0,0,0-2.524-.444,1.007,1.007,0,0,1-.989,0,2,2,0,0,0-2,0,1.007,1.007,0,0,1-.989,0,2.01,2.01,0,0,0-2.524.443,1.013,1.013,0,0,1-.986.345A2.271,2.271,0,0,0,24.014,7a1.972,1.972,0,0,0-1.868,1.333A1,1,0,0,1,21.038,9a2.008,2.008,0,0,0-2.011,2,1.024,1.024,0,0,1-.666,1.126A1.975,1.975,0,0,0,17.032,14a1.922,1.922,0,0,0,.146.731,1,1,0,0,1-.669,1.346A2,2,0,0,0,17.029,20h1.976a10.709,10.709,0,0,1,2.534-6.811C23.455,11.073,26.3,10,30,10s6.545,1.073,8.461,3.189A10.709,10.709,0,0,1,41,20h1.976a2,2,0,0,0,.52-3.923,1,1,0,0,1-.668-1.347A1.932,1.932,0,0,0,42.968,14Z"/><path d="M24.012,43H20.637c-.076,1.016-.158,2.019-.246,3h3.623Z"/><path d="M19.784,52h2.235a1,1,0,0,0,1-1V48H20.206C20.066,49.433,19.921,50.786,19.784,52Z"/><path d="M20.022,22H18.849c.954,1.905,2.173,5.592,2.173,12,0,2.2-.1,4.6-.249,7h3.241a2,2,0,0,1,2,2v3a2,2,0,0,1-1,1.721V51a3,3,0,0,1-3,3H19.551c-.095.788-.182,1.489-.255,2.057a.985.985,0,0,0,.213.753,1,1,0,0,0,.692.366l8.8.747V31c0-.319-.03-.625-.049-.936A9,9,0,0,0,20.022,22Z"/><path d="M37.981,54a3,3,0,0,1-3-3V47.721a2,2,0,0,1-1-1.721V43a2,2,0,0,1,2-2h3.241c-.151-2.4-.249-4.8-.249-7,0-6.405,1.219-10.092,2.173-12H39.978a9,9,0,0,0-8.929,8.064c-.019.311-.049.617-.049.936V57.923l8.8-.747a.995.995,0,0,0,.907-1.12c-.073-.568-.16-1.268-.255-2.056Z"/><path d="M39.363,43H35.986l0,3h3.621C39.521,45.019,39.439,44.016,39.363,43Z"/><path d="M34.829,19.314c-.519,1-1.028,1.976-1.5,2.96a10.89,10.89,0,0,1,5.666-2.23,8.792,8.792,0,0,0-2.027-5.524,6.758,6.758,0,0,0-1.588-1.267,5.514,5.514,0,0,1-.023,5.048Z"/><path d="M37.981,52h2.235c-.137-1.214-.282-2.567-.422-4H36.986v3A1,1,0,0,0,37.981,52Z"/></svg>
