<svg id="icons" height="512" viewBox="0 0 60 60" width="512" xmlns="http://www.w3.org/2000/svg"><path d="m32.238 51.682a8.01 8.01 0 0 1 -4.476 0c-.258-.075-.508-.16-.762-.24v2.558h6v-2.558c-.254.08-.5.165-.762.24z"/><path d="m42 56h-24a1 1 0 0 0 0 2h24a1 1 0 0 0 0-2z"/><path d="m54.828 18.583a44.8 44.8 0 0 1 -3.941-3.271c-1.467 3.011-4.752 7.428-11.963 10.888a5.037 5.037 0 0 1 .079.844 4.978 4.978 0 0 1 -1.503 3.578l-5.825 5.726a2.394 2.394 0 0 1 -3.343 0l-5.832-5.726a5.01 5.01 0 0 1 -1.5-3.581 4.922 4.922 0 0 1 .083-.834c-7.216-3.464-10.5-7.883-11.97-10.9a44.8 44.8 0 0 1 -3.941 3.271 7.924 7.924 0 0 0 -2.115 10.3c.965 1.666 9.88 16.412 25.263 20.884a6.036 6.036 0 0 0 3.36 0c15.383-4.472 24.3-19.218 25.263-20.884a7.924 7.924 0 0 0 -2.115-10.3z"/><path d="m31.525 25.034-.824.811a1 1 0 0 1 -1.4 0l-.976-.958a3.126 3.126 0 0 0 -2.211-.887 3.172 3.172 0 0 0 -2.216.894 3.017 3.017 0 0 0 .01 4.305l5.822 5.723a.393.393 0 0 0 .538 0l5.826-5.722a3.009 3.009 0 0 0 -.157-4.453 3.331 3.331 0 0 0 -4.412.287zm-1.809 5.676a1 1 0 0 1 -1.416-.01l-1.984-2a1 1 0 0 1 1.42-1.408l1.984 2a1 1 0 0 1 -.004 1.418z"/><path d="m38.2 24.335c7.13-3.461 10.028-7.838 11.177-10.514a30.69 30.69 0 0 1 -5.661-7.989c-3.403 2.094-12.472 2.168-13.716 2.168s-10.313-.074-13.714-2.168a30.69 30.69 0 0 1 -5.661 7.989c1.149 2.679 4.047 7.054 11.175 10.515a5.166 5.166 0 0 1 7.922-.875l.273.268.124-.121a5.3 5.3 0 0 1 7.119-.38 5.074 5.074 0 0 1 .962 1.107z"/><ellipse cx="30" cy="4" rx="12.916" ry="2"/></svg>