<?xml version="1.0"?>
<svg xmlns="http://www.w3.org/2000/svg" id="icons" viewBox="0 0 60 60" width="512" height="512"><path d="M30,54c.348,0,.685,0,1.025-.005.261-13.233,3.042-21.519,5.527-26.311a16.968,16.968,0,0,1-13.116-.005C25.922,32.471,28.7,40.758,28.965,54,29.309,54,29.649,54,30,54Z"/><path d="M19.187,20.013A7.8,7.8,0,0,1,25,16.068V12.955c-5.075-.425-8.216-4.035-10-7.137V12a14.924,14.924,0,0,0,3.377,9.465Z"/><path d="M40.814,20.015l.809,1.451A14.929,14.929,0,0,0,45,12V5.818c-1.784,3.1-4.925,6.712-10,7.137v3.113A7.8,7.8,0,0,1,40.814,20.015Z"/><path d="M4,51.272c2.094.625,9.342,2.457,22.964,2.7-.33-16.3-4.539-24.729-7.082-28.343A16.967,16.967,0,0,1,13,12V2.479l-2.368.949A1,1,0,0,0,10,4.35v9.664A23.389,23.389,0,0,1,5.3,27.939,17.025,17.025,0,0,0,3.174,44.221,11.35,11.35,0,0,1,4,48.387Z"/><path d="M32,16h1V13H32a1,1,0,0,0-1,1v1A1,1,0,0,0,32,16Z"/><path d="M29,15V14a1,1,0,0,0-1-1H27v3h1A1,1,0,0,0,29,15Z"/><path d="M4,53.36v1.16a.993.993,0,0,0,.725.961C7.516,56.238,15.564,58,30,58s22.484-1.762,25.275-2.519A.993.993,0,0,0,56,54.52V53.36C52.989,54.2,44.831,56,30,56S7.011,54.2,4,53.36Z"/><path d="M50,14.014V4.35a.994.994,0,0,0-.627-.919L47,2.479V12a16.967,16.967,0,0,1-6.9,13.644c-2.544,3.621-6.742,12.052-7.072,28.328C46.654,53.729,53.905,51.9,56,51.272V48.387a11.359,11.359,0,0,1,.826-4.167A17.023,17.023,0,0,0,54.7,27.939,23.389,23.389,0,0,1,50,14.014Z"/></svg>
