<svg id="Capa_1" enable-background="new 0 0 512 512" height="512" viewBox="0 0 512 512" width="512" xmlns="http://www.w3.org/2000/svg"><g><g><path d="m504.5 479.675c4.142 0 7.5-3.358 7.5-7.5v-464.675c0-4.142-3.358-7.5-7.5-7.5h-32.325c-4.142 0-7.5 3.358-7.5 7.5v24.825h-135.776v-8.663c0-13.047-10.615-23.662-23.663-23.662s-23.663 10.615-23.663 23.663v8.663h-51.111v-8.663c0-13.048-10.615-23.663-23.662-23.663s-23.663 10.615-23.663 23.663v8.663h-135.812v-24.826c0-4.142-3.358-7.5-7.5-7.5h-32.325c-4.142 0-7.5 3.358-7.5 7.5v464.675c0 4.142 3.358 7.5 7.5 7.5h8.663v17.325h-8.663c-4.142 0-7.5 3.358-7.5 7.5s3.358 7.5 7.5 7.5h32.325c4.142 0 7.5-3.358 7.5-7.5s-3.358-7.5-7.5-7.5h-8.663v-17.325h8.663c4.142 0 7.5-3.358 7.5-7.5v-424.85h168.137v8.663c0 4.776-3.886 8.663-8.663 8.663-4.142 0-7.5 3.358-7.5 7.5v24.83h-70.28c-1.989 0-3.896.79-5.303 2.196l-57.58 57.57c-1.407 1.406-2.197 3.314-2.197 5.303s.79 3.897 2.197 5.304l44.45 44.45c1.406 1.407 3.314 2.197 5.303 2.197s3.897-.79 5.303-2.197l1.336-1.336v20.173c0 4.142 3.358 7.5 7.5 7.5s7.5-3.358 7.5-7.5v-38.28c0-3.034-1.827-5.768-4.63-6.929-2.802-1.16-6.028-.519-8.173 1.626l-8.836 8.836-33.842-33.844 50.08-50.07h27.395c3.613 22.863 23.452 40.402 47.315 40.402s43.701-17.539 47.314-40.402h27.324l50.08 50.07-33.843 33.843-8.837-8.837c-2.145-2.145-5.372-2.786-8.173-1.626-2.803 1.161-4.63 3.896-4.63 6.929v126.85h-138.542v-53.57c0-4.142-3.358-7.5-7.5-7.5s-7.5 3.358-7.5 7.5v53.571h-11.993c-13.048 0-23.663 10.615-23.663 23.663 0 6.245 2.436 11.929 6.403 16.163-3.967 4.233-6.403 9.917-6.403 16.163 0 3.057.589 5.978 1.649 8.663h-18.393c-4.142 0-7.5 3.358-7.5 7.5v113.138c0 4.142 3.358 7.5 7.5 7.5h371.74c4.142 0 7.5-3.358 7.5-7.5v-113.138c0-4.142-3.358-7.5-7.5-7.5h-18.394c1.06-2.685 1.649-5.605 1.649-8.663 0-6.245-2.436-11.929-6.403-16.163 3.967-4.233 6.403-9.917 6.403-16.163 0-13.048-10.615-23.663-23.663-23.663h-11.992v-45.73c0-4.142-3.358-7.5-7.5-7.5s-7.5 3.358-7.5 7.5v45.73h-83.4v-108.744l1.337 1.337c2.929 2.929 7.678 2.929 10.606 0l44.45-44.45c1.407-1.407 2.197-3.314 2.197-5.304s-.791-3.897-2.197-5.303l-13.745-13.743c10.057-7.445 16.855-18.593 18.826-31.023h27.331l50.079 50.07-33.843 33.843-8.836-8.836c-2.144-2.145-5.371-2.786-8.173-1.626-2.803 1.161-4.63 3.896-4.63 6.929v46.12c0 4.142 3.358 7.5 7.5 7.5s7.5-3.358 7.5-7.5v-28.013l1.336 1.336c1.406 1.407 3.314 2.197 5.303 2.197s3.897-.79 5.303-2.197l44.45-44.45c1.407-1.407 2.197-3.314 2.197-5.304s-.791-3.897-2.197-5.303l-57.58-57.57c-1.406-1.406-3.314-2.196-5.303-2.196h-70.244v-18.547c9.383-3.144 16.163-12.017 16.163-22.445v-8.663h135.776v424.85c0 4.142 3.358 7.5 7.5 7.5h8.663v17.325h-8.663c-4.142 0-7.5 3.358-7.5 7.5s3.358 7.5 7.5 7.5h32.324c4.142 0 7.5-3.358 7.5-7.5s-3.358-7.5-7.5-7.5h-8.663v-17.325zm-472.175-15h-17.325v-449.675h17.325zm78.212-130.464h129.301c4.776 0 8.663 3.886 8.663 8.663s-3.886 8.663-8.663 8.663h-129.301c-4.776 0-8.663-3.886-8.663-8.663s3.886-8.663 8.663-8.663zm-8.663 40.988c0-4.776 3.886-8.663 8.663-8.663h129.301c4.776 0 8.663 3.886 8.663 8.663s-3.886 8.663-8.663 8.663h-129.301c-4.777 0-8.663-3.886-8.663-8.663zm332.496 121.801h-356.74v-98.138h356.74zm-162.207-113.138c-4.776 0-8.663-3.886-8.663-8.663s3.886-8.663 8.663-8.663h129.301c4.776 0 8.663 3.886 8.663 8.663s-3.886 8.663-8.663 8.663zm137.963-40.988c0 4.776-3.886 8.663-8.663 8.663h-129.3c-4.776 0-8.663-3.886-8.663-8.663s3.886-8.663 8.663-8.663h129.301c4.776 0 8.662 3.887 8.662 8.663zm-113.552-319.211c0-4.776 3.886-8.663 8.663-8.663s8.663 3.886 8.663 8.663v8.663h-17.325v-8.663zm-98.437 8.662v-8.663c0-4.776 3.886-8.663 8.663-8.663s8.663 3.886 8.663 8.663v8.663zm8.699 105.057c-15.563 0-28.627-10.863-32.033-25.402h64.066c-3.406 14.539-16.471 25.402-32.033 25.402zm116.097-5.161-20.245-20.241h34.574c-1.948 8.317-7.076 15.608-14.329 20.241zm-9.034-76.233c0 4.776-3.886 8.663-8.663 8.663-4.142 0-7.5 3.358-7.5 7.5v24.83h-83.436v-18.548c9.383-3.144 16.163-12.017 16.163-22.445v-8.663h83.437v8.663zm165.776-40.988h17.325v449.675h-17.325z"/><path d="m160.66 423.69c0 4.142 3.358 7.5 7.5 7.5h233.88v33.48h-292.08v-33.48h23.2c4.142 0 7.5-3.358 7.5-7.5s-3.358-7.5-7.5-7.5h-30.7c-4.142 0-7.5 3.358-7.5 7.5v48.48c0 4.142 3.358 7.5 7.5 7.5h307.08c4.142 0 7.5-3.358 7.5-7.5v-48.48c0-4.142-3.358-7.5-7.5-7.5h-241.38c-4.142 0-7.5 3.358-7.5 7.5z"/></g></g></svg>